<svg id="Group_51380" data-name="Group 51380" xmlns="http://www.w3.org/2000/svg" xmlns:xlink="http://www.w3.org/1999/xlink" width="142.023" height="142.023" viewBox="0 0 142.023 142.023">
  <defs>
    <clipPath id="clip-path">
      <rect id="Rectangle_19897" data-name="Rectangle 19897" width="82.293" height="84.119" transform="translate(0 0)" fill="#fff"/>
    </clipPath>
  </defs>
  <path id="Path_171" data-name="Path 171" d="M142.023,221.012A71.012,71.012,0,1,1,71.012,150a71.012,71.012,0,0,1,71.012,71.012" transform="translate(0 -150)" fill="#239f79"/>
  <g id="Group_51381" data-name="Group 51381" transform="translate(24.986 28.952)">
    <g id="Group_51381-2" data-name="Group 51381" transform="translate(0 0)" clip-path="url(#clip-path)">
      <path id="Path_75372" data-name="Path 75372" d="M239.044,346.343c-1.36-.271-2.736-.479-4.076-.825a24.323,24.323,0,0,1-12.1-7.329c-.679-.744-.722-1.391-.15-1.944.592-.573,1.267-.5,1.987.277A22.343,22.343,0,0,0,263.509,319.8a29.794,29.794,0,0,0-.664-3.955c-.219-1.078.005-1.7.812-1.908.78-.2,1.368.233,1.614,1.315,2.185,9.6-.2,17.882-7.378,24.648a23.54,23.54,0,0,1-13.872,6.291,3.282,3.282,0,0,0-.54.154Z" transform="translate(-185.729 -262.224)" fill="#fff"/>
      <path id="Path_75373" data-name="Path 75373" d="M62.254,17.2c-1.737,0-3.651,0-5.565,0a7.7,7.7,0,0,1-1.145-.065,2.277,2.277,0,0,1-2.053-2.364c-.017-2.081,0-4.162-.008-6.243A5.983,5.983,0,0,0,48.032,2.48c-.65-.07-.98.1-.959.823.035,1.2.02,2.409,0,3.614a1.247,1.247,0,0,1-1.188,1.392,1.268,1.268,0,0,1-1.273-1.4c-.013-1.369-.023-2.738,0-4.107A2.831,2.831,0,0,1,47.464,0a8.35,8.35,0,0,1,8.472,8.143c.038,2.13.006,4.262.006,6.516h1.023q9.942,0,19.883,0a5.154,5.154,0,0,1,5.277,3.95,5,5,0,0,1-1.035,4.543c-.086.106-.181.205-.271.309s-.17.2-.252.3a5.371,5.371,0,0,1,.013,7.87,5.311,5.311,0,0,1-1.944,8.951,13.127,13.127,0,0,1,.613,1.744A5.175,5.175,0,0,1,74.17,48.61c-1.506.021-3.012,0-4.519,0h-.642a48.752,48.752,0,0,1,2.579,5.353A16.953,16.953,0,0,1,46.6,73.744c-.514-.311-.911-.751-.72-1.327a1.788,1.788,0,0,1,.916-1.009A1.672,1.672,0,0,1,48,71.692a15.029,15.029,0,0,0,8.065,2.093A14.482,14.482,0,1,0,43.7,67.654c.553.8.533,1.421-.013,1.908a1.28,1.28,0,0,1-1.961-.389,16.956,16.956,0,0,1-3.017-7.535c-.016-.1-.039-.206-.056-.3a2.134,2.134,0,0,0-2.78,2.184c0,1.1.013,2.191,0,3.286a3.9,3.9,0,0,1-3.942,3.977q-2.916.042-5.833,0a3.816,3.816,0,0,1-3.887-3.751c-.063-1.229-.059-2.465-.013-3.7.041-1.079-.554-1.55-1.46-1.9a1.736,1.736,0,0,0-2.146.417c-.779.845-1.606,1.647-2.434,2.445a3.818,3.818,0,0,1-5.636-.023Q8.5,62.3,6.512,60.274a3.833,3.833,0,0,1,.037-5.7c.806-.82,1.6-1.653,2.445-2.434a1.773,1.773,0,0,0,.266-2.3,1.665,1.665,0,0,0-1.711-1.231c-1.176.043-2.355.02-3.532.008A3.812,3.812,0,0,1,.038,44.8q-.077-3.037,0-6.078a3.725,3.725,0,0,1,3.764-3.755c1.231-.045,2.465-.04,3.7-.01,1.034.025,1.469-.569,1.834-1.434a1.7,1.7,0,0,0-.367-2.144c-.832-.793-1.643-1.611-2.443-2.436a3.845,3.845,0,0,1,.007-5.7q1.958-1.992,3.95-3.95a3.841,3.841,0,0,1,5.7-.01c.843.823,1.679,1.652,2.5,2.5a1.666,1.666,0,0,0,2.085.309c.824-.345,1.448-.736,1.426-1.748-.025-1.149-.019-2.3,0-3.45a3.828,3.828,0,0,1,4.106-4.1q2.711-.023,5.423,0a3.875,3.875,0,0,1,4.156,4.15c.005,1.122.038,2.247-.01,3.367-.042.977.506,1.4,1.307,1.741a1.725,1.725,0,0,0,2.227-.3c.743-.8,1.554-1.544,2.314-2.333a4.085,4.085,0,0,1,2.9-1.372c0-1.485,0-2.956,0-4.427a8.826,8.826,0,0,1,.011-.9A1.217,1.217,0,0,1,45.9,11.575a1.166,1.166,0,0,1,1.169,1.148c.02.273.012.547.012.821q0,12.28,0,24.561a7.679,7.679,0,0,0,1.641,5.039.981.981,0,0,0,.857.26,17.025,17.025,0,0,1,13.465.715,3.28,3.28,0,0,0,.375.12,5.6,5.6,0,0,1,1.143-4.1A5.287,5.287,0,0,1,61.9,36.107a5.213,5.213,0,0,1,1.752-4.462,5.359,5.359,0,0,1-1.778-3.908,5.187,5.187,0,0,1,1.564-3.752,14.79,14.79,0,0,1-1.418-3.254,14.758,14.758,0,0,1,.233-3.536M44.612,20.373a9.406,9.406,0,0,0-1.048.737c-.791.756-1.563,1.533-2.327,2.318a4.124,4.124,0,0,1-4.94.951,4.1,4.1,0,0,1-2.927-4.169c.016-1.149.028-2.3-.01-3.449a1.363,1.363,0,0,0-1.56-1.492q-2.793-.016-5.585,0A1.344,1.344,0,0,0,24.7,16.785c-.014,1.2.016,2.409-.009,3.613a4.122,4.122,0,0,1-2.964,3.986,4.04,4.04,0,0,1-4.751-.807c-.837-.827-1.657-1.673-2.5-2.493a1.392,1.392,0,0,0-2.275.021Q10.243,23.04,8.311,25a1.369,1.369,0,0,0,.008,2.213c.84.863,1.71,1.7,2.549,2.561a4.068,4.068,0,0,1,.711,4.839,4.072,4.072,0,0,1-3.913,2.825c-1.149.023-2.3,0-3.45.006-1.235.005-1.694.452-1.7,1.664q-.009,2.628,0,5.255c0,1.3.462,1.758,1.792,1.771,1.15.011,2.3-.058,3.448.027a4.9,4.9,0,0,1,2.022.534,4.711,4.711,0,0,1,.969,7.212c-.8.822-1.636,1.617-2.437,2.441a1.372,1.372,0,0,0,0,2.217q1.926,1.964,3.891,3.891a1.428,1.428,0,0,0,2.283-.023c.841-.823,1.658-1.672,2.5-2.492a4.079,4.079,0,0,1,4.836-.747,4.115,4.115,0,0,1,2.863,3.977c.02,1.122,0,2.244,0,3.367,0,1.285.437,1.744,1.713,1.758,1.725.018,3.45.015,5.174,0,1.318-.01,1.768-.471,1.786-1.791.018-1.286-.017-2.574.049-3.857a3.49,3.49,0,0,1,2.169-3.138c.93-.423,1.931-.689,2.984-1.054a17.087,17.087,0,0,1,2.376-7.8,17.507,17.507,0,0,1,5.843-5.893,11.22,11.22,0,0,1-2.2-7.373c.065-5.309.019-10.62.019-15.931Zm27.495,17.9c1.586,0,3.172.012,4.757,0a2.709,2.709,0,1,0,0-5.4q-4.757-.026-9.514,0a2.715,2.715,0,1,0,0,5.4c1.586.012,3.171,0,4.757,0M72.062,30.4c1.64,0,3.28.008,4.92,0a2.68,2.68,0,0,0,2.8-2.516,2.606,2.606,0,0,0-2.635-2.833c-3.361-.06-6.724-.055-10.086-.005a2.675,2.675,0,0,0-2.706,2.712A2.733,2.733,0,0,0,67.224,30.4c1.613.009,3.226,0,4.838,0m-.015-7.875c1.667,0,3.334.01,5,0a2.643,2.643,0,0,0,2.739-2.647,2.611,2.611,0,0,0-2.705-2.67q-5-.032-10,0a2.659,2.659,0,0,0-2.721,2.677,2.688,2.688,0,0,0,2.769,2.64c1.64.012,3.28,0,4.92,0M71.379,40.74c-.929,0-1.858-.016-2.786,0a2.646,2.646,0,0,0-2.67,2.469,2.525,2.525,0,0,0,2.405,2.85,60.619,60.619,0,0,0,6.139,0,2.521,2.521,0,0,0,2.384-2.866,2.646,2.646,0,0,0-2.687-2.449c-.928-.018-1.857,0-2.786,0" transform="translate(0 -0.001)" fill="#fff"/>
      <path id="Path_75374" data-name="Path 75374" d="M289.914,333.71c1.971-2.228,3.908-4.417,5.845-6.608.871-.984,1.735-1.974,2.609-2.956.654-.735,1.324-.847,1.922-.339s.581,1.272-.078,2.017q-4.54,5.142-9.087,10.276c-.895,1.009-1.565,1-2.436.008l-5.359-6.116c-.09-.1-.184-.2-.266-.313a1.271,1.271,0,0,1,.056-1.775,1.226,1.226,0,0,1,1.82.153c1.37,1.529,2.71,3.085,4.064,4.63.287.328.58.652.91,1.023" transform="translate(-236.198 -270.251)" fill="#fff"/>
      <path id="Path_75375" data-name="Path 75375" d="M112.561,177.629a10.382,10.382,0,0,0-10.07,7.453c-.04.13-.065.266-.113.393a1.241,1.241,0,0,1-1.608.879,1.221,1.221,0,0,1-.761-1.594,12.377,12.377,0,0,1,3.935-6.4,12.944,12.944,0,1,1-3.846,13.321c-.1-.331-.23-.787-.085-1.021a2.067,2.067,0,0,1,1.079-.935c.665-.152,1.042.37,1.324.972a17.984,17.984,0,0,0,2,3.9,10.423,10.423,0,0,0,18.46-5.3,10.374,10.374,0,0,0-10.315-11.668" transform="translate(-83.499 -146.291)" fill="#fff"/>
      <path id="Path_75376" data-name="Path 75376" d="M134.19,218.581a6.9,6.9,0,0,1,6.908-6.948,6.957,6.957,0,1,1-6.908,6.948m11.377.044a4.454,4.454,0,0,0-4.428-4.531,4.526,4.526,0,0,0-4.483,4.421,4.44,4.44,0,0,0,4.455,4.5,4.385,4.385,0,0,0,4.456-4.387" transform="translate(-112.104 -176.801)" fill="#fff"/>
    </g>
  </g>
</svg>
