<svg id="Group_51757" data-name="Group 51757" xmlns="http://www.w3.org/2000/svg" xmlns:xlink="http://www.w3.org/1999/xlink" width="120" height="120" viewBox="0 0 120 120">
  <defs>
    <clipPath id="clip-path">
      <rect id="Rectangle_20125" data-name="Rectangle 20125" width="76.93" height="78.418" fill="#fff"/>
    </clipPath>
  </defs>
  <path id="Path_171" data-name="Path 171" d="M120,210a60,60,0,1,1-60-60,60,60,0,0,1,60,60" transform="translate(0 -150)" fill="#7f3f97"/>
  <g id="Group_51776" data-name="Group 51776" transform="translate(21.535 20.791)">
    <g id="Group_51775" data-name="Group 51775" clip-path="url(#clip-path)">
      <path id="Path_75655" data-name="Path 75655" d="M70.927,190.147c1.336-1.068,2.645-2.117,3.957-3.162.193-.153.405-.414.6-.405a2.031,2.031,0,0,1,1.168.314.772.772,0,0,1-.063,1.234c-1.786,1.466-3.582,2.921-5.409,4.336a.924.924,0,0,1-1.372-.281c-.3-.39-.562-.8-.794-1.141l-5.366,3.483c.988,3.168-.411,6.058-4.226,6.761.587,4.391-3.019,6.676-6.241,5.741a5.066,5.066,0,0,1-1.834,3.879,5.52,5.52,0,0,1-4.014.967,12.144,12.144,0,0,1-1.287,2.22,4.662,4.662,0,0,1-5.582,1.179,36.753,36.753,0,0,1-4.234-2.352,14.626,14.626,0,0,1-1.192-.862c-.377.49-.729.941-1.075,1.4-2.149,2.835-5.63,2.544-7.278-.607a1.983,1.983,0,0,0-.2-.247,4.578,4.578,0,0,1-4.092.109,4.511,4.511,0,0,1-2.46-3.292c-4.018.288-5.871-1.459-5.627-5.314a4.476,4.476,0,0,1-4.073-3.157c-.63-1.97.251-3.527,1.475-4.893l-3.959-4.811c-.186.268-.378.56-.585.84a1.006,1.006,0,0,1-1.619.263c-1.688-1.325-3.359-2.672-5.031-4.017-.519-.418-.725-.939-.246-1.5s1.021-.422,1.534-.015C3.18,187.908,4.553,189,6,190.156c.2-.272.385-.5.545-.74q6.286-9.494,12.584-18.979c.425-.636.344-.942-.229-1.38-1.114-.851-2.162-1.789-3.25-2.675a1.024,1.024,0,0,1-.319-1.5c.344-.516.991-.522,1.588-.032q2.172,1.778,4.326,3.577c.855.713.9,1.036.3,1.953-.235.363-.459.732-.8,1.271a24.2,24.2,0,0,0,3.377,1.288c2.006.444,4.05.728,6.088,1.012,1.59.222,3-.539,4.471-.967,2.239-.653,4.452-1.405,6.713-1.968a9.84,9.84,0,0,1,5.668.555,18.913,18.913,0,0,0,9.494.69c-.47-.736-.856-1.386-1.286-2a1.115,1.115,0,0,1,.248-1.716c1.514-1.234,3.012-2.488,4.515-3.736a.97.97,0,0,1,1.522.078.955.955,0,0,1-.233,1.444c-1.16.971-2.315,1.95-3.5,2.89-.4.317-.494.554-.19,1.01q6.536,9.825,13.045,19.667a2.724,2.724,0,0,0,.243.258M33.236,203.963c3.5,1.057,4.37,2.889,3.056,6.71,1.514.88,3.037,1.852,4.645,2.655a4.085,4.085,0,0,0,2.09.254,2.074,2.074,0,0,0,1.9-1.375,2.824,2.824,0,0,0-.379-1.577c-.088-.22-.4-.361-.627-.513-2.011-1.348-4.041-2.667-6.023-4.057a1.716,1.716,0,0,1-.575-1.138c-.023-.231.371-.676.632-.723a1.731,1.731,0,0,1,1.122.286c2.521,1.622,5.014,3.288,7.529,4.92a2.957,2.957,0,0,0,4.049-.623,2.775,2.775,0,0,0-1.012-3.917c-1.462-.98-2.929-1.954-4.392-2.933-1.165-.78-2.336-1.554-3.488-2.353a.906.906,0,0,1-.308-1.359.941.941,0,0,1,1.431-.273c.185.118.367.243.55.365,3.135,2.091,6.275,4.174,9.4,6.278a2.963,2.963,0,0,0,2.8.5,2.611,2.611,0,0,0,1.8-2.265,2.73,2.73,0,0,0-1.323-2.739q-5.262-3.488-10.521-6.978c-.229-.152-.456-.308-.686-.459a.962.962,0,0,1-.365-1.421.944.944,0,0,1,1.444-.244c1.5.971,2.986,1.966,4.476,2.954q3.576,2.37,7.153,4.741a2.649,2.649,0,0,0,3.028.1,2.613,2.613,0,0,0,1.277-2.67,3.015,3.015,0,0,0-1.547-2.212c-5.587-3.767-11.178-7.529-16.732-11.345a4.294,4.294,0,0,0-2.693-.749c-1.316.028-2.636-.007-3.951-.081a1.885,1.885,0,0,0-1.545.569,29.02,29.02,0,0,1-3.2,2.837c-3,2.116-5.917,2.076-8.97.029-1.4-.941-1.468-1.257-.5-2.623,1.581-2.239,3.169-4.473,4.812-6.791a21.585,21.585,0,0,1-7.911-2.535c-.083.128-.143.221-.2.314q-5.1,7.7-10.193,15.414a.684.684,0,0,0-.063.587,21.3,21.3,0,0,0,3.821,4.823c1.223-1.569,2.228-3.312,4.463-3.4a4.437,4.437,0,0,1,4.53,3,4.315,4.315,0,0,1,4.842-.1,4.378,4.378,0,0,1,2.011,4.37c3.506.409,4.879,2.856,4.352,5.75m-8.667-20.419c2.119,1.475,4.122,1.579,6.144.193a20.033,20.033,0,0,0,3.129-2.662,3.9,3.9,0,0,1,3.369-1.337c1.226.1,2.467.038,3.7.041A5.149,5.149,0,0,1,44,180.4q8.867,6.034,17.767,12.02a1.169,1.169,0,0,0,1.018.082c1.489-.872,2.931-1.824,4.4-2.737.572-.356.572-.7.2-1.261q-4.634-6.925-9.2-13.892a.872.872,0,0,0-1.074-.442,19.291,19.291,0,0,1-10.485-.657,10.224,10.224,0,0,0-6.781-.111c-2.927.94-5.881,1.8-8.79,2.793a5,5,0,0,0-2.267,1.4c-1.492,1.89-2.8,3.923-4.213,5.944m-5.544,23.993a4.97,4.97,0,0,0,1.424-.959c2.026-2.5,3.982-5.058,5.941-7.612a2.313,2.313,0,0,0-.333-3.258,2.348,2.348,0,0,0-3.32.327c-.486.56-.917,1.168-1.373,1.755q-2.279,2.932-4.558,5.865a2.321,2.321,0,0,0-.31,2.557c.412.883,1.163,1.28,2.53,1.325m5.233,3.6.123.2a6.6,6.6,0,0,0,1.722-1.1c1.636-2,3.187-4.061,4.74-6.123a2.3,2.3,0,0,0-.381-3.308,2.357,2.357,0,0,0-3.356.5q-2.1,2.7-4.178,5.415a7.36,7.36,0,0,0-.705,1.009,2.305,2.305,0,0,0,2.036,3.4m-6.536-18.37a5.48,5.48,0,0,0-1.574.909c-1.3,1.527-2.528,3.116-3.709,4.735a2.332,2.332,0,0,0,3.728,2.791q1.843-2.271,3.587-4.623a2.2,2.2,0,0,0,.1-2.493,2.708,2.708,0,0,0-2.133-1.319m17.262,15.657a2.233,2.233,0,0,0-1.258-2.225,2.03,2.03,0,0,0-2.388.581q-1.266,1.573-2.462,3.2a2.039,2.039,0,0,0,.352,2.992,2.088,2.088,0,0,0,2.978-.515c.781-.993,1.56-1.99,2.3-3.017a5.022,5.022,0,0,0,.483-1.016" transform="translate(0 -137.304)" fill="#fff"/>
      <path id="Path_75656" data-name="Path 75656" d="M106.253,11.53a46.106,46.106,0,0,0,2.658,10.383,44.292,44.292,0,0,0,6.032,10.852c.1.131.2.266.295.4a.957.957,0,0,1-.116,1.46.912.912,0,0,1-1.423-.268c-.879-1.23-1.786-2.444-2.6-3.717A47.516,47.516,0,0,1,104.259,11.7c-.337-2.312-.335-2.276,2.012-2.647a27.094,27.094,0,0,0,8.707-3.2c3.159-1.723,6.239-3.6,9.305-5.483a1.7,1.7,0,0,1,2.147.017,73.236,73.236,0,0,0,13.285,7.286,18.105,18.105,0,0,0,5.724,1.471c.92.053,1.267.513,1.168,1.335a47.036,47.036,0,0,1-4.7,16.055c-1.091,2.121-2.4,4.135-3.658,6.164-.484.779-1.244.825-1.7.2-.376-.513-.12-.948.157-1.432,1.464-2.547,3.033-5.047,4.3-7.691a40.874,40.874,0,0,0,3.409-11.842c.082-.564-.023-.9-.632-1A30.324,30.324,0,0,1,134.7,7.543c-2.929-1.572-5.771-3.308-8.62-5.024a1.178,1.178,0,0,0-1.473.021,69.916,69.916,0,0,1-13.128,7.049c-1.429.546-2.936.89-4.41,1.318-.423.123-.923.152-.819.623" transform="translate(-86.906 0)" fill="#fff"/>
      <path id="Path_75657" data-name="Path 75657" d="M199.439,96.313a6.8,6.8,0,0,1-.68,1.019q-4.414,4.449-8.856,8.87c-.725.722-1.234.711-1.974-.02q-2.346-2.317-4.666-4.662c-.611-.616-.659-1.244-.171-1.73s1.058-.463,1.721.184c1.18,1.151,2.362,2.3,3.492,3.5.483.513.775.461,1.243-.014,2.566-2.6,5.146-5.194,7.768-7.74a1.7,1.7,0,0,1,1.313-.312c.294.053.509.546.811.905" transform="translate(-152.574 -79.63)" fill="#fff"/>
    </g>
  </g>
</svg>
