<svg id="Group_51759" data-name="Group 51759" xmlns="http://www.w3.org/2000/svg" xmlns:xlink="http://www.w3.org/1999/xlink" width="120" height="120" viewBox="0 0 120 120">
  <defs>
    <clipPath id="clip-path">
      <rect id="Rectangle_20126" data-name="Rectangle 20126" width="67.879" height="67.836" fill="#fff"/>
    </clipPath>
  </defs>
  <path id="Path_171" data-name="Path 171" d="M120,210a60,60,0,1,1-60-60,60,60,0,0,1,60,60" transform="translate(0 -150)" fill="#7f3f97"/>
  <g id="Group_51778" data-name="Group 51778" transform="translate(26.06 26.082)">
    <g id="Group_51777" data-name="Group 51777" clip-path="url(#clip-path)">
      <path id="Path_75658" data-name="Path 75658" d="M127.691,224.732c-.865-.853-1.749-1.722-2.63-2.594s-.878-1.444-.018-2.309q1.524-1.532,3.054-3.058a1.28,1.28,0,0,1,2.077-.021q1.234,1.21,2.435,2.454a.573.573,0,0,0,.8.135,11.185,11.185,0,0,1,1.711-.715.618.618,0,0,0,.487-.719c-.021-1.13-.014-2.261,0-3.391a1.3,1.3,0,0,1,1.474-1.474q2.261-.012,4.522,0a1.259,1.259,0,0,1,1.42,1.438c.007,1.13.019,2.261-.007,3.391a.64.64,0,0,0,.521.759,10.163,10.163,0,0,1,1.714.709.566.566,0,0,0,.8-.137c.8-.829,1.618-1.642,2.443-2.446a1.267,1.267,0,0,1,2.066.019q1.578,1.572,3.149,3.151a1.283,1.283,0,0,1,.023,2.07q-1.207,1.236-2.445,2.444a.568.568,0,0,0-.133.8,7.842,7.842,0,0,1,.658,1.591c.141.515.415.629.9.613,1.041-.034,2.083-.016,3.125-.011,1.164.005,1.6.462,1.6,1.614q-.009,2.128,0,4.256c.005,1.1-.423,1.551-1.506,1.554-1.13,0-2.261.013-3.391-.009a.575.575,0,0,0-.662.475,7.227,7.227,0,0,1-.626,1.531.835.835,0,0,0,.229,1.228c.786.715,1.523,1.485,2.262,2.25a1.283,1.283,0,0,1-.008,2.032q-1.588,1.609-3.2,3.194a1.29,1.29,0,0,1-2.077-.023c-.823-.807-1.618-1.642-2.461-2.426a.857.857,0,0,0-.718-.118c-.587.19-1.135.5-1.722.691a.656.656,0,0,0-.542.753c.03,1.13.015,2.261.008,3.391-.006.976-.441,1.425-1.417,1.434q-2.261.021-4.522,0c-1.036-.009-1.469-.466-1.478-1.53-.009-1.086-.025-2.173.006-3.258a.692.692,0,0,0-.555-.815,10.376,10.376,0,0,1-1.653-.68.572.572,0,0,0-.8.141c-.767.8-1.553,1.581-2.343,2.358a1.335,1.335,0,0,1-2.223,0q-1.529-1.527-3.057-3.054a1.3,1.3,0,0,1,0-2.167c.8-.8,1.588-1.61,2.4-2.391a.559.559,0,0,0,.124-.8,6.963,6.963,0,0,1-.672-1.585c-.138-.564-.436-.655-.94-.64-1.108.032-2.217.02-3.325.006a1.226,1.226,0,0,1-1.358-1.361c-.016-1.529-.014-3.059,0-4.589a1.315,1.315,0,0,1,1.491-1.466c1.13-.011,2.261-.017,3.391.008a.626.626,0,0,0,.709-.5c.253-.727.573-1.431.89-2.2m1.5,20.178c.959-.967,1.9-1.908,2.827-2.853a1.285,1.285,0,0,1,1.629-.261c.617.3,1.246.573,1.888.809,1.064.39,1.227.593,1.228,1.739,0,1.234,0,2.467,0,3.735h5.109c0-.323,0-.605,0-.888,0-1.042,0-2.084,0-3.125a1.319,1.319,0,0,1,1-1.383c.709-.245,1.4-.549,2.083-.86a1.268,1.268,0,0,1,1.728.3c.787.78,1.567,1.567,2.354,2.348.149.148.316.278.36.317l3.628-3.57c-.9-.89-1.827-1.807-2.752-2.729a1.232,1.232,0,0,1-.29-1.669c.295-.643.581-1.293.824-1.956.341-.932.617-1.165,1.594-1.172,1.108-.008,2.217-.015,3.325.011.436.01.585-.131.57-.57-.029-.841-.008-1.684-.008-2.526v-2.014c-1.438,0-2.766-.013-4.093.005a1.256,1.256,0,0,1-1.331-.964,16.418,16.418,0,0,0-.621-1.609c-.68-1.475-.686-1.5.443-2.634l.375-.377,1.955-1.973-3.619-3.629c-.9.918-1.828,1.863-2.751,2.814a1.3,1.3,0,0,1-1.679.27,18.061,18.061,0,0,0-2.083-.86,1.33,1.33,0,0,1-1.016-1.377c0-.842,0-1.685,0-2.527,0-.5,0-1,0-1.463h-5.107c0,1.386-.008,2.714,0,4.041a1.232,1.232,0,0,1-.924,1.291c-.625.22-1.249.455-1.849.735-1.191.556-1.339.552-2.255-.381-.849-.865-1.684-1.743-2.467-2.555l-3.7,3.691c.923.9,1.87,1.827,2.825,2.747a1.28,1.28,0,0,1,.271,1.676,16.642,16.642,0,0,0-.806,1.89c-.365,1.01-.578,1.189-1.629,1.19-1.257,0-2.514,0-3.813,0v5c.071.036.109.072.147.072,1.241.01,2.481.008,3.722.025a1.341,1.341,0,0,1,1.547,1.144c.109.336.236.667.372.994.835,2,.836,2-.7,3.533-.651.649-1.3,1.3-1.935,1.941l3.618,3.6" transform="translate(-105.08 -184.694)" fill="#fff"/>
      <path id="Path_75659" data-name="Path 75659" d="M18.484,284.021h-1.14V281.3H13.21v1.2q0,.732,0,1.463c0,1.471,0,1.465-1.406,1.991a8.109,8.109,0,0,0-1.15.516,1.188,1.188,0,0,1-1.614-.235c-.73-.77-1.469-1.532-2.191-2.285l-2.976,3.027c.685.648,1.444,1.351,2.185,2.072.652.634.676.924.281,1.765-.225.479-.424.973-.6,1.471-.3.828-.57,1.035-1.471,1.04-.995.005-1.99,0-3.043,0V297.4c1.029,0,2.041-.006,3.053,0,.921.007,1.149.192,1.462,1.045a17.1,17.1,0,0,0,.672,1.587,1.162,1.162,0,0,1-.221,1.506Q5,302.651,3.826,303.77l3.092,2.985c.64-.685,1.369-1.447,2.076-2.229a1.231,1.231,0,0,1,1.662-.285,14.644,14.644,0,0,0,1.715.707,1.141,1.141,0,0,1,.842,1.2c-.013,1.08,0,2.161,0,3.277h4.109c0-1.065,0-2.1,0-3.135,0-.854.21-1.1,1.03-1.391a16.566,16.566,0,0,0,1.644-.71,1.142,1.142,0,0,1,1.448.237c.737.736,1.48,1.466,2.222,2.2a.961.961,0,0,0,.153.092l3.865-3.387a1.073,1.073,0,0,1-.159,1.361c-.964.979-1.926,1.961-2.918,2.911a1.059,1.059,0,0,1-1.647-.032q-1.01-.964-1.975-1.974c-.264-.276-.5-.4-.851-.165a3.829,3.829,0,0,1-.665.3c-.978.4-.978.4-.978,1.486,0,.709.016,1.419,0,2.128a1.187,1.187,0,0,1-1.339,1.3q-1.862.012-3.725,0a1.182,1.182,0,0,1-1.35-1.342c-.014-.842-.044-1.688.012-2.526.037-.553-.153-.829-.677-.913a.147.147,0,0,1-.064-.018c-1.1-.837-1.887-.376-2.614.573a9.471,9.471,0,0,1-1.173,1.175,1.058,1.058,0,0,1-1.6.039q-1.513-1.448-2.96-2.964a1.072,1.072,0,0,1,.057-1.605q.987-1.034,2.022-2.021c.266-.254.351-.484.138-.8a1.087,1.087,0,0,1-.2-.419c-.17-1.2-.94-1.4-1.98-1.275a12.944,12.944,0,0,1-1.861.008,1.077,1.077,0,0,1-1.161-1.163q-.022-2.028,0-4.057a1.079,1.079,0,0,1,1.161-1.165c.953-.019,1.907-.011,2.86,0,.308,0,.625,0,.631-.394.011-.719,1.109-1.255.387-2.068-.6-.679-1.281-1.289-1.916-1.939a1.151,1.151,0,0,1-.017-1.853q1.327-1.353,2.681-2.679a1.171,1.171,0,0,1,1.9.032c.629.625,1.268,1.241,1.872,1.889a.565.565,0,0,0,.851.131,2.87,2.87,0,0,1,.544-.246c1.1-.453,1.1-.453,1.1-1.677,0-.687-.019-1.375.01-2.061a1.152,1.152,0,0,1,1.269-1.222q1.929-.017,3.858,0a1.161,1.161,0,0,1,1.273,1.161c.039.9.009,1.809.009,2.784" transform="translate(0 -242.809)" fill="#fff"/>
      <path id="Path_75660" data-name="Path 75660" d="M315.486,281.289h-4.079v2.722h-1.2a9.962,9.962,0,0,1,.044-2.31,3.709,3.709,0,0,1,1.046-1.487c.163-.168.574-.124.872-.128,1.042-.013,2.084-.012,3.126,0a1.169,1.169,0,0,1,1.324,1.3c.021.886.034,1.774,0,2.66-.02.462.133.707.577.8a1.1,1.1,0,0,1,.432.164c.867.657,1.487.321,2.082-.433a14.849,14.849,0,0,1,1.351-1.373,1.126,1.126,0,0,1,1.751-.036q1.433,1.387,2.826,2.816a1.115,1.115,0,0,1-.012,1.707c-.66.687-1.361,1.336-2,2.041a.868.868,0,0,0-.13.722c.182.565.31,1.321.726,1.59.444.287,1.192.109,1.807.123.488.011.976-.007,1.463.005a1.1,1.1,0,0,1,1.194,1.206q.023,2.028,0,4.057a1.056,1.056,0,0,1-1.133,1.122c-.953.02-1.907.024-2.859,0-.4-.01-.635.106-.7.513a.59.59,0,0,1-.1.245c-.756,1.035-.439,1.821.519,2.526A9.775,9.775,0,0,1,325.588,303a1.135,1.135,0,0,1,0,1.8q-1.347,1.379-2.728,2.726a1.129,1.129,0,0,1-1.8-.005c-.637-.617-1.27-1.239-1.877-1.885-.3-.318-.575-.45-.966-.178a2.565,2.565,0,0,1-.48.226c-1.1.461-1.1.46-1.1,1.683,0,.709.014,1.42-.026,2.127a1.091,1.091,0,0,1-1.2,1.143q-1.962.027-3.924,0a1.158,1.158,0,0,1-1.275-1.286c-.018-.909-.019-1.818,0-2.727.009-.38-.062-.639-.484-.714a2.81,2.81,0,0,1-.561-.2c-1.1-.454-1.1-.456-1.962.4-.5.5-.987,1.02-1.511,1.5a1.08,1.08,0,0,1-1.65-.033c-.951-.928-1.9-1.865-2.82-2.819a1.1,1.1,0,0,1,.149-1.788c.541.646,1.068,1.3,1.626,1.934s1.174,1.26,1.765,1.89c1.032-.844,1.989-1.576,2.882-2.38a.842.842,0,0,1,1.1-.2,18.471,18.471,0,0,0,1.774.74,1.169,1.169,0,0,1,.853,1.2c-.009,1.08,0,2.16,0,3.277h4.1c0-1.044,0-2.058,0-3.071,0-.947.149-1.132,1.028-1.459.559-.208,1.108-.447,1.644-.707a1.132,1.132,0,0,1,1.446.242q1.128,1.172,2.252,2.344l2.947-3.027c-.664-.637-1.417-1.343-2.151-2.069a1.243,1.243,0,0,1-.3-1.771c.226-.479.428-.971.61-1.469.3-.823.583-1.043,1.468-1.049,1-.007,1.991,0,3.045,0v-4.061h-2.916c-1.037,0-1.253-.164-1.61-1.118-.193-.517-.412-1.027-.653-1.524a1.2,1.2,0,0,1,.256-1.561c.771-.728,1.527-1.473,2.269-2.192l-2.989-2.962c-.629.66-1.3,1.388-2,2.089-.777.78-.977.786-1.979.307a12.854,12.854,0,0,0-1.479-.588,1.15,1.15,0,0,1-.891-1.229c.019-1.061.005-2.124.005-3.271" transform="translate(-260.815 -242.82)" fill="#fff"/>
      <path id="Path_75661" data-name="Path 75661" d="M191.063,11.306l-9.695-9.694-9.705,9.694c1.162,0,2.325,0,3.488,0,.815,0,.969.15.969.973q0,9.345,0,18.69c0,.133.047.308-.018.39-.165.2-.42.538-.571.505-.225-.049-.443-.341-.564-.581a1.6,1.6,0,0,1-.021-.656q0-8.68,0-17.359v-.787h-3.836a3.5,3.5,0,0,1-.8-.013c-.276-.066-.666-.173-.751-.371a.947.947,0,0,1,.258-.79c1.231-1.276,2.5-2.519,3.751-3.773L180.625.482c.638-.638.787-.64,1.4-.024l10.582,10.577a1.449,1.449,0,0,1,.32.334c.106.222.282.533.2.691a.9.9,0,0,1-.663.4c-1.285.039-2.571.019-3.857.019h-.891v.883q0,8.646,0,17.293a1.474,1.474,0,0,1-.018.591,3.766,3.766,0,0,1-.512.656,2.838,2.838,0,0,1-.6-.654,2.03,2.03,0,0,1-.028-.789q0-8.946,0-17.891c0-1.228.044-1.264,1.273-1.265h3.223" transform="translate(-146.986 0)" fill="#fff"/>
      <path id="Path_75662" data-name="Path 75662" d="M321.287,111.135c.962,0,1.886.014,2.809-.005.562-.012.811.228.809.788-.006,2.879,0,5.757,0,8.76-.628-.565-1.235-.922-1.193-1.88.083-1.9.025-3.811.026-5.717,0-.238,0-.475,0-.787h-3.045a2.749,2.749,0,0,1-.728-.015c-.271-.077-.65-.2-.73-.4a.955.955,0,0,1,.276-.775c1.138-1.18,2.31-2.327,3.469-3.485q2.774-2.772,5.548-5.543c.556-.554.781-.555,1.321-.016q4.514,4.511,9.013,9.037c.187.188.387.613.3.764a1.072,1.072,0,0,1-.787.415c-1.214.044-2.43.019-3.734.019v.9q0,7.147,0,14.295a1.422,1.422,0,0,1-.028.59c-.1.191-.312.451-.473.449a.928.928,0,0,1-.605-.378c-.1-.131-.055-.382-.055-.58q0-7.679,0-15.359c0-.979.1-1.076,1.049-1.078.838,0,1.676,0,2.407,0l-7.823-7.811-7.817,7.81" transform="translate(-276.75 -88.136)" fill="#fff"/>
      <path id="Path_75663" data-name="Path 75663" d="M55.056,112.481v4.075c0,.953-.072,1.913.02,2.857a2.14,2.14,0,0,1-1.149,2.175c-.013-.239-.035-.446-.035-.654q0-4.288,0-8.577c0-.954.077-1.034,1.012-1.035.839,0,1.678,0,2.41,0l-7.837-7.795-7.736,7.794h2.028c1.515,0,1.516,0,1.516,1.523q0,7.413,0,14.827c0,.2.058.437-.03.588-.115.2-.347.458-.528.457s-.421-.252-.539-.451c-.089-.149-.034-.388-.034-.588q0-7.214,0-14.428v-.769h-2.41a9.929,9.929,0,0,1-1.394-.018,1.082,1.082,0,0,1-.734-.41c-.084-.151.092-.547.264-.722,2.1-2.13,4.22-4.239,6.335-6.354.925-.924,1.859-1.838,2.77-2.775a.739.739,0,0,1,1.235.012c3.016,3.033,6.049,6.048,9.058,9.088a.632.632,0,0,1-.468,1.162c-1.215.039-2.431.017-3.748.017" transform="translate(-34.322 -88.323)" fill="#fff"/>
      <path id="Path_75664" data-name="Path 75664" d="M82,363.576c.016,1.525-.017,1.562-1.55,1.85a5.429,5.429,0,0,1-2.432-10.574,6.88,6.88,0,0,1,.7-.116c.206,1.021.2,1.026-.659,1.326a4.267,4.267,0,1,0,3.25,7.874c.215-.1.424-.22.693-.36" transform="translate(-64.175 -307.548)" fill="#fff"/>
      <path id="Path_75665" data-name="Path 75665" d="M380.647,364.622a4.227,4.227,0,0,0,3.708-.041,4.1,4.1,0,0,0,2.4-3.768A3.911,3.911,0,0,0,384.476,357c-.693-.338-.8-.754-.632-1.51a10.851,10.851,0,0,1,1.132.42,5.43,5.43,0,0,1-3.481,10.172c-1.1-.214-1.1-.214-.847-1.457" transform="translate(-329.894 -308.199)" fill="#fff"/>
      <path id="Path_75666" data-name="Path 75666" d="M222.218,307.7a6.371,6.371,0,1,1-12.741-.109,6.439,6.439,0,0,1,6.407-6.311,6.368,6.368,0,0,1,6.334,6.42m-1.162-.07a5.194,5.194,0,0,0-5.271-5.183,5.306,5.306,0,0,0-5.148,5.281,5.21,5.21,0,0,0,10.419-.1" transform="translate(-181.612 -261.205)" fill="#fff"/>
    </g>
  </g>
</svg>
