<svg id="Group_51758" data-name="Group 51758" xmlns="http://www.w3.org/2000/svg" xmlns:xlink="http://www.w3.org/1999/xlink" width="120" height="120" viewBox="0 0 120 120">
  <defs>
    <clipPath id="clip-path">
      <rect id="Rectangle_20124" data-name="Rectangle 20124" width="69" height="61" transform="translate(0.207 -0.421)" fill="#fff"/>
    </clipPath>
  </defs>
  <path id="Path_171" data-name="Path 171" d="M120,210a60,60,0,1,1-60-60,60,60,0,0,1,60,60" transform="translate(0 -150)" fill="#7f3f97"/>
  <g id="Group_51774" data-name="Group 51774" transform="translate(25.422 29.967)">
    <g id="Group_51773" data-name="Group 51773" transform="translate(0.371 0.453)" clip-path="url(#clip-path)">
      <path id="Path_75648" data-name="Path 75648" d="M31.646,0a53.872,53.872,0,0,1,6.077,1.186c11.468,3.589,18.27,11.445,20.989,23.078-2.3.351-2.213.323-2.834-1.585-.638-1.962-1.43-3.878-2.237-5.779-.177-.417-.692-.969-1.066-.98-2.731-.084-5.466-.045-8.2-.045l3.4,8.273c-2.273.586-2.315.478-3.046-1.315-.851-2.088-1.859-4.115-2.881-6.127a1.663,1.663,0,0,0-1.18-.8c-3.234-.065-6.47-.036-9.83-.036v3.407l-2.367.971V15.865H21.408c-3.938,0-3.968-.015-5.681,3.572a21.9,21.9,0,0,0-2.457,8.98c3.351,0,6.586.118,9.808-.047,1.761-.09,2.7.453,3,2.341H13.143A23.916,23.916,0,0,0,17.1,42.762a1.3,1.3,0,0,0,.956.451c3.38.033,6.76.02,10.281.02v-10.4l2.448.936v9.3c1.5.593,4.24-.969,3.983,2.483H30.853v9.478l5.352-4.764.939,2.23-4.133,3.784.1.238,4.966-1.052c-.129,2.871.423,2.326-2.359,2.888A29.421,29.421,0,0,1,.691,35.759C.383,34.405.227,33.017,0,31.646V27.581c.118-.852.2-1.711.361-2.553Q4.124,5.818,23.039.751C24.425.381,25.872.245,27.291,0ZM14.628,15.865H10.886c-5.467,0-5.539-.022-7.159,5.267-.7,2.3-1.045,4.709-1.6,7.281,2.967,0,5.514.029,8.058-.042.276-.008.683-.559.774-.922.267-1.067.271-2.212.62-3.245.93-2.754,1.986-5.465,3.046-8.339M10.809,30.917H2.393A26.385,26.385,0,0,0,5.475,42.132c.242.444.753,1.035,1.158,1.05,2.578.1,5.161.048,7.977.048a27.462,27.462,0,0,1-3.8-12.313M51.653,13.57C46.674,7.223,40.621,3.593,32.906,2.548c.088.274.092.38.146.44q4.58,5.022,9.179,10.027a1.546,1.546,0,0,0,.942.532c2.69.042,5.38.024,8.479.024M7.812,13.565c2.823,0,5.555.026,8.284-.034.324-.007.674-.451.95-.75q4.369-4.722,8.714-9.466c.17-.185.318-.389.537-.659-7.009.281-15.687,5.778-18.486,10.909m-.29,32A27.76,27.76,0,0,0,26.117,56.529c-.069-.239-.065-.363-.124-.413a56.32,56.32,0,0,1-9.538-10.05,1.342,1.342,0,0,0-.941-.478c-2.546-.039-5.093-.021-7.991-.021m20.457,9.456.361-.311V45.665H19.271l-.252.351,8.961,9.007m.4-50.9a52.831,52.831,0,0,0-8.862,9.333h8.862ZM30.81,13.47h8.841a61.448,61.448,0,0,0-8.841-9.32Z" transform="translate(-0.343 -0.383)" fill="#fff"/>
      <path id="Path_75649" data-name="Path 75649" d="M145.9,94c-1.062,4.086-2.137,8.168-3.179,12.258-.557,2.186-.579,2.235-2.8,2.235q-9.073,0-18.145,0h-1.594c.565,2.913,1.248,3.524,4.059,3.533,5.177.018,10.355,0,15.532-.007.434,0,.96-.118,1.281.081.435.269.981.79.983,1.206s-.584.856-.959,1.24c-.1.1-.371.057-.564.056-5.661,0-11.323.03-16.983-.028a5.291,5.291,0,0,1-5.528-4.2q-2.323-8.57-4.617-17.149c-.137-.511-.238-1.032-.388-1.54a2.539,2.539,0,0,0-2.758-2.056,4.5,4.5,0,0,1-1.865-.058c-.551-.242-.929-.877-1.383-1.34.456-.4.878-1.076,1.376-1.138a11.749,11.749,0,0,1,3.16.152,4.271,4.271,0,0,1,3.75,3.533c.276,1.286.894,1.508,2.07,1.5q13.209-.068,26.419.013a6.6,6.6,0,0,1,2.131.831Zm-29.445.887c.948,3.579,1.83,6.975,2.776,10.352a1.182,1.182,0,0,0,.9.63q9.652.055,19.3,0a1.171,1.171,0,0,0,.907-.609c.9-3.422,1.73-6.86,2.6-10.375Z" transform="translate(-76.274 -62.155)" fill="#fff"/>
      <path id="Path_75650" data-name="Path 75650" d="M154.146,193.6c-.773-.847-1.895-1.573-2.241-2.569-.573-1.647.522-3.126,2.213-3.617a3.075,3.075,0,0,1,3.649,1.815,3.136,3.136,0,0,1-1.43,3.968c-.243.14-.493.269-.739.4Z" transform="translate(-108.037 -133.309)" fill="#fff"/>
      <path id="Path_75651" data-name="Path 75651" d="M202.135,193.618c-1.132-.575-2.191-1.2-2.367-2.647a3.1,3.1,0,0,1,5.911-1.746,3.053,3.053,0,0,1-1.372,3.965l-.72.429Z" transform="translate(-142.09 -133.322)" fill="#fff"/>
      <path id="Path_75652" data-name="Path 75652" d="M163.687,124.42a10.768,10.768,0,0,1-.044,2.16c-.071.339-.6.583-.922.87-.254-.3-.713-.59-.728-.9-.075-1.539-.074-3.086,0-4.625.014-.282.562-.8.761-.753a1.315,1.315,0,0,1,.888.8,15.609,15.609,0,0,1,.041,2.452" transform="translate(-115.266 -86.373)" fill="#fff"/>
      <path id="Path_75653" data-name="Path 75653" d="M200.688,124.42a13.056,13.056,0,0,1-.037,2.163c-.055.323-.508.578-.781.863-.3-.3-.852-.585-.87-.9a42.338,42.338,0,0,1,0-4.623c.014-.282.564-.8.761-.752a1.319,1.319,0,0,1,.889.8,15.561,15.561,0,0,1,.042,2.452" transform="translate(-141.522 -86.372)" fill="#fff"/>
      <path id="Path_75654" data-name="Path 75654" d="M182.215,124.378a13.81,13.81,0,0,1-.034,2.161c-.054.334-.471.611-.723.913-.3-.3-.842-.592-.861-.911a41.938,41.938,0,0,1,0-4.617,1.094,1.094,0,0,1,.785-.747,1.119,1.119,0,0,1,.792.752,17.927,17.927,0,0,1,.037,2.449h0" transform="translate(-128.463 -86.379)" fill="#fff"/>
    </g>
  </g>
</svg>
