<svg id="SHOONYA_logo" data-name="SHOONYA logo" xmlns="http://www.w3.org/2000/svg" xmlns:xlink="http://www.w3.org/1999/xlink" width="286.824" height="78.571" viewBox="0 0 286.824 78.571">
  <defs>
    <clipPath id="clip-path">
      <rect id="Rectangle_13568" data-name="Rectangle 13568" width="17.217" height="12.841"/>
    </clipPath>
    <clipPath id="clip-path-2">
      <rect id="Rectangle_13569" data-name="Rectangle 13569" width="1.937" height="5.739"/>
    </clipPath>
    <clipPath id="clip-path-3">
      <rect id="Rectangle_13570" data-name="Rectangle 13570" width="5.524" height="4.806"/>
    </clipPath>
    <clipPath id="clip-path-4">
      <rect id="Rectangle_13571" data-name="Rectangle 13571" width="4.806" height="3.3"/>
    </clipPath>
    <clipPath id="clip-path-5">
      <rect id="Rectangle_13572" data-name="Rectangle 13572" width="2.869" height="9.756"/>
    </clipPath>
    <clipPath id="clip-path-6">
      <rect id="Rectangle_13573" data-name="Rectangle 13573" width="1.937" height="4.017"/>
    </clipPath>
    <clipPath id="clip-path-7">
      <rect id="Rectangle_13574" data-name="Rectangle 13574" width="4.233" height="2.869"/>
    </clipPath>
    <clipPath id="clip-path-8">
      <rect id="Rectangle_13575" data-name="Rectangle 13575" width="3.228" height="2.296"/>
    </clipPath>
    <clipPath id="clip-path-9">
      <rect id="Rectangle_13576" data-name="Rectangle 13576" width="2.869" height="7.461"/>
    </clipPath>
    <clipPath id="clip-path-10">
      <rect id="Rectangle_13577" data-name="Rectangle 13577" width="1.22" height="1.22"/>
    </clipPath>
    <clipPath id="clip-path-11">
      <path id="Path_71502" data-name="Path 71502" d="M182.246,288.4a.646.646,0,1,0,.646.646.643.643,0,0,0-.646-.646" transform="translate(-181.6 -288.4)"/>
    </clipPath>
    <clipPath id="clip-path-13">
      <path id="Path_71504" data-name="Path 71504" d="M185.546,286.6a.646.646,0,1,0,.646.646.757.757,0,0,0-.646-.646" transform="translate(-184.9 -286.6)"/>
    </clipPath>
    <clipPath id="clip-path-14">
      <rect id="Rectangle_13581" data-name="Rectangle 13581" width="8.608" height="8.608"/>
    </clipPath>
    <clipPath id="clip-path-15">
      <rect id="Rectangle_13580" data-name="Rectangle 13580" width="8.608" height="7.891" transform="matrix(0.974, -0.227, 0.227, 0.974, 0, 1.951)"/>
    </clipPath>
    <clipPath id="clip-path-17">
      <rect id="Rectangle_13584" data-name="Rectangle 13584" width="10.545" height="5.739"/>
    </clipPath>
    <clipPath id="clip-path-18">
      <rect id="Rectangle_13583" data-name="Rectangle 13583" width="8.608" height="7.891" transform="translate(0 1.954) rotate(-13.12)"/>
    </clipPath>
    <clipPath id="clip-path-20">
      <rect id="Rectangle_13585" data-name="Rectangle 13585" width="4.735" height="4.806"/>
    </clipPath>
    <clipPath id="clip-path-21">
      <rect id="Rectangle_13586" data-name="Rectangle 13586" width="6.672" height="5.452"/>
    </clipPath>
    <clipPath id="clip-path-22">
      <rect id="Rectangle_13587" data-name="Rectangle 13587" width="4.591" height="4.806"/>
    </clipPath>
  </defs>
  <g id="Group_276" data-name="Group 276" transform="translate(139.96 5.553)">
    <g id="Group_275" data-name="Group 275" clip-path="url(#clip-path)">
      <path id="Path_71466" data-name="Path 71466" d="M266.336,221.626l-.215-2.726H264.9l-.215,3.8-2.009,1.363v-3.8h-.072l-5.667,3.8v-3.8h-.072l-5.667,3.8v2.654h.359a26.587,26.587,0,0,1,7.1,1.435c1.148.359,2.367.789,3.515,1.22a35.569,35.569,0,0,1,3.372,1.578l.072.072H268.2l.143-10.761Z" transform="translate(-251.2 -218.254)" fill="#00ad8d"/>
    </g>
  </g>
  <path id="Path_71467" data-name="Path 71467" d="M240.8,239.1a13.1,13.1,0,0,0-13.845,1.65c-9.9,7.317-15.352,19.226-25.61,26.184a17.313,17.313,0,0,1-13.63,3.013c-.072.359-.215.717-.287,1.076v.072c0,.072.072.143,0,.215,0,.072,0,.072-.072.143,0,.215-.072.43-.072.646a2.094,2.094,0,0,0-.143.646c0,.072-.072.144-.143.215a23.758,23.758,0,0,0,13.989-2.439c9.111-5.093,14.634-14.276,21.521-21.88a29.226,29.226,0,0,1,6.672-5.954c7.461-5.38,18.293,1.507,15.926,10.689a10.036,10.036,0,0,1-14.276,6.959c-1.363-.5-3.228-2.869-4.519-1.148a1.3,1.3,0,0,0,.287,1.865c3.3,2.439,6.887,3.8,11.048,2.941C249.77,262.132,251.994,243.7,240.8,239.1Z" transform="translate(-93.096 -218.056)" fill="#00ad8d"/>
  <path id="Path_71468" data-name="Path 71468" d="M201.269,239.323c-1.435-4.448-2.8-8.9-4.232-13.271-.789-2.152-2.8-.861-3.515.646-.359.646-.789.717-1.506.43a19.882,19.882,0,0,0-12.554-1.291c-20.3,4.878-21.019,25.825-11.263,36.8a.373.373,0,0,1,.143-.287h0c.072-.072.215-.143.287-.215h0a2.248,2.248,0,0,1,.789-.574l.646-.43.215-.215c0-.072.072-.072.143-.072a18.242,18.242,0,0,1-5.38-17.289,18.933,18.933,0,0,1,26.615-13.415,2.71,2.71,0,0,0,3.3-.5h.215c.933,2.941,1.865,5.954,2.869,8.967-3.372-.072-6.528.143-9.756-.072,6.026-6.6-19.513-7.461-17.432,10.976a12.616,12.616,0,0,0,5.524,8.752,3.12,3.12,0,0,1,.43-.5,2.73,2.73,0,0,1,.646-.933,4,4,0,0,1,.359-.574c.072-.072.143-.215.215-.287a9.971,9.971,0,0,1-4.161-5.6c-2.224-7.03,4.3-14.634,11.621-13.056-1.291,1.722-3.085,3.443,0,4.161,4.735.072,9.4.072,14.132,0C201.125,241.475,201.7,240.614,201.269,239.323Z" transform="translate(-86.059 -214.4)" fill="#00ad8d"/>
  <path id="Path_71469" data-name="Path 71469" d="M249.124,280.555a8.41,8.41,0,0,1-.646-1.722,22.588,22.588,0,0,1-19.8-8.752,1.432,1.432,0,1,0-2.009,2.009,79.222,79.222,0,0,0,6.528,5.6,20.318,20.318,0,0,0,16.715,3.946A5.935,5.935,0,0,1,249.124,280.555Z" transform="translate(-104.143 -227.01)" fill="#00ad8d"/>
  <path id="Path_71470" data-name="Path 71470" d="M255.585,250.2a19.929,19.929,0,0,1-3.946,9.541.07.07,0,0,0,.072.072c.072,0,.143,0,.143.072a9.8,9.8,0,0,1,1.65,1.793,20.515,20.515,0,0,0,4.735-18.508c-4.591-21.736-30.7-21.88-41.751-6.887-6.169,6.456-10.9,14.347-18.15,19.656a9.624,9.624,0,0,1-5.739,2.009v.215a2.363,2.363,0,0,1,0,1,13.821,13.821,0,0,1,.072,1.722,10.89,10.89,0,0,0,4.232-.861,19.771,19.771,0,0,0,7.174-5.165c7.03-7.317,12.554-16.069,20.8-22.239C237.866,222.148,258.311,233.124,255.585,250.2Z" transform="translate(-94.679 -214.658)" fill="#00ad8d"/>
  <g id="Group_280" data-name="Group 280" transform="translate(85.511 42.785)">
    <g id="Group_279" data-name="Group 279">
      <g id="Group_278" data-name="Group 278">
        <g id="Group_277" data-name="Group 277" clip-path="url(#clip-path-2)">
          <path id="Path_71471" data-name="Path 71471" d="M176.133,275.5a.264.264,0,0,1,.215.072v-5.524h0c0-.072-.072-.072-.143-.143a.25.25,0,0,0-.143.072l-.861,4.591s.287.5.5.933c.143.072.287,0,.43,0" transform="translate(-175.272 -269.9)" fill="#00ad8d"/>
        </g>
      </g>
    </g>
  </g>
  <g id="Group_284" data-name="Group 284" transform="translate(80.92 48.596)">
    <g id="Group_283" data-name="Group 283">
      <g id="Group_282" data-name="Group 282">
        <g id="Group_281" data-name="Group 281" clip-path="url(#clip-path-3)">
          <path id="Path_71472" data-name="Path 71472" d="M173.785,279.387a.373.373,0,0,1-.143-.287l-4.663,2.8h0c-.072,0-.072.072,0,.143,0,.072.072.072.143.072l4.232-1.722s.359-.5.574-.861l-.143-.143" transform="translate(-168.907 -278.311)" fill="#00ad8d"/>
        </g>
      </g>
    </g>
  </g>
  <g id="Group_288" data-name="Group 288" transform="translate(86.874 49.17)">
    <g id="Group_287" data-name="Group 287">
      <g id="Group_286" data-name="Group 286">
        <g id="Group_285" data-name="Group 285" clip-path="url(#clip-path-4)">
          <path id="Path_71473" data-name="Path 71473" d="M181.935,281.885l-3.587-3.013a6.66,6.66,0,0,1-.933-.072.651.651,0,0,1-.215.5l4.663,2.726h0c.072,0,.143,0,.072-.143.072.072.072,0,0,0" transform="translate(-177.2 -278.8)" fill="#00ad8d"/>
        </g>
      </g>
    </g>
  </g>
  <g id="Group_292" data-name="Group 292" transform="translate(84.507 49.528)">
    <g id="Group_291" data-name="Group 291">
      <g id="Group_290" data-name="Group 290">
        <g id="Group_289" data-name="Group 289" clip-path="url(#clip-path-5)">
          <path id="Path_71474" data-name="Path 71474" d="M176.491,279.7a1.02,1.02,0,0,1-.43.143.263.263,0,0,1-.215-.072l-.143.287-.5,8.967a3.1,3.1,0,0,0,1.865,0l-.574-9.326" transform="translate(-174.267 -279.413)" fill="#00ad8d"/>
        </g>
      </g>
    </g>
  </g>
  <g id="Group_295" data-name="Group 295" transform="translate(0 9.008)">
    <g id="Group_294" data-name="Group 294" transform="translate(0 0)">
      <g id="Group_293" data-name="Group 293" transform="translate(0 0)">
        <path id="Path_71475" data-name="Path 71475" d="M44.067,29.752a4.155,4.155,0,0,1-.861,1,2.052,2.052,0,0,1-1.22.359,2.732,2.732,0,0,1-1.363-.43c-.5-.287-1.076-.574-1.65-.933a14.932,14.932,0,0,0-2.152-.933,8.052,8.052,0,0,0-2.726-.43,5.64,5.64,0,0,0-3.946,1.148,3.955,3.955,0,0,0-1.291,3.085,3.125,3.125,0,0,0,.789,2.08,6.651,6.651,0,0,0,2.08,1.435c.861.359,1.793.717,2.941,1.076,1.076.287,2.224.717,3.372,1.076a27.983,27.983,0,0,1,3.372,1.435,12.133,12.133,0,0,1,2.941,2.08,10.6,10.6,0,0,1,2.08,3.085,11.356,11.356,0,0,1,.789,4.376,14.552,14.552,0,0,1-1,5.309,11.641,11.641,0,0,1-2.869,4.3,13.51,13.51,0,0,1-4.591,2.869,16.726,16.726,0,0,1-6.241,1.076,17.808,17.808,0,0,1-3.874-.43,33.056,33.056,0,0,1-3.8-1.076A19.3,19.3,0,0,1,21.4,59.595a12.33,12.33,0,0,1-2.8-2.224l2.8-4.448a3.058,3.058,0,0,1,.861-.789,2.418,2.418,0,0,1,1.22-.359,2.757,2.757,0,0,1,1.722.574c.574.359,1.22.717,1.937,1.148a15.469,15.469,0,0,0,2.439,1.148,9.126,9.126,0,0,0,3.3.5A6.094,6.094,0,0,0,36.893,54a4.389,4.389,0,0,0,1.435-3.587,3.422,3.422,0,0,0-.789-2.3,6.771,6.771,0,0,0-2.08-1.506,21.92,21.92,0,0,0-2.869-1.076c-1.076-.287-2.224-.646-3.3-1a18.819,18.819,0,0,1-3.3-1.363,10.009,10.009,0,0,1-4.95-5.309,13.2,13.2,0,0,1-.789-4.806,10.766,10.766,0,0,1,.933-4.448,11.194,11.194,0,0,1,2.726-3.874A12.931,12.931,0,0,1,28.285,22a15.482,15.482,0,0,1,5.954-1,20.429,20.429,0,0,1,3.659.287,23.151,23.151,0,0,1,3.372.861,19.231,19.231,0,0,1,3.013,1.363A15.893,15.893,0,0,1,46.793,25.3Z" transform="translate(-18.6 -21)" fill="#00ad8d"/>
      </g>
    </g>
  </g>
  <g id="Group_298" data-name="Group 298" transform="translate(33.911 9.438)">
    <g id="Group_297" data-name="Group 297" transform="translate(0 0)">
      <g id="Group_296" data-name="Group 296" transform="translate(0 0)">
        <path id="Path_71476" data-name="Path 71476" d="M69.053,21.6V62.418H59.512V45.2H42.941V62.49H33.4V21.6h9.541V38.673H59.512V21.6Z" transform="translate(-33.4 -21.6)" fill="#00ad8d"/>
      </g>
    </g>
  </g>
  <g id="Group_301" data-name="Group 301" transform="translate(86.359 65.873)">
    <g id="Group_300" data-name="Group 300" transform="translate(0 0)">
      <g id="Group_299" data-name="Group 299">
        <path id="Path_71477" data-name="Path 71477" d="M56.991,73.4V83.587h-.5c-.072,0-.072-.072-.143-.143l-6.6-8.824v8.967H49.1V73.4h.5c.072,0,.072.072.143.072l6.6,8.824V73.4Z" transform="translate(-49.1 -73.4)" fill="#00ad8d"/>
      </g>
    </g>
  </g>
  <g id="Group_304" data-name="Group 304" transform="translate(96.568 68.527)">
    <g id="Group_303" data-name="Group 303" transform="translate(0 0)">
      <g id="Group_302" data-name="Group 302" transform="translate(0 0)">
        <path id="Path_71478" data-name="Path 71478" d="M57.38,80.256a4.234,4.234,0,0,0-.143-1,1.71,1.71,0,0,0-.43-.789,2.576,2.576,0,0,0-.717-.5,1.82,1.82,0,0,0-.861-.143,4.234,4.234,0,0,0-1,.143,2.156,2.156,0,0,0-1.291,1.291,4.112,4.112,0,0,0-.287,1Zm-4.806.5h0a8.243,8.243,0,0,0,.143,1.506,2.754,2.754,0,0,0,1.435,1.65,2.878,2.878,0,0,0,1.076.215,3.634,3.634,0,0,0,.933-.143,1.352,1.352,0,0,0,.646-.287c.143-.072.287-.215.43-.287a.888.888,0,0,0,.215-.143c.072,0,.072,0,.143.072l.215.215-.43.43a2.548,2.548,0,0,1-.646.287c-.215.072-.5.143-.717.215a2.943,2.943,0,0,1-.789.072,2.911,2.911,0,0,1-1.363-.287,2.573,2.573,0,0,1-1-.717,3.306,3.306,0,0,1-.646-1.22A5.751,5.751,0,0,1,52,80.687a4.625,4.625,0,0,1,.215-1.435,3.638,3.638,0,0,1,.646-1.148,3.234,3.234,0,0,1,1-.717,4.2,4.2,0,0,1,1.363-.287,2.4,2.4,0,0,1,1.076.215,1.958,1.958,0,0,1,.861.646,3.462,3.462,0,0,1,.646,1,3.883,3.883,0,0,1,.215,1.363.264.264,0,0,1-.072.215c0,.072-.072.072-.143.072H52.574S52.574,80.759,52.574,80.759Z" transform="translate(-52 -77.1)" fill="#00ad8d"/>
      </g>
    </g>
  </g>
  <g id="Group_307" data-name="Group 307" transform="translate(103.545 66.303)">
    <g id="Group_306" data-name="Group 306" transform="translate(0 0)">
      <g id="Group_305" data-name="Group 305" transform="translate(0)">
        <path id="Path_71479" data-name="Path 71479" d="M56.7,83.828a1.515,1.515,0,0,1-1.148-.43,1.577,1.577,0,0,1-.43-1.22V77.3h-1c-.072,0-.072,0-.143-.072a.25.25,0,0,1-.072-.143V76.8l1.22-.072.143-2.583c0-.072,0-.072.072-.072,0-.072.072-.072.143-.072h.359v2.726h2.224v.5H55.837v4.878a1.064,1.064,0,0,0,.072.5,1.568,1.568,0,0,0,.215.359c.072.072.215.143.287.215a.647.647,0,0,0,.359.072.91.91,0,0,0,.43-.072c.143-.072.215-.072.359-.143.072-.072.143-.143.215-.143.072-.072.072-.072.143-.072s.072,0,.143.072l.143.287a1.831,1.831,0,0,1-.717.5A2.579,2.579,0,0,1,56.7,83.828Z" transform="translate(-53.9 -74)" fill="#00ad8d"/>
      </g>
    </g>
  </g>
  <g id="Group_310" data-name="Group 310" transform="translate(112.522 65.729)">
    <g id="Group_309" data-name="Group 309" transform="translate(0 0)">
      <g id="Group_308" data-name="Group 308" transform="translate(0 0)">
        <path id="Path_71480" data-name="Path 71480" d="M64.732,73.559c0,.072-.072.215-.072.287L58.2,82.813h6.456v.646H57.2v-.43c0-.072.072-.072.072-.143l6.456-9.039H57.343V73.2h7.317l.072.359Z" transform="translate(-57.2 -73.2)" fill="#00ad8d"/>
      </g>
    </g>
  </g>
  <g id="Group_313" data-name="Group 313" transform="translate(121.465 68.527)">
    <g id="Group_312" data-name="Group 312" transform="translate(0 0)">
      <g id="Group_311" data-name="Group 311" transform="translate(0)">
        <path id="Path_71481" data-name="Path 71481" d="M66.009,80.256a4.234,4.234,0,0,0-.143-1,1.71,1.71,0,0,0-.43-.789,2.577,2.577,0,0,0-.717-.5,1.82,1.82,0,0,0-.861-.143,4.234,4.234,0,0,0-1,.143,2.156,2.156,0,0,0-1.291,1.291,4.112,4.112,0,0,0-.287,1Zm-4.735.5h0a8.244,8.244,0,0,0,.143,1.506,2.754,2.754,0,0,0,1.435,1.65,2.878,2.878,0,0,0,1.076.215,3.634,3.634,0,0,0,.933-.143,1.352,1.352,0,0,0,.646-.287c.143-.072.287-.215.43-.287a.888.888,0,0,0,.215-.143c.072,0,.072,0,.143.072l.215.215-.43.43a2.548,2.548,0,0,1-.646.287c-.215.072-.5.143-.717.215a2.943,2.943,0,0,1-.789.072,2.911,2.911,0,0,1-1.363-.287,2.573,2.573,0,0,1-1-.717,3.306,3.306,0,0,1-.646-1.22,5.751,5.751,0,0,1-.215-1.65,4.625,4.625,0,0,1,.215-1.435,3.638,3.638,0,0,1,.646-1.148,3.233,3.233,0,0,1,1-.717,4.2,4.2,0,0,1,1.363-.287A2.4,2.4,0,0,1,65,77.315a1.958,1.958,0,0,1,.861.646,3.462,3.462,0,0,1,.646,1,3.883,3.883,0,0,1,.215,1.363.264.264,0,0,1-.072.215c0,.072-.072.072-.143.072H61.274v.143Z" transform="translate(-60.7 -77.1)" fill="#00ad8d"/>
      </g>
    </g>
  </g>
  <g id="Group_316" data-name="Group 316" transform="translate(129.232 68.742)">
    <g id="Group_315" data-name="Group 315" transform="translate(0 0)">
      <g id="Group_314" data-name="Group 314" transform="translate(0 0)">
        <path id="Path_71482" data-name="Path 71482" d="M64.417,79.265a8.414,8.414,0,0,1,.359-.789,1.934,1.934,0,0,1,.5-.574,2.908,2.908,0,0,1,.646-.359,2.549,2.549,0,0,1,.717-.143.91.91,0,0,1,.43.072.548.548,0,0,1,.359.143l-.072.43a.154.154,0,0,1-.143.143.542.542,0,0,1-.287-.072.91.91,0,0,0-.43-.072,2.122,2.122,0,0,0-.717.143,1.562,1.562,0,0,0-.574.359,2.5,2.5,0,0,0-.43.646,5.206,5.206,0,0,0-.359.861v4.591H63.7V77.472h.359c.072,0,.143,0,.143.072.072,0,.072.072.072.143Z" transform="translate(-63.7 -77.4)" fill="#00ad8d"/>
      </g>
    </g>
  </g>
  <g id="Group_319" data-name="Group 319" transform="translate(133.97 68.742)">
    <g id="Group_318" data-name="Group 318" transform="translate(0 0)">
      <g id="Group_317" data-name="Group 317" transform="translate(0 0)">
        <path id="Path_71483" data-name="Path 71483" d="M68.228,77.4a2.731,2.731,0,0,1,1.363.287,2.573,2.573,0,0,1,1,.717,2.992,2.992,0,0,1,.646,1.148,5.38,5.38,0,0,1,0,3.013,2.992,2.992,0,0,1-.646,1.148,2.573,2.573,0,0,1-1,.717,4.2,4.2,0,0,1-1.363.287,2.911,2.911,0,0,1-1.363-.287,2.573,2.573,0,0,1-1-.717,3.638,3.638,0,0,1-.646-1.148,5.38,5.38,0,0,1,0-3.013,2.992,2.992,0,0,1,.646-1.148,2.379,2.379,0,0,1,1-.717A2.731,2.731,0,0,1,68.228,77.4Zm0,6.815A2.974,2.974,0,0,0,69.376,84a2.242,2.242,0,0,0,.789-.646,3.286,3.286,0,0,0,.5-1,3.563,3.563,0,0,0,.143-1.291,6.435,6.435,0,0,0-.143-1.291,2.65,2.65,0,0,0-.5-1,2.242,2.242,0,0,0-.789-.646,2.732,2.732,0,0,0-1.148-.215,2.974,2.974,0,0,0-1.148.215,2.242,2.242,0,0,0-.789.646,3.285,3.285,0,0,0-.5,1,3.562,3.562,0,0,0-.143,1.291,6.435,6.435,0,0,0,.143,1.291,4.383,4.383,0,0,0,.5,1A2.242,2.242,0,0,0,67.08,84,2.732,2.732,0,0,0,68.228,84.215Z" transform="translate(-65 -77.4)" fill="#00ad8d"/>
      </g>
    </g>
  </g>
  <g id="Group_322" data-name="Group 322" transform="translate(145.841 65.658)">
    <g id="Group_321" data-name="Group 321" transform="translate(0 0)">
      <g id="Group_320" data-name="Group 320">
        <path id="Path_71484" data-name="Path 71484" d="M77.135,81.78c.072,0,.072,0,.143.072l.287.287a5.188,5.188,0,0,1-1.506,1,4.112,4.112,0,0,1-1,.287,5.8,5.8,0,0,1-1.148.072,5.477,5.477,0,0,1-1.937-.359,3.663,3.663,0,0,1-1.506-1.076,5.339,5.339,0,0,1-1-1.65,6.763,6.763,0,0,1-.359-2.152,6,6,0,0,1,.359-2.08,4.258,4.258,0,0,1,1-1.65,5.11,5.11,0,0,1,1.578-1.076A4.563,4.563,0,0,1,74.05,73.1a5.08,5.08,0,0,1,1.865.359,3.822,3.822,0,0,1,1.435.933l-.215.359c0,.072-.072.072-.143.072s-.143-.072-.287-.143a1.986,1.986,0,0,0-.574-.359,5.205,5.205,0,0,0-.861-.359,3.168,3.168,0,0,0-1.22-.143,4.573,4.573,0,0,0-1.722.287,3.32,3.32,0,0,0-1.291.933,4.026,4.026,0,0,0-.861,1.435,5.349,5.349,0,0,0-.287,1.865,5.5,5.5,0,0,0,.287,1.937,4.776,4.776,0,0,0,.861,1.435,3.152,3.152,0,0,0,1.291.861,3.861,3.861,0,0,0,1.578.287,4.411,4.411,0,0,0,1-.072c.287-.072.574-.143.789-.215a2.908,2.908,0,0,0,.646-.359,3.943,3.943,0,0,0,.646-.5.07.07,0,0,0,.072-.072Z" transform="translate(-69.1 -73.1)" fill="#00ad8d"/>
      </g>
    </g>
  </g>
  <g id="Group_325" data-name="Group 325" transform="translate(155.342 68.742)">
    <g id="Group_324" data-name="Group 324" transform="translate(0 0)">
      <g id="Group_323" data-name="Group 323" transform="translate(0 0)">
        <path id="Path_71485" data-name="Path 71485" d="M76.791,81.2a11.059,11.059,0,0,0-1.722.143,4.924,4.924,0,0,0-1.22.359,1.831,1.831,0,0,0-.717.5,1.157,1.157,0,0,0-.215.646,2.1,2.1,0,0,0,.143.646c.072.143.215.287.287.43a1.5,1.5,0,0,0,.43.287,1.4,1.4,0,0,0,.574.072,2.943,2.943,0,0,0,.789-.072,2.548,2.548,0,0,0,.646-.287c.215-.143.359-.215.574-.359a3.315,3.315,0,0,0,.5-.5L76.791,81.2ZM72.63,78.548a5.988,5.988,0,0,1,1.148-.861,3.021,3.021,0,0,1,1.435-.287,4.235,4.235,0,0,1,1,.143,2.577,2.577,0,0,1,.717.5,1.636,1.636,0,0,1,.43.861,4.342,4.342,0,0,1,.143,1.076v4.663h-.287c-.143,0-.215-.072-.287-.215l-.072-.933a3.593,3.593,0,0,1-.574.5,2.908,2.908,0,0,1-.646.359c-.215.072-.43.143-.717.215a2.69,2.69,0,0,1-.789.072,2.549,2.549,0,0,1-.717-.143,1.466,1.466,0,0,1-.646-.359,1.726,1.726,0,0,1-.43-.574,2.675,2.675,0,0,1-.143-.861,1.379,1.379,0,0,1,.287-.861,1.443,1.443,0,0,1,.789-.646,3.766,3.766,0,0,1,1.435-.43,8.831,8.831,0,0,1,2.08-.215v-.717a2.354,2.354,0,0,0-.43-1.506,1.576,1.576,0,0,0-1.291-.574,2.675,2.675,0,0,0-.861.143c-.215.072-.43.215-.646.287a1.5,1.5,0,0,1-.43.287.544.544,0,0,1-.287.143c-.072,0-.072,0-.215-.072Z" transform="translate(-72.2 -77.4)" fill="#00ad8d"/>
      </g>
    </g>
  </g>
  <g id="Group_328" data-name="Group 328" transform="translate(162.059 66.303)">
    <g id="Group_327" data-name="Group 327" transform="translate(0 0)">
      <g id="Group_326" data-name="Group 326">
        <path id="Path_71486" data-name="Path 71486" d="M77.1,83.828a1.515,1.515,0,0,1-1.148-.43,1.577,1.577,0,0,1-.43-1.22V77.3h-1c-.072,0-.072,0-.143-.072a.25.25,0,0,1-.072-.143V76.8l1.22-.072.143-2.583c0-.072,0-.072.072-.072,0-.072.072-.072.143-.072h.359v2.726h2.224v.5H76.237v4.878a1.064,1.064,0,0,0,.072.5,1.568,1.568,0,0,0,.215.359c.072.072.215.143.287.215a.647.647,0,0,0,.359.072.91.91,0,0,0,.43-.072c.143-.072.215-.072.359-.143.072-.072.143-.143.215-.143.072-.072.072-.072.143-.072s.072,0,.143.072l.143.287a1.831,1.831,0,0,1-.717.5A2.579,2.579,0,0,1,77.1,83.828Z" transform="translate(-74.3 -74)" fill="#00ad8d"/>
      </g>
    </g>
  </g>
  <g id="Group_331" data-name="Group 331" transform="translate(167.181 68.742)">
    <g id="Group_330" data-name="Group 330" transform="translate(0 0)">
      <g id="Group_329" data-name="Group 329" transform="translate(0 0)">
        <path id="Path_71487" data-name="Path 71487" d="M80.963,81.2a11.06,11.06,0,0,0-1.722.143,4.925,4.925,0,0,0-1.22.359,1.831,1.831,0,0,0-.717.5,1.157,1.157,0,0,0-.215.646,2.1,2.1,0,0,0,.143.646c.072.143.215.287.287.43a1.5,1.5,0,0,0,.43.287,1.4,1.4,0,0,0,.574.072,2.943,2.943,0,0,0,.789-.072,2.548,2.548,0,0,0,.646-.287c.215-.143.359-.215.574-.359a3.315,3.315,0,0,0,.5-.5L80.963,81.2ZM76.73,78.548a5.988,5.988,0,0,1,1.148-.861,3.021,3.021,0,0,1,1.435-.287,4.235,4.235,0,0,1,1,.143,2.577,2.577,0,0,1,.717.5,1.636,1.636,0,0,1,.43.861,4.342,4.342,0,0,1,.143,1.076v4.663h-.287c-.143,0-.215-.072-.287-.215l-.072-.933a3.593,3.593,0,0,1-.574.5,2.908,2.908,0,0,1-.646.359c-.215.072-.43.143-.717.215a2.69,2.69,0,0,1-.789.072,2.549,2.549,0,0,1-.717-.143,1.466,1.466,0,0,1-.646-.359,1.726,1.726,0,0,1-.43-.574,2.676,2.676,0,0,1-.143-.861,1.379,1.379,0,0,1,.287-.861,1.443,1.443,0,0,1,.789-.646,3.765,3.765,0,0,1,1.435-.43,8.83,8.83,0,0,1,2.08-.215v-.717a2.354,2.354,0,0,0-.43-1.506,1.576,1.576,0,0,0-1.291-.574,2.675,2.675,0,0,0-.861.143c-.215.072-.43.215-.646.287a1.5,1.5,0,0,1-.43.287.544.544,0,0,1-.287.143c-.072,0-.072,0-.215-.072Z" transform="translate(-76.3 -77.4)" fill="#00ad8d"/>
      </g>
    </g>
  </g>
  <g id="Group_334" data-name="Group 334" transform="translate(174.831 65.586)">
    <g id="Group_333" data-name="Group 333" transform="translate(0 0)">
      <g id="Group_332" data-name="Group 332">
        <path id="Path_71488" data-name="Path 71488" d="M80.417,73V83.474H79.7V73Z" transform="translate(-79.7 -73)" fill="#00ad8d"/>
      </g>
    </g>
  </g>
  <g id="Group_337" data-name="Group 337" transform="translate(177.138 68.814)">
    <g id="Group_336" data-name="Group 336" transform="translate(0 0)">
      <g id="Group_335" data-name="Group 335" transform="translate(0)">
        <path id="Path_71489" data-name="Path 71489" d="M86.2,77.572l-4.089,9.469a.154.154,0,0,1-.143.143c-.072.072-.072.072-.143.072h-.5l1.291-2.8L79.6,77.572h.574c.072,0,.143,0,.143.072a.07.07,0,0,1,.072.072l2.439,5.6c0,.072.072.143.072.215s.072.143.072.215c0-.072.072-.143.072-.215s.072-.143.072-.215l2.367-5.6c0-.072.072-.072.072-.143.072,0,.072-.072.143-.072h.5Z" transform="translate(-79.6 -77.5)" fill="#00ad8d"/>
      </g>
    </g>
  </g>
  <g id="Group_340" data-name="Group 340" transform="translate(184.402 68.671)">
    <g id="Group_339" data-name="Group 339" transform="translate(0 0)">
      <g id="Group_338" data-name="Group 338">
        <path id="Path_71490" data-name="Path 71490" d="M86.863,78.376c-.072.072-.072.072-.143.072a.264.264,0,0,1-.215-.072,1.569,1.569,0,0,0-.359-.215,3.5,3.5,0,0,0-.5-.215,2.212,2.212,0,0,0-.717-.072,2.123,2.123,0,0,0-.717.143,1.442,1.442,0,0,0-.574.287,1.9,1.9,0,0,0-.359.43,1.33,1.33,0,0,0-.143.5,1.352,1.352,0,0,0,.143.574,1.9,1.9,0,0,0,.43.359,2.548,2.548,0,0,0,.646.287c.215.072.5.143.717.215a3,3,0,0,1,.717.287,2.908,2.908,0,0,1,.646.359.965.965,0,0,1,.43.5,1.18,1.18,0,0,1,.143.717,3.6,3.6,0,0,1-.143.861,2.577,2.577,0,0,1-.5.717,2.962,2.962,0,0,1-.789.5,2.45,2.45,0,0,1-1.076.143,3.475,3.475,0,0,1-1.291-.215,3.009,3.009,0,0,1-1-.646l.143-.287a.07.07,0,0,1,.072-.072h.143c.072,0,.143.072.215.143a1.568,1.568,0,0,0,.359.215,4.232,4.232,0,0,1,.574.287,2.689,2.689,0,0,0,.789.072,2.579,2.579,0,0,0,.789-.143,1.562,1.562,0,0,0,.574-.359,1.287,1.287,0,0,0,.359-.5,2.1,2.1,0,0,0,.143-.646,1.351,1.351,0,0,0-.143-.574l-.43-.43a2.549,2.549,0,0,0-.646-.287c-.215-.072-.5-.143-.717-.215a3,3,0,0,1-.717-.287c-.215-.143-.43-.215-.646-.359-.143-.143-.359-.287-.43-.5a1.18,1.18,0,0,1-.143-.717,2.549,2.549,0,0,1,.143-.717l.43-.646a6.309,6.309,0,0,1,.717-.43,2.28,2.28,0,0,1,1-.143,2.974,2.974,0,0,1,1.148.215,2.531,2.531,0,0,1,.933.574Z" transform="translate(-82.2 -77.3)" fill="#00ad8d"/>
      </g>
    </g>
  </g>
  <g id="Group_343" data-name="Group 343" transform="translate(190.412 66.303)">
    <g id="Group_342" data-name="Group 342" transform="translate(0 0)">
      <g id="Group_341" data-name="Group 341" transform="translate(0)">
        <path id="Path_71491" data-name="Path 71491" d="M87,83.828a1.515,1.515,0,0,1-1.148-.43,1.577,1.577,0,0,1-.43-1.22V77.3h-1c-.072,0-.072,0-.143-.072a.25.25,0,0,1-.072-.143V76.8l1.22-.072.143-2.583c0-.072,0-.072.072-.072,0-.072.072-.072.143-.072h.359v2.726h2.224v.5H86.137v4.878a1.064,1.064,0,0,0,.072.5,1.568,1.568,0,0,0,.215.359c.072.072.215.143.287.215a.647.647,0,0,0,.359.072.91.91,0,0,0,.43-.072c.143-.072.215-.072.359-.143.072-.072.143-.143.215-.143.072-.072.072-.072.143-.072s.072,0,.143.072l.143.287a1.831,1.831,0,0,1-.717.5A2.579,2.579,0,0,1,87,83.828Z" transform="translate(-84.2 -74)" fill="#00ad8d"/>
      </g>
    </g>
  </g>
  <path id="Path_71492" data-name="Path 71492" d="M262.85,213.189a.652.652,0,0,1-.287.574.79.79,0,1,1,0-1.148A.582.582,0,0,1,262.85,213.189Z" transform="translate(-114.067 -210.864)" fill="#00ad8d"/>
  <path id="Path_71493" data-name="Path 71493" d="M260.061,213.93a.373.373,0,0,1-.143.287.544.544,0,0,1-.287.143.373.373,0,0,1-.287-.143.544.544,0,0,1-.143-.287.373.373,0,0,1,.143-.287.544.544,0,0,1,.287-.143.373.373,0,0,1,.287.143C260.061,213.715,260.061,213.787,260.061,213.93Z" transform="translate(-113.501 -211.175)" fill="#00ad8d"/>
  <path id="Path_71494" data-name="Path 71494" d="M266.544,211.149c-.072.072-.072.143-.143.215a1.734,1.734,0,0,0-2.009.646,1.7,1.7,0,0,0,.43,2.3,1.566,1.566,0,0,0,2.152-.287h0a1.518,1.518,0,0,0,.5.215,1.231,1.231,0,0,0,.574,1.148,1.376,1.376,0,0,0,1.865-.359,1.29,1.29,0,0,0-.072-1.578v-.072a1.99,1.99,0,1,0-3.3-2.224Z" transform="translate(-114.892 -210.259)" fill="#00ad8d"/>
  <path id="Path_71495" data-name="Path 71495" d="M176.578,278.938a.51.51,0,0,1-.646-.789.484.484,0,0,1,.717.072.544.544,0,0,1-.072.717" transform="translate(-89.919 -229.409)" fill="#00ad8d"/>
  <path id="Path_71496" data-name="Path 71496" d="M186.5,273.331c-.143.143-.359.143-.43-.072-.143-.143-.072-.359,0-.5.143-.144.359-.144.43,0a.434.434,0,0,1,0,.574" transform="translate(-92.809 -227.892)" fill="#00ad8d"/>
  <g id="Group_347" data-name="Group 347" transform="translate(92.182 40.705)">
    <g id="Group_346" data-name="Group 346">
      <g id="Group_345" data-name="Group 345">
        <g id="Group_344" data-name="Group 344" clip-path="url(#clip-path-6)">
          <path id="Path_71497" data-name="Path 71497" d="M186.174,270.974h.143v-3.8h0c0-.072,0-.072-.072-.072s-.072,0-.072.072L185.6,270.4a3.255,3.255,0,0,0,.359.646.264.264,0,0,1,.215-.072" transform="translate(-184.883 -267.028)" fill="#00ad8d"/>
        </g>
      </g>
    </g>
  </g>
  <g id="Group_351" data-name="Group 351" transform="translate(89.887 44.722)">
    <g id="Group_350" data-name="Group 350">
      <g id="Group_349" data-name="Group 349">
        <g id="Group_348" data-name="Group 348" clip-path="url(#clip-path-7)">
          <path id="Path_71498" data-name="Path 71498" d="M184.644,273.615a.264.264,0,0,1-.072-.215l-3.085,1.937h0s-.072.072,0,.072a.07.07,0,0,0,.072.072l2.869-1.22a3.6,3.6,0,0,1,.43-.574.314.314,0,0,1-.215-.072" transform="translate(-181.416 -272.826)" fill="#00ad8d"/>
        </g>
      </g>
    </g>
  </g>
  <g id="Group_355" data-name="Group 355" transform="translate(93.832 45.152)">
    <g id="Group_354" data-name="Group 354">
      <g id="Group_353" data-name="Group 353">
        <g id="Group_352" data-name="Group 352" clip-path="url(#clip-path-8)">
          <path id="Path_71499" data-name="Path 71499" d="M190.028,275.352l-2.439-2.08a3.155,3.155,0,0,1-.646-.072.548.548,0,0,1-.143.359l3.085,1.865h.072c.143,0,.143-.072.072-.072" transform="translate(-186.872 -273.2)" fill="#00ad8d"/>
        </g>
      </g>
    </g>
  </g>
  <g id="Group_359" data-name="Group 359" transform="translate(92.254 44.865)">
    <g id="Group_358" data-name="Group 358">
      <g id="Group_357" data-name="Group 357">
        <g id="Group_356" data-name="Group 356" clip-path="url(#clip-path-9)">
          <path id="Path_71500" data-name="Path 71500" d="M186.533,274c-.072.072-.143.072-.287.072H186.1l-.143.215-.359,6.241a1.524,1.524,0,0,0,1.291,0L186.533,274" transform="translate(-184.954 -273.139)" fill="#00ad8d"/>
        </g>
      </g>
    </g>
  </g>
  <g id="Group_367" data-name="Group 367" transform="translate(90.102 56.056)">
    <g id="Group_366" data-name="Group 366">
      <g id="Group_365" data-name="Group 365">
        <g id="Group_364" data-name="Group 364" clip-path="url(#clip-path-10)">
          <g id="Group_363" data-name="Group 363" transform="translate(-0.072)">
            <g id="Group_362" data-name="Group 362">
              <g id="Group_361" data-name="Group 361">
                <g id="Group_360" data-name="Group 360" clip-path="url(#clip-path-11)">
                  <path id="Path_71501" data-name="Path 71501" d="M181.7,288.4h1.22v1.22H181.7Z" transform="translate(-181.628 -288.4)" fill="#00ad8d"/>
                </g>
              </g>
            </g>
          </g>
        </g>
      </g>
    </g>
  </g>
  <g id="Group_375" data-name="Group 375" transform="translate(92.398 54.765)">
    <g id="Group_374" data-name="Group 374">
      <g id="Group_373" data-name="Group 373">
        <g id="Group_372" data-name="Group 372" clip-path="url(#clip-path-10)">
          <g id="Group_371" data-name="Group 371" transform="translate(0)">
            <g id="Group_370" data-name="Group 370">
              <g id="Group_369" data-name="Group 369">
                <g id="Group_368" data-name="Group 368" clip-path="url(#clip-path-13)">
                  <path id="Path_71503" data-name="Path 71503" d="M184.9,286.6h1.22v1.22H184.9Z" transform="translate(-184.9 -286.6)" fill="#00ad8d"/>
                </g>
              </g>
            </g>
          </g>
        </g>
      </g>
    </g>
  </g>
  <g id="Group_386" data-name="Group 386" transform="translate(87.376 3.616)">
    <g id="Group_385" data-name="Group 385">
      <g id="Group_384" data-name="Group 384" clip-path="url(#clip-path-14)">
        <g id="Group_383" data-name="Group 383" transform="translate(-0.637 -0.657)">
          <g id="Group_382" data-name="Group 382" transform="translate(0 0)">
            <g id="Group_381" data-name="Group 381">
              <g id="Group_380" data-name="Group 380" clip-path="url(#clip-path-15)">
                <g id="Group_379" data-name="Group 379">
                  <g id="Group_378" data-name="Group 378">
                    <g id="Group_377" data-name="Group 377">
                      <g id="Group_376" data-name="Group 376" clip-path="url(#clip-path-15)">
                        <path id="Path_71505" data-name="Path 71505" d="M184.29,216.7c-3.946.933-5.667,3.156-4.95,6.958,0,.072-.072.072-.072,0a8.023,8.023,0,0,1-.574-3.3c.287-3.372,4.232-4.735,7.245-4.376a.194.194,0,0,1,.143.287c-1.793,2.224-.43,6.815-6.241,6.026a5.846,5.846,0,0,1,4.448-5.6" transform="translate(-177.484 -214.818)" fill="#00ad8d" fill-rule="evenodd"/>
                      </g>
                    </g>
                  </g>
                </g>
              </g>
            </g>
          </g>
        </g>
      </g>
    </g>
  </g>
  <g id="Group_397" data-name="Group 397" transform="translate(78.768 7.419)">
    <g id="Group_396" data-name="Group 396">
      <g id="Group_395" data-name="Group 395" clip-path="url(#clip-path-17)">
        <g id="Group_394" data-name="Group 394" transform="translate(0.151 -1.374)">
          <g id="Group_393" data-name="Group 393" transform="translate(0 0)">
            <g id="Group_392" data-name="Group 392">
              <g id="Group_391" data-name="Group 391" clip-path="url(#clip-path-18)">
                <g id="Group_390" data-name="Group 390" transform="translate(-0.288 -0.003)">
                  <g id="Group_389" data-name="Group 389" transform="translate(0 0)">
                    <g id="Group_388" data-name="Group 388">
                      <g id="Group_387" data-name="Group 387" clip-path="url(#clip-path-18)">
                        <path id="Path_71506" data-name="Path 71506" d="M167.951,222.391c3.946-.933,6.456.359,7.532,4.017,0,.072.072,0,.072,0a7.414,7.414,0,0,0-.933-3.228c-1.793-2.941-5.882-2.367-8.465-.717a.2.2,0,0,0,0,.359c2.583,1.22,3.372,5.954,8.322,2.654a5.837,5.837,0,0,0-6.528-3.085" transform="translate(-165.806 -219.364)" fill="#00ad8d" fill-rule="evenodd"/>
                      </g>
                    </g>
                  </g>
                </g>
              </g>
            </g>
          </g>
        </g>
      </g>
    </g>
  </g>
  <g id="Group_401" data-name="Group 401" transform="translate(153.374 48.596)">
    <g id="Group_400" data-name="Group 400">
      <g id="Group_399" data-name="Group 399">
        <g id="Group_398" data-name="Group 398" clip-path="url(#clip-path-20)">
          <path id="Path_71507" data-name="Path 71507" d="M271.1,280.006l2.511-1.506,1.148,2.224c.287,1.22-1.22,1.65-2.367,1.578Z" transform="translate(-270.239 -278.141)" fill="#00ad8d" fill-rule="evenodd"/>
        </g>
      </g>
    </g>
  </g>
  <g id="Group_405" data-name="Group 405" transform="translate(151.509 51.465)">
    <g id="Group_404" data-name="Group 404">
      <g id="Group_403" data-name="Group 403">
        <g id="Group_402" data-name="Group 402" clip-path="url(#clip-path-21)">
          <path id="Path_71508" data-name="Path 71508" d="M269.791,282.8l-1.291,2.367,1.291,2.439v-1h1.22a1.331,1.331,0,0,0,1.22-.717l1.506-2.941a2.552,2.552,0,0,1-1.937.646h-2.009Z" transform="translate(-267.639 -282.226)" fill="#00ad8d" fill-rule="evenodd"/>
        </g>
      </g>
    </g>
  </g>
  <path id="Path_71509" data-name="Path 71509" d="M265.211,277.168l-2.511-1.506,1.363-2.08c.861-.861,2.009.287,2.511,1.363Z" transform="translate(-114.491 -228.07)" fill="#00ad8d" fill-rule="evenodd"/>
  <path id="Path_71510" data-name="Path 71510" d="M267.822,276.8h2.654l1.435-2.367-.861.43-.574-1.076a1.347,1.347,0,0,0-1.148-.789H266.1a2.669,2.669,0,0,1,1.506,1.435l1,1.793Z" transform="translate(-115.452 -227.991)" fill="#00ad8d" fill-rule="evenodd"/>
  <g id="Group_409" data-name="Group 409" transform="translate(145.914 48.596)">
    <g id="Group_408" data-name="Group 408">
      <g id="Group_407" data-name="Group 407">
        <g id="Group_406" data-name="Group 406" clip-path="url(#clip-path-22)">
          <path id="Path_71511" data-name="Path 71511" d="M260.087,278.5l.789.646-.717,1.435c-.359.646.287,1.291.646,1.506a3.669,3.669,0,0,0,1.578.215l1-1.722.789.43-1.363-2.511Z" transform="translate(-259.656 -278.141)" fill="#00ad8d" fill-rule="evenodd"/>
        </g>
      </g>
    </g>
  </g>
  <g id="Group_413" data-name="Group 413" transform="translate(145.914 51.465)">
    <g id="Group_412" data-name="Group 412">
      <g id="Group_411" data-name="Group 411">
        <g id="Group_410" data-name="Group 410" clip-path="url(#clip-path-3)">
          <path id="Path_71512" data-name="Path 71512" d="M260.2,283.1l1.65,3.156a1.794,1.794,0,0,0,1.65.5h1.793v-2.941h-3.372a2.272,2.272,0,0,1-1.722-.717Z" transform="translate(-259.698 -282.311)" fill="#00ad8d" fill-rule="evenodd"/>
        </g>
      </g>
    </g>
  </g>
  <g id="Group_416" data-name="Group 416" transform="translate(169.03 9.654)">
    <g id="Group_415" data-name="Group 415" transform="translate(0 0)">
      <g id="Group_414" data-name="Group 414" transform="translate(0 0)">
        <path id="Path_71513" data-name="Path 71513" d="M116.153,21.7V62.519H111.2a4.8,4.8,0,0,1-1.865-.359,3.738,3.738,0,0,1-1.435-1.22L88.606,36.55c.072.717.143,1.435.143,2.152,0,.646.072,1.291.072,1.937v21.88H80.5V21.7h5.022a4.75,4.75,0,0,1,1.076.072c.287.072.5.143.717.215a1.694,1.694,0,0,1,.646.43,6.687,6.687,0,0,1,.717.717l19.441,24.534c-.072-.789-.143-1.578-.215-2.3s-.072-1.435-.072-2.08V21.7Z" transform="translate(-80.5 -21.7)" fill="#00ad8d"/>
      </g>
    </g>
  </g>
  <g id="Group_419" data-name="Group 419" transform="translate(207.866 9.51)">
    <g id="Group_418" data-name="Group 418" transform="translate(0 0)">
      <g id="Group_417" data-name="Group 417" transform="translate(0 0)">
        <path id="Path_71514" data-name="Path 71514" d="M113.419,46.967v15.5H103.95v-15.5L89.1,21.643h8.322a2.969,2.969,0,0,1,1.937.574,4.8,4.8,0,0,1,1.22,1.435l5.811,11.908q.753,1.4,1.291,2.583c.43.789.717,1.578,1.076,2.367.287-.789.574-1.578.933-2.439q.538-1.184,1.291-2.583l5.739-11.908c.143-.215.287-.5.43-.717a5.479,5.479,0,0,1,.646-.646,5.352,5.352,0,0,1,.861-.5,2.879,2.879,0,0,1,1.076-.215H128.2Z" transform="translate(-89.1 -21.5)" fill="#00ad8d"/>
      </g>
    </g>
  </g>
  <g id="Group_422" data-name="Group 422" transform="translate(245.504 9.654)">
    <g id="Group_421" data-name="Group 421" transform="translate(0 0)">
      <g id="Group_420" data-name="Group 420">
        <path id="Path_71515" data-name="Path 71515" d="M128.556,46.952l-3.8-11.191a25.1,25.1,0,0,1-.861-2.511c-.287-.933-.646-2.009-.933-3.156a27.8,27.8,0,0,1-.933,3.156,25.1,25.1,0,0,1-.861,2.511l-3.73,11.119,11.119.072Zm15.065,15.567h-7.389a3.159,3.159,0,0,1-3.156-2.08l-2.439-7.1h-15.5l-2.439,7.1a3.509,3.509,0,0,1-1.148,1.435,3.068,3.068,0,0,1-2.009.646H102.3L118.082,21.7h9.685Z" transform="translate(-102.3 -21.7)" fill="#00ad8d"/>
      </g>
    </g>
  </g>
  <path id="Path_71516" data-name="Path 71516" d="M235.663,260.4a1.438,1.438,0,0,1,.072,2.87A1.438,1.438,0,0,1,235.663,260.4Z" transform="translate(-106.464 -224.43)" fill="#00ad8d"/>
</svg>
