<svg xmlns="http://www.w3.org/2000/svg" xmlns:xlink="http://www.w3.org/1999/xlink" width="120" height="120" viewBox="0 0 120 120">
  <defs>
    <clipPath id="clip-path">
      <rect id="Rectangle_20119" data-name="Rectangle 20119" width="67.066" height="67.032" fill="#fff"/>
    </clipPath>
  </defs>
  <g id="Group_51764" data-name="Group 51764" transform="translate(0 0.208)">
    <path id="Path_171" data-name="Path 171" d="M120,210a60,60,0,1,1-60-60,60,60,0,0,1,60,60" transform="translate(0 -150.208)" fill="#239f79"/>
    <g id="Group_51766" data-name="Group 51766" transform="translate(26.467 26.792)">
      <g id="Group_51765" data-name="Group 51765" clip-path="url(#clip-path)">
        <path id="Path_75610" data-name="Path 75610" d="M47.8,14.127a25.173,25.173,0,0,1,3.744,8.987c.928,0,1.792-.01,2.657,0a1.123,1.123,0,0,1,1.251,1.246q.016,3.357,0,6.714c0,.853-.432,1.262-1.3,1.274-.7.009-1.4.028-2.093-.007-.434-.022-.56.164-.657.553Q47.7,47.745,32.847,51.425c-.159.039-.312.106-.5.172,0,.855.008,1.7,0,2.536a1.166,1.166,0,0,1-1.325,1.328q-3.284.011-6.568,0c-.949,0-1.336-.4-1.347-1.371-.008-.674-.02-1.348.005-2.021.014-.373-.093-.569-.481-.648a23.12,23.12,0,0,1-8.007-3.3.552.552,0,0,0-.85.116c-.452.5-.94.965-1.426,1.432a1.168,1.168,0,0,1-1.885.015q-2.336-2.309-4.646-4.644a1.19,1.19,0,0,1,.006-1.94c.593-.592,1.219-1.151,1.771-1.669-.725-1.393-1.47-2.607-2-3.908a46.03,46.03,0,0,1-1.508-4.57c-.134-.458-.288-.632-.762-.607-.7.037-1.4.021-2.093.006A1.109,1.109,0,0,1,.01,31.138q-.018-3.393,0-6.786A1.121,1.121,0,0,1,1.27,23.116c.864-.012,1.729,0,2.646,0a24.7,24.7,0,0,1,3.757-8.987c-.607-.575-1.227-1.139-1.819-1.733A1.2,1.2,0,0,1,5.846,10.4Q8.134,8.1,10.441,5.81a1.179,1.179,0,0,1,1.935.016c.591.594,1.147,1.222,1.731,1.849a25.027,25.027,0,0,1,9-3.752c0-.913-.008-1.777,0-2.641A1.136,1.136,0,0,1,24.408.005q3.32-.012,6.64,0a1.138,1.138,0,0,1,1.3,1.275c.011.863,0,1.727,0,2.548,1.362.423,2.7.732,3.956,1.256a47.959,47.959,0,0,1,4.439,2.211c.455.248.694.239,1.023-.136.427-.487.9-.934,1.373-1.382a1.154,1.154,0,0,1,1.832-.019q2.364,2.332,4.7,4.7a1.171,1.171,0,0,1,0,1.889c-.589.6-1.214,1.162-1.87,1.786M2.339,30.047H4.495c1.123,0,1.431.211,1.621,1.289a22.416,22.416,0,0,0,3.855,9.23,1.226,1.226,0,0,1-.188,1.853c-.548.531-1.138,1.019-1.642,1.467l3.364,3.366c.508-.52,1.051-1.094,1.614-1.646a1.178,1.178,0,0,1,1.685-.172A22.7,22.7,0,0,0,24.3,49.389c.855.15,1.111.515,1.117,1.4,0,.783,0,1.566,0,2.373h4.627c0-.721,0-1.366,0-2.01,0-1.381.181-1.613,1.539-1.854A21.253,21.253,0,0,0,41.875,44.41a21.565,21.565,0,0,0,7.41-12.854c.237-1.313.475-1.508,1.807-1.509H53.1V25.419c-.815,0-1.582,0-2.349,0-.872-.006-1.218-.266-1.372-1.14a22.709,22.709,0,0,0-3.925-9.431,1.183,1.183,0,0,1,.165-1.739c.564-.55,1.167-1.06,1.706-1.544l-3.38-3.389c-.492.519-1.006,1.086-1.547,1.627a1.215,1.215,0,0,1-1.8.2A22.551,22.551,0,0,0,31.17,6.076c-.851-.15-1.121-.506-1.126-1.385,0-.784,0-1.568,0-2.347H25.416c0,.725,0,1.417,0,2.109,0,1.186-.225,1.5-1.389,1.7a21.986,21.986,0,0,0-9.094,3.8,1.257,1.257,0,0,1-1.913-.182c-.54-.532-1.074-1.071-1.507-1.5l-3.293,3.29c.5.477,1.068.994,1.609,1.539a1.192,1.192,0,0,1,.184,1.741,22.689,22.689,0,0,0-3.945,9.5c-.142.812-.507,1.079-1.346,1.085-.786.006-1.572,0-2.385,0Z" transform="translate(0 0)" fill="#fff"/>
        <path id="Path_75611" data-name="Path 75611" d="M319.572,325.41a5.955,5.955,0,0,1-4.4-1.623q-6.438-6.37-12.819-12.8a1.128,1.128,0,0,1-.012-1.779q3.377-3.41,6.786-6.788a1.145,1.145,0,0,1,1.832.027c4.256,4.248,8.543,8.468,12.735,12.779a5.623,5.623,0,0,1,1.111,6.552,5.757,5.757,0,0,1-5.234,3.63m-14.731-15.293a.389.389,0,0,0,.057.119c3.944,3.947,7.872,7.91,11.846,11.826a3.527,3.527,0,0,0,3.761.753,3.422,3.422,0,0,0,2.415-2.791,3.727,3.727,0,0,0-1.194-3.519Q316.11,310.9,310.5,305.283c-.147-.147-.31-.278-.431-.385l-5.229,5.219" transform="translate(-258.323 -258.377)" fill="#fff"/>
        <path id="Path_75612" data-name="Path 75612" d="M87.9,87.865c-.35.7-.655,1.293-.945,1.893a1.3,1.3,0,0,1-1.319.8c-1.419-.025-2.84,0-4.259-.01-.848,0-1.337-.45-1.322-1.179.014-.694.5-1.116,1.3-1.123,1.083-.008,2.167.024,3.248-.022A.968.968,0,0,0,85.3,87.8c.595-1.1,1.138-2.223,1.688-3.345a1.2,1.2,0,0,1,2.326.149q1.419,4.27,2.856,8.534c.067.2.141.4.273.764.469-2.584.9-4.991,1.343-7.4q1.209-6.625,2.417-13.25c.121-.669.413-1.129,1.136-1.175.643-.04,1.053.333,1.232,1.155,1.044,4.808,2.089,9.616,3.1,14.432.106.506.308.6.759.593,2.912-.015,5.823,0,8.735-.01a1.12,1.12,0,0,1,1.2.842,1.054,1.054,0,0,1-.524,1.3,1.629,1.629,0,0,1-.757.164q-5.017.016-10.035.005c-.837,0-1.175-.256-1.356-1.081-.675-3.071-1.333-6.145-2-9.218a1.741,1.741,0,0,0-.269-.673Q96.458,84.84,95.5,90.1c-.522,2.858-1.053,5.714-1.567,8.573-.116.644-.418,1.079-1.105,1.117a1.18,1.18,0,0,1-1.241-.979q-1.7-5.123-3.425-10.239c-.066-.2-.14-.388-.256-.706" transform="translate(-68.5 -61.667)" fill="#fff"/>
        <path id="Path_75613" data-name="Path 75613" d="M55.415,79.353A19.794,19.794,0,0,1,69.854,60.5c.935-.253,1.572-.009,1.781.681.22.726-.212,1.321-1.16,1.588a17.259,17.259,0,0,0-12.4,19.389,5.277,5.277,0,0,1,.067.573,1.158,1.158,0,0,1-.982,1.294A1.144,1.144,0,0,1,55.83,83c-.171-1.21-.28-2.429-.415-3.645" transform="translate(-47.414 -51.684)" fill="#fff"/>
        <path id="Path_75614" data-name="Path 75614" d="M98.763,273.313a19.112,19.112,0,0,1-14.237-7.174,1.186,1.186,0,0,1-.03-1.787,1.2,1.2,0,0,1,1.815.286,17.325,17.325,0,0,0,21.251,4.446c1.132-.558,1.734-.5,2.1.247.348.706.038,1.264-1.019,1.809a20.529,20.529,0,0,1-9.882,2.173" transform="translate(-71.963 -225.928)" fill="#fff"/>
        <path id="Path_75615" data-name="Path 75615" d="M273.215,178.657a19.4,19.4,0,0,1-7.177,14.95,1.171,1.171,0,0,1-1.783-.036,1.184,1.184,0,0,1,.294-1.761,16.6,16.6,0,0,0,5.845-9.347,31.294,31.294,0,0,0,.467-4.923c.047-.84.37-1.393,1.068-1.436.734-.045,1.237.464,1.282,1.328.021.407,0,.817,0,1.225" transform="translate(-225.866 -150.675)" fill="#fff"/>
        <path id="Path_75616" data-name="Path 75616" d="M229.825,70.266c-.307.314-.567.742-.945.926a1.065,1.065,0,0,1-1.367-.488c-.628-.879-1.2-1.8-1.9-2.621a16.976,16.976,0,0,0-8.3-5.344c-.138-.041-.276-.081-.412-.129a1.159,1.159,0,1,1,.658-2.215,19.688,19.688,0,0,1,11.8,8.865c.158.262.262.556.47,1.006" transform="translate(-184.792 -51.628)" fill="#fff"/>
      </g>
    </g>
  </g>
</svg>
