<svg id="Group_51761" data-name="Group 51761" xmlns="http://www.w3.org/2000/svg" xmlns:xlink="http://www.w3.org/1999/xlink" width="120" height="120" viewBox="0 0 120 120">
  <defs>
    <clipPath id="clip-path">
      <rect id="Rectangle_20121" data-name="Rectangle 20121" width="71.637" height="72.417" fill="#fff"/>
    </clipPath>
  </defs>
  <path id="Path_171" data-name="Path 171" d="M120,210a60,60,0,1,1-60-60,60,60,0,0,1,60,60" transform="translate(0 -150)" fill="#239f79"/>
  <g id="Group_51768" data-name="Group 51768" transform="translate(24.182 23.792)">
    <g id="Group_51767" data-name="Group 51767" clip-path="url(#clip-path)">
      <path id="Path_75617" data-name="Path 75617" d="M29.016,0q.1,6.05.206,12.1a.917.917,0,0,1-.995,1.03c-.232.01-.466,0-.76,0,0,1.389-.023,2.728.009,4.066a1.894,1.894,0,0,1-.806,1.9l1.19,2.34,11.783-4.908A6.412,6.412,0,0,1,36.8,12.911a5.957,5.957,0,0,1,.378-4.466,6.093,6.093,0,0,1,6.649-3.317,5.987,5.987,0,0,1,4.034,2.745c.955,1.473.89,3.129.829,4.878L59.81,8.116l2.255,5.4q4.6,11.01,9.2,22.021A3.427,3.427,0,0,1,69.3,40.395c-.171.075-.338.16-.578.274.234.761.491,1.51.686,2.275a2.152,2.152,0,0,1,.039,1.026c-.724,2.8-1.448,5.6-2.247,8.384a17.132,17.132,0,0,1-1.019,2.328,14.46,14.46,0,0,1,.452,2.154c.07,1.268.02,2.542.02,3.8.121.054.184.109.241.1,1.309-.135,1.639.253,1.637,1.693,0,3.02.076,6.039.121,9.059,0,.256,0,.511,0,.814h-1.73v-9.73H44.5v9.74H42.9c-.018-.259-.048-.508-.052-.758q-.069-4.636-.133-9.271c-.017-1.162.158-1.347,1.33-1.381.114,0,.228-.018.382-.03,0-1.359.019-2.7-.007-4.035-.015-.77.068-1.471.722-1.854l-1.562-3.906-1.59.995a10.168,10.168,0,0,1-1.137.7c-2.981,1.349-5.974,2.671-8.956,4.02-.6.271-1.161.442-1.69-.091-.5-.5-.355-1.047-.122-1.633a4.424,4.424,0,1,0-8.354-2.873,3.86,3.86,0,0,0,.846,3.889,21.287,21.287,0,0,0,1.994,1.792,1.262,1.262,0,0,1-.221,2.275c-3.793,1.723-7.6,3.41-11.406,5.109a.9.9,0,0,1-.211.018c-.1-.2-.209-.428-.311-.658Q6.485,51.376.553,38.132C-.6,35.553.034,33.894,2.624,32.712c.085-.039.166-.085.238-.123.019-.06.057-.114.042-.143A5.147,5.147,0,0,1,2.9,28.36c.559-1.82.957-3.689,1.5-5.514.374-1.251.88-2.463,1.3-3.625a11.7,11.7,0,0,1-.429-1.954c-.07-1.29-.02-2.586-.02-3.83-.115-.073-.151-.116-.189-.118-1.642-.092-1.656-.118-1.675-1.784Q3.322,5.768,3.24,0h1.7c.06,3.852.121,7.7.18,11.448h22.2V0ZM3.484,34.246c-1.778.62-2.155,1.485-1.427,3.111Q7.668,49.9,13.281,62.434c.093.208.2.41.329.668L22.987,58.9c-3.258-3.2-3.918-5.5-2.448-8.317a6.126,6.126,0,0,1,10.51-.613,6.329,6.329,0,0,1,.935,4.909l8.1-3.627c1.044-.467,1.2-.881.728-1.936q-1.8-4.03-3.606-8.058c-.89-1.988-.355-2.717,1.808-2.523a5.623,5.623,0,0,0,3.438-.547,4.3,4.3,0,0,0-2.541-7.943,4.374,4.374,0,0,0-4,2.984c-.329.871-1.039,1.257-1.689.859a2.078,2.078,0,0,1-.718-.91c-1.387-3.119-2.743-6.25-4.113-9.376-.388-.885-.573-.956-1.454-.561q-6.768,3.031-13.53,6.074a2.682,2.682,0,0,0-.672.483c-.762.695-1.519,1.4-2.256,2.115a.773.773,0,0,0-.242.556c.267,1.769.533,3.54.867,5.3a6.561,6.561,0,0,1-.7,4.714,3.243,3.243,0,0,1-3.337,1.539,2.424,2.424,0,0,1-2.107-2c-.8-2.583-1.637-5.153-2.474-7.77M42.768,49.625c.206-.07.319-.1.427-.146q8.047-3.361,16.09-6.73a4.805,4.805,0,0,0,1.093-.635.778.778,0,0,0,.253-.607c-.2-1.422-.421-2.841-.675-4.254a8.2,8.2,0,0,1,.223-5.128,3.61,3.61,0,0,1,2.54-2.062,2.459,2.459,0,0,1,3.157,1.831q.976,3.022,1.948,6.045c.111.345.236.687.353,1.025,1.658-.506,2.1-1.408,1.465-2.917q-4.056-9.705-8.119-19.408l-2.629-6.285c-.327.13-.6.237-.88.352-3.062,1.279-6.121,2.566-9.187,3.836A1.322,1.322,0,0,1,46.9,13.081c.016-.14.063-.278.071-.418.079-1.462.215-2.936-.77-4.2A4.44,4.44,0,1,0,41.1,15.3c.581.225,1.077.488,1.083,1.218s-.461,1.02-1.043,1.256c-1.875.763-3.743,1.54-5.614,2.311l-5,2.063,4.18,9.332c2.228-2.923,4.774-3.864,7.569-2.846a5.928,5.928,0,0,1,3.966,6.4c-.522,4.191-3.224,5.92-7.376,5.722l3.9,8.864m14.677-4.264c-4,1.666-7.8,3.243-11.594,4.848a.764.764,0,0,0-.377.608,6.274,6.274,0,0,0,1.59,3.55,1.007,1.007,0,0,0,.652.312q7.965.026,15.93,0a.722.722,0,0,0,.543-.2A12,12,0,0,0,65.508,52c.8-2.657,1.472-5.351,2.171-8.038a1.8,1.8,0,0,0-.018-.946c-1.112-3.522-2.248-7.036-3.379-10.551-.242-.751-.67-1-1.395-.688a1.819,1.819,0,0,0-.993.821,6.471,6.471,0,0,0-.511,2.644c.27,2.383.737,4.744,1.149,7.11a.606.606,0,0,1-.431.8,5.785,5.785,0,0,0-2.953,2.723c-.285.535-.573,1.067-.877,1.634l-1.506-.715.681-1.431M26.322,22.117c-.4-.736-.764-1.414-1.145-2.08a1.116,1.116,0,0,0-1.168-.593c-.821.063-1.65.043-2.475.048-4.387.029-8.774.05-13.161.091-.276,0-.68.07-.8.256a7.992,7.992,0,0,0-1.145,2.09c-.8,2.73-1.5,5.489-2.217,8.241a1.4,1.4,0,0,0,.013.739C5.354,34.5,6.507,38.077,7.642,41.664c.188.594.611.842,1.127.644.474-.182,1.087-.494,1.246-.9a5.849,5.849,0,0,0,.5-2.64c-.268-2.382-.726-4.743-1.136-7.108a.6.6,0,0,1,.434-.788,6.155,6.155,0,0,0,2.679-2.231,2.2,2.2,0,0,1,.831-.7c2.332-1.069,4.679-2.1,7.021-3.151l5.975-2.674m-.559-4.362c0-1.4-.031-2.652.014-3.9.021-.592-.207-.71-.739-.7-2.712.048-5.424.07-8.136.092-3.09.025-6.18.031-9.269.074-.234,0-.663.22-.668.35-.049,1.377-.03,2.757-.03,4.085ZM46.151,56.466c0,1.221.033,2.394-.013,3.564-.025.644.169.857.83.844,3.039-.062,6.08-.083,9.12-.106,2.734-.021,5.468-.016,8.2-.053.235,0,.666-.222.671-.354.051-1.286.031-2.575.031-3.894Z" transform="translate(0)" fill="#fff"/>
      <path id="Path_75618" data-name="Path 75618" d="M85.657,480.569l1.585.07v4.181H85.657Z" transform="translate(-73.507 -412.403)" fill="#fff"/>
      <rect id="Rectangle_20120" data-name="Rectangle 20120" width="1.62" height="4.184" transform="translate(59.691 0.212)" fill="#fff"/>
      <path id="Path_75619" data-name="Path 75619" d="M36.47,467.548l1.942-3.759,1.517.753-1.935,3.764-1.524-.758" transform="translate(-31.297 -398.003)" fill="#fff"/>
      <path id="Path_75620" data-name="Path 75620" d="M375.518,20.394l-1.511.767-1.945-3.75,1.506-.789,1.949,3.771" transform="translate(-319.288 -14.265)" fill="#fff"/>
      <path id="Path_75621" data-name="Path 75621" d="M458.99,21.567l-1.5-.79,1.936-3.757,1.509.767-1.939,3.78" transform="translate(-392.593 -14.605)" fill="#fff"/>
      <path id="Path_75622" data-name="Path 75622" d="M123.4,463.22l1.944,3.76-1.5.789-1.941-3.76,1.5-.789" transform="translate(-104.612 -397.515)" fill="#fff"/>
    </g>
  </g>
</svg>
