<svg id="Group_51762" data-name="Group 51762" xmlns="http://www.w3.org/2000/svg" xmlns:xlink="http://www.w3.org/1999/xlink" width="120" height="120" viewBox="0 0 120 120">
  <defs>
    <clipPath id="clip-path">
      <rect id="Rectangle_20122" data-name="Rectangle 20122" width="66.579" height="68.881" fill="#fff"/>
    </clipPath>
  </defs>
  <path id="Path_171" data-name="Path 171" d="M120,210a60,60,0,1,1-60-60,60,60,0,0,1,60,60" transform="translate(0 -150)" fill="#239f79"/>
  <g id="Group_51770" data-name="Group 51770" transform="translate(26.711 25.559)">
    <g id="Group_51769" data-name="Group 51769" clip-path="url(#clip-path)">
      <path id="Path_75623" data-name="Path 75623" d="M49.582,65.473q0,.234,0,.469c0,5.6,0,5.571-5.631,5.824-.664.03-1.8.451-1.853.813a3.388,3.388,0,0,0,.79,2.085,16.817,16.817,0,0,0,1.8,1.833,2.431,2.431,0,0,1,.007,3.734c-1.612,1.7-3.26,3.371-4.973,4.967a2.447,2.447,0,0,1-3.741-.1A16.638,16.638,0,0,0,33.95,83.17c-.54-.372-1.488-.789-1.9-.556a2.985,2.985,0,0,0-1.142,1.9,14.838,14.838,0,0,0-.049,3.038c.032,1.973-.994,2.837-2.9,2.828q-3.4-.018-6.8-.018c-1.96,0-2.833-1.031-2.831-2.921a23.513,23.513,0,0,0-.047-3.275,2.223,2.223,0,0,0-.963-1.547,2.026,2.026,0,0,0-1.764.32c-4.368,3.688-4.352,3.708-8.51-.408-.167-.165-.329-.334-.5-.5-3.564-3.541-3.537-3.605-.056-7.207a7.7,7.7,0,0,0,1.046-2.27,13.569,13.569,0,0,0-2.2-.789A14.108,14.108,0,0,0,3,71.723C1.026,71.7-.05,70.817,0,68.714c.054-2.186.026-4.375.009-6.562C0,60.087,1.023,59.158,3.057,59.222A23.6,23.6,0,0,0,6.336,59.2a1.592,1.592,0,0,0,1.016-2.706c-.049-.061-.115-.106-.167-.165-3.792-4.288-3.792-4.288.253-8.412.219-.223.433-.45.652-.674,3.5-3.569,3.672-3.544,7.252-.088a8.246,8.246,0,0,0,2.271,1.108,23.25,23.25,0,0,0,.7-2.278,8.456,8.456,0,0,0,.023-1.637c.018-3.243.609-3.845,3.8-3.852,1.953,0,3.906.012,5.86,0s2.866.962,2.866,2.875a28.878,28.878,0,0,0,.057,3.51,2.007,2.007,0,0,0,.956,1.334,1.66,1.66,0,0,0,1.388-.367c.9-.738,1.686-1.625,2.555-2.41a2.441,2.441,0,0,1,3.732.068c1.616,1.587,3.207,3.2,4.811,4.8,1.392,1.388,1.238,2.747-.076,4.08-.713.723-1.5,1.383-2.14,2.164a1.572,1.572,0,0,0,1.137,2.658c1.007.1,2.03.013,3.045.029,2.453.039,3.2.768,3.255,3.192.023,1.016,0,2.032,0,3.047m-47.6,4.348c1.5,0,2.813.046,4.12-.012a2.972,2.972,0,0,1,3.268,2.04A2.917,2.917,0,0,1,8.483,75.6c-1.016.826-2.1,1.566-2.773,2.06l5.9,6.62c.894-.942,1.672-1.7,2.374-2.519a3.276,3.276,0,0,1,4.152-1.02c1.711.672,2.1,1.81,2.111,3.455.023,4.259.065,4.259,4.384,4.261h.234c4.108,0,4.165,0,4.116-4.041-.021-1.75.4-2.928,2.176-3.662A3.183,3.183,0,0,1,35.3,81.76c.733.9,1.366,1.886,1.93,2.673l6.339-6.357c-.818-.794-1.683-1.692-2.61-2.521a3.05,3.05,0,0,1-.748-3.8,2.984,2.984,0,0,1,3.1-1.964c4.407-.191,4.406-.214,4.406-4.719,0-3.943,0-3.994-3.978-3.959-1.737.015-2.932-.39-3.65-2.185a3.131,3.131,0,0,1,1.067-4.106c.866-.674,1.772-1.3,2.682-1.96l-6.521-6.205c-.512.487-1.263,1.151-1.955,1.871C34.125,49.812,32.972,50.859,30.9,50,28.855,49.153,29.01,47.6,29,45.95c-.016-4.065.419-3.551-3.663-3.593-.156,0-.312,0-.469,0-4.509,0-4.54,0-4.626,4.505-.028,1.454-.35,2.55-1.854,3.149a3.022,3.022,0,0,1-3.795-.782c-.858-.984-1.737-1.95-2.561-2.871L6.093,52.112c.933,2.448,4.9,3.148,3.332,6.857-1.593,3.779-5.073,1.149-7.438,2.52Z" transform="translate(0 -21.5)" fill="#fff"/>
      <path id="Path_75624" data-name="Path 75624" d="M84.622,12.174,78,5.343c-.852,1.191-1.615,2.375-2.5,3.462a2.408,2.408,0,0,1-3.53.593,6.034,6.034,0,0,1-1.954-3.018,18.284,18.284,0,0,1-.078-4.3H61.652c-1.257,2.345,1.22,5.749-2.186,7.361-3.644,1.725-4.407-2.319-6.817-3.408l-5.492,5.93,2.806,2.978c-.536,1.188-1.14,1.66-2.174.485-.566-.644-1.211-1.219-1.806-1.837a2.4,2.4,0,0,1,.007-3.717c1.568-1.633,3.173-3.231,4.779-4.828,1.269-1.261,2.572-1.348,3.878-.036a5.621,5.621,0,0,0,.841.811c1.022.662,2.073,1.28,3.112,1.914A20.7,20.7,0,0,0,59.349,4.1c.109-3.756.41-4.112,4.227-4.1,1.8.007,3.593.019,5.389.015,1.92,0,2.912.872,2.821,2.862a14.678,14.678,0,0,0,.026,2.807c.1.687.44,1.83.8,1.881A3.543,3.543,0,0,0,74.754,6.8,12.939,12.939,0,0,0,76.627,5.04c1.386-1.395,2.729-1.272,4.064.074,1.539,1.553,3.071,3.115,4.633,4.644a2.461,2.461,0,0,1,.079,3.887c-.691.743-1.483,1.4-2.1,2.2a1.976,1.976,0,0,0-.461,1.557c.224.516.9.855,1.426,1.209.162.109.457.018.691.025,5.565.167,5.565.167,5.565,5.826v.469c0,5.865,0,5.845-5.819,6.249-.591.041-1.539.433-1.635.827a2.466,2.466,0,0,0,.6,1.93c3.757,4.026,3.778,4.006-.1,7.866-.554.551-1.1,1.108-1.657,1.657-2.836,2.8-3.467,2.778-6.445-.491l1.351-1.117,1.9,1.666,5.63-6.191c-.645-1.793-4.81-2.456-3.148-6.127,1.578-3.485,4.807-1.058,7.429-2.323,0-2.287.049-4.831-.06-7.369-.015-.334-.812-.843-1.293-.906A22.265,22.265,0,0,0,84,20.56c-1.556.031-2.36-.793-2.934-2.182s-.57-2.563.582-3.6c.982-.885,1.987-1.743,2.971-2.6" transform="translate(-23.948 0)" fill="#fff"/>
      <path id="Path_75625" data-name="Path 75625" d="M71.143,39.759a9.7,9.7,0,0,1,10.541-5.518,9.9,9.9,0,0,1,8.1,7.722c.859,4.547-.91,8.448-5.589,11.083.352-1.23.326-2.171.758-2.488a8.2,8.2,0,0,0,.473-12.517c-3.669-3.273-8.743-2.575-12.236,1.664-.368.447-1.166.538-1.765.794l-.287-.74" transform="translate(-37.772 -18.119)" fill="#fff"/>
      <path id="Path_75626" data-name="Path 75626" d="M50.2,78.03a9.691,9.691,0,0,1-3.235,12.4,9.991,9.991,0,0,1-13.111-14.9,9.679,9.679,0,0,1,12.731-1.587c-.321,1.756-1.327,1.092-2.366.725A8.082,8.082,0,1,0,46.01,88.73a7.735,7.735,0,0,0,3.183-8.218c-.223-1.072-1.024-2.344,1.009-2.481" transform="translate(-16.631 -38.354)" fill="#fff"/>
      <path id="Path_75627" data-name="Path 75627" d="M49.069,83.389c2.008-2.4,3.891-4.657,5.776-6.911a13.8,13.8,0,0,1,1.686-1.931c.371-.3,1.023-.264,1.547-.378-.018.485.161,1.13-.083,1.432-2.647,3.268-5.329,6.511-8.107,9.668a1.906,1.906,0,0,1-1.841-.121A30.265,30.265,0,0,1,44.9,81.394c-.241-.327-.1-.938-.133-1.418.532.094,1.235.008,1.563.318.943.887,1.735,1.935,2.738,3.1" transform="translate(-23.763 -39.378)" fill="#fff"/>
    </g>
  </g>
</svg>
