<svg id="Group_51763" data-name="Group 51763" xmlns="http://www.w3.org/2000/svg" xmlns:xlink="http://www.w3.org/1999/xlink" width="120" height="120" viewBox="0 0 120 120">
  <defs>
    <clipPath id="clip-path">
      <rect id="Rectangle_20123" data-name="Rectangle 20123" width="66.466" height="76.229" transform="translate(0 0)" fill="#fff"/>
    </clipPath>
  </defs>
  <path id="Path_171" data-name="Path 171" d="M120,210a60,60,0,1,1-60-60,60,60,0,0,1,60,60" transform="translate(0 -150)" fill="#239f79"/>
  <g id="Group_51772" data-name="Group 51772" transform="translate(26.767 21.889)">
    <g id="Group_51771" data-name="Group 51771" transform="translate(0 -0.003)" clip-path="url(#clip-path)">
      <path id="Path_75628" data-name="Path 75628" d="M322.563,491.382a.979.979,0,0,0-.968.274c-1.214,1.258-2.459,2.486-3.694,3.724a1.082,1.082,0,0,1-1.294.315,1.1,1.1,0,0,1-.672-1.125c0-5.508-.007-11.016.005-16.524a4.385,4.385,0,0,1,4.3-4.406c.906-.029,1.814-.008,2.721-.008q6.41,0,12.821,0a4.411,4.411,0,0,1,4.447,3.635,3.194,3.194,0,0,1,.066.556c0,.2.086.248.272.245.617-.009,1.234,0,1.852,0a4.392,4.392,0,0,1,4.528,4.458c.017,5.489,0,10.979.006,16.468a1.094,1.094,0,0,1-.7,1.137,1.119,1.119,0,0,1-1.294-.332c-1.255-1.27-2.52-2.531-3.776-3.8a.66.66,0,0,0-.515-.215c-4.479.006-8.959-.023-13.438.015a4.5,4.5,0,0,1-4.646-4.279,1.361,1.361,0,0,0-.022-.136m-4.42.608c.126-.12.2-.186.268-.255.7-.7,1.412-1.391,2.1-2.107a1.539,1.539,0,0,1,1.2-.492q7.042.013,14.083,0a2.212,2.212,0,0,0,2.306-2.266q.016-4.376,0-8.753a2.213,2.213,0,0,0-2.29-2.287q-7.687-.011-15.374,0a2.222,2.222,0,0,0-2.288,2.317q0,6.747,0,13.494v.344m26.584,4.414c.008-.12.014-.174.014-.228q0-6.857,0-13.714a2.212,2.212,0,0,0-2.21-2.192c-.654-.008-1.309,0-1.963,0-.08,0-.161.013-.259.022v.359q0,3.057,0,6.114a4.445,4.445,0,0,1-4.608,4.593H324.8c0,.075,0,.119,0,.164a2.2,2.2,0,0,0,2.169,2.046c1.617,0,3.235,0,4.852,0q4.7,0,9.4,0a1.453,1.453,0,0,1,1.121.467c.707.734,1.437,1.445,2.158,2.165.058.058.12.111.227.207" transform="translate(-298.206 -447.049)" fill="#fff"/>
      <path id="Path_75629" data-name="Path 75629" d="M911.206,620.9a5.554,5.554,0,1,1,9.014.041.987.987,0,0,1,.181.1,8.326,8.326,0,0,1,3.076,6.551,10.828,10.828,0,0,1-.06,1.706,3.254,3.254,0,0,1-3.011,2.742c-.224.014-.448.013-.673.013q-4.164,0-8.329,0a3.266,3.266,0,0,1-3.381-2.879,11.393,11.393,0,0,1-.009-2.211,8.229,8.229,0,0,1,2.431-5.369c.237-.237.5-.452.761-.692m4.512,8.949c1.448,0,2.9,0,4.345,0a1.126,1.126,0,0,0,1.212-1.209,16.306,16.306,0,0,0-.05-1.707,6,6,0,0,0-2.475-4.374.328.328,0,0,0-.4-.033,5.451,5.451,0,0,1-5.216.011.349.349,0,0,0-.427.023,6.054,6.054,0,0,0-2.1,2.771,8.452,8.452,0,0,0-.421,3.229,1.159,1.159,0,0,0,1.3,1.291h4.233m3.335-12.2a3.322,3.322,0,1,0-3.306,3.34,3.337,3.337,0,0,0,3.306-3.34" transform="translate(-857.016 -577.786)" fill="#fff"/>
      <path id="Path_75630" data-name="Path 75630" d="M3.239,620.807a5.622,5.622,0,0,1,1.074-7.589A5.553,5.553,0,0,1,12.28,620.8c.251.228.516.447.757.689a8.4,8.4,0,0,1,2.47,6.066,10.3,10.3,0,0,1-.039,1.54,3.246,3.246,0,0,1-3.26,2.855q-4.445.034-8.89,0a3.264,3.264,0,0,1-3.3-3.238,10.681,10.681,0,0,1,.5-4.119,8.289,8.289,0,0,1,2.4-3.5l.332-.283m4.525,8.944c1.448,0,2.9,0,4.345,0a1.116,1.116,0,0,0,1.193-1.17,14.765,14.765,0,0,0-.045-1.736,6.018,6.018,0,0,0-2.469-4.379.348.348,0,0,0-.426-.031,5.452,5.452,0,0,1-5.216,0,.331.331,0,0,0-.4.024A6.019,6.019,0,0,0,2.6,625.3a8.6,8.6,0,0,0-.394,3.178,1.152,1.152,0,0,0,1.266,1.273q2.145,0,4.289,0M4.435,617.534A3.322,3.322,0,1,0,7.8,614.229a3.338,3.338,0,0,0-3.369,3.305" transform="translate(0 -577.688)" fill="#fff"/>
      <path id="Path_75631" data-name="Path 75631" d="M457.428,8.761a5.552,5.552,0,0,1,7.941-7.593,5.412,5.412,0,0,1,1.7,2.227,5.468,5.468,0,0,1,.393,2.743,5.685,5.685,0,0,1-.965,2.579c.489.517.994.98,1.417,1.509a8.224,8.224,0,0,1,1.787,5.09,11.208,11.208,0,0,1-.061,1.873,3.234,3.234,0,0,1-3.194,2.727q-4.488.009-8.976,0a3.289,3.289,0,0,1-3.254-3.23,12.477,12.477,0,0,1,.268-3.37,8.28,8.28,0,0,1,2.771-4.379c.05-.042.1-.083.149-.127a.151.151,0,0,0,.024-.049m4.535,8.964c1.449,0,2.9,0,4.346,0a1.125,1.125,0,0,0,1.193-1.2,16.309,16.309,0,0,0-.049-1.735,6,6,0,0,0-2.465-4.352.346.346,0,0,0-.425-.031,5.43,5.43,0,0,1-5.214,0,.348.348,0,0,0-.425.039,6,6,0,0,0-2.119,2.829,8.521,8.521,0,0,0-.394,3.177,1.159,1.159,0,0,0,1.289,1.277q2.131,0,4.262,0M458.629,5.518A3.33,3.33,0,1,0,461.987,2.2a3.352,3.352,0,0,0-3.358,3.314" transform="translate(-428.723 0.003)" fill="#fff"/>
      <path id="Path_75632" data-name="Path 75632" d="M270.156,1027.922a28.118,28.118,0,0,1-17.041-5.462c-.781-.576-1.512-1.22-2.256-1.846a1.109,1.109,0,1,1,1.439-1.68,25.512,25.512,0,0,0,14.107,6.557,25.142,25.142,0,0,0,5.595.093,25.48,25.48,0,0,0,8.495-2.34,25.842,25.842,0,0,0,6.351-4.272,1.087,1.087,0,0,1,1.6.02,1.07,1.07,0,0,1-.112,1.611,27.852,27.852,0,0,1-6.908,4.645,26.775,26.775,0,0,1-7.916,2.369c-1.3.174-2.622.24-3.353.3" transform="translate(-236.356 -961.456)" fill="#fff"/>
      <path id="Path_75633" data-name="Path 75633" d="M135.325,252.4a1.008,1.008,0,0,1-.6.841,25.564,25.564,0,0,0-12.53,14.957,1.114,1.114,0,0,1-1.823.625,1.1,1.1,0,0,1-.282-1.327,27.847,27.847,0,0,1,3.823-7.673,27.491,27.491,0,0,1,9.559-8.4,1.9,1.9,0,0,1,.843-.243,1.1,1.1,0,0,1,1.012,1.226" transform="translate(-113.258 -237.08)" fill="#fff"/>
      <path id="Path_75634" data-name="Path 75634" d="M791.3,252.021a1.1,1.1,0,0,1,1.666-1c1.093.628,2.2,1.251,3.221,1.982a27.432,27.432,0,0,1,10.346,14.176,1.1,1.1,0,0,1-.9,1.6,1.047,1.047,0,0,1-1.173-.815,25.53,25.53,0,0,0-12.2-14.823c-.148-.081-.3-.157-.441-.245a.98.98,0,0,1-.519-.873" transform="translate(-746.898 -236.783)" fill="#fff"/>
      <path id="Path_75635" data-name="Path 75635" d="M582.8,1334.478l-.092.011c0-.176,0-.353.018-.527a.185.185,0,0,1,.123-.125.955.955,0,0,1,.851.18c.067.067.055.221.065.337s0,.219,0,.325l-.968-.2a3.124,3.124,0,0,1,.46-.108c.16-.014.23-.064.23-.234s-.054-.247-.237-.254c-.471-.017-.511.018-.459.487,0,.036.005.072.008.108m.276.015.645.039-.036-.475-.113-.059c.019.4-.192.5-.5.5" transform="translate(-550.01 -1258.972)" fill="#fff"/>
      <path id="Path_75636" data-name="Path 75636" d="M603.888,1339.965a3.457,3.457,0,0,1-.245-.251c.127-.153-.04-.51.262-.5.271.011.146.328.222.5.015.033-.125.135-.239.252m.162-.121c.058-.25-.045-.3-.193-.273-.057.011-.1.1-.15.147l.343.125" transform="translate(-569.771 -1264.069)" fill="#fff"/>
      <path id="Path_75637" data-name="Path 75637" d="M587.82,1318.485a4.352,4.352,0,0,1,.093-.451.177.177,0,0,1,.3-.009,1.936,1.936,0,0,1,.1.425c.005.045-.069.144-.093.14a3.965,3.965,0,0,1-.41-.11.9.9,0,0,0,.264.056c.06,0,.114-.076.171-.117-.058-.044-.136-.137-.171-.123a1.207,1.207,0,0,0-.259.188" transform="translate(-554.831 -1243.991)" fill="#fff"/>
      <path id="Path_75638" data-name="Path 75638" d="M572.557,1339.955c-.108-.121-.241-.227-.225-.26.081-.167-.051-.49.23-.491s.136.347.253.507a3,3,0,0,1-.258.244m.166-.122c.055-.245-.036-.307-.192-.271-.058.013-.1.1-.15.146l.341.125" transform="translate(-540.216 -1264.058)" fill="#fff"/>
      <path id="Path_75639" data-name="Path 75639" d="M582.508,1353.538a.821.821,0,0,1-1.232,0,1.013,1.013,0,0,0,1.232,0" transform="translate(-548.66 -1277.586)" fill="#fff"/>
      <path id="Path_75640" data-name="Path 75640" d="M583.926,1335.568c0-.036,0-.072-.008-.108-.052-.469-.011-.5.459-.487.183.007.238.079.237.254s-.071.219-.23.234a3.123,3.123,0,0,0-.459.108h0" transform="translate(-551.136 -1260.062)" fill="#fff"/>
      <path id="Path_75641" data-name="Path 75641" d="M589.262,1337.575c.3,0,.514-.093.5-.5l.113.059.036.475-.645-.039" transform="translate(-556.197 -1262.054)" fill="#fff"/>
      <path id="Path_75642" data-name="Path 75642" d="M605.129,1345.711l-.343-.125c.05-.051.092-.136.15-.147.149-.029.251.023.193.273" transform="translate(-570.85 -1269.936)" fill="#fff"/>
      <path id="Path_75643" data-name="Path 75643" d="M587.819,1324.39a1.213,1.213,0,0,1,.259-.188c.035-.014.113.079.171.123-.057.041-.111.112-.171.117a.9.9,0,0,1-.264-.056l.006,0" transform="translate(-554.83 -1249.897)" fill="#fff"/>
      <path id="Path_75644" data-name="Path 75644" d="M573.586,1345.7l-.341-.125c.049-.051.092-.133.15-.146.156-.036.246.026.191.271" transform="translate(-541.079 -1269.922)" fill="#fff"/>
      <path id="Path_75645" data-name="Path 75645" d="M514.545,614.154a1.1,1.1,0,0,1-.032-2.2,1.1,1.1,0,1,1,.032,2.2" transform="translate(-484.623 -577.612)" fill="#fff"/>
      <path id="Path_75646" data-name="Path 75646" d="M594.635,613.069a1.087,1.087,0,0,1-1.118,1.083,1.1,1.1,0,1,1,1.118-1.083" transform="translate(-559.198 -577.611)" fill="#fff"/>
      <path id="Path_75647" data-name="Path 75647" d="M436.736,613.07a1.1,1.1,0,1,1-1.086-1.121,1.1,1.1,0,0,1,1.086,1.121" transform="translate(-410.158 -577.611)" fill="#fff"/>
    </g>
  </g>
</svg>
