<svg id="Group_52135" data-name="Group 52135" xmlns="http://www.w3.org/2000/svg" xmlns:xlink="http://www.w3.org/1999/xlink" width="57.946" height="45.835" viewBox="0 0 57.946 45.835">
  <defs>
    <clipPath id="clip-path">
      <rect id="Rectangle_20469" data-name="Rectangle 20469" width="57.946" height="45.835" fill="#fff"/>
    </clipPath>
  </defs>
  <g id="Group_52134" data-name="Group 52134" clip-path="url(#clip-path)">
    <path id="Path_76362" data-name="Path 76362" d="M22.384,12.91c-.739.133-3-2.232-3.206-2.2L8.581,21.23a2.1,2.1,0,0,1-2.364.21,34.809,34.809,0,0,1-4.965-4.8C.409,15.21,1.215,14.7,1.1,14.11c-.04-.2-.864-.894-1-1.353-.193-.651-.122-2.111.467-2.538.424-.308.936-.192.8.342-.068.273-.44.53-.522.884A1.722,1.722,0,0,0,1.6,13.311l.4-.078,9.767-9.777C11.712,2.6,10.664,2.2,9.9,2.386c-.273.064-1.174.872-1.37.2-.181-.618,1.249-1.114,1.692-1.139,1.457-.082,2.013,1.238,2.511,1.356.607.143.964-.4,2.017.337a65.047,65.047,0,0,1,4.717,4.733c.533.862.158,1.772.387,2.125A7.9,7.9,0,0,0,23.1,12.276a15.821,15.821,0,0,0,1.951-.712c3.174-.782,8.2.545,10.929-.724a10.69,10.69,0,0,0,2.388-1.877c.247-.559-.526-1.5.388-2.749a45.447,45.447,0,0,1,4.4-4.416c1-.741,1.392-.331,2.256-.578.3-.086.648-.683,1-.89,1-.586,2.775-.441,3.047.84-.476.627-.976-.184-1.411-.322-.763-.242-1.39.307-1.889.814L56,11.657l.4.078c.612-.545.954-.962.716-1.825-.129-.467-.922-1-.241-1.343.909-.462,1.21,1.923,1.028,2.613-.155.589-.964,1.143-1,1.357-.08.431.78,1.211.114,2.478-.169.321-4.453,4.612-4.873,4.892-1.539,1.027-2.386-.173-2.87-.052-.712.179-2.746,2.978-2.993,3.8s-.182,4.108-.837,4.213l-.461-.312c.068-2.067.118-4,1.28-5.809.671-1.044,1.74-1.718,2.416-2.749L39.231,9.512c-.372-.192-1.218.985-1.572,1.271-3.86,3.118-9.671.232-13.445,1.987-1.28.6-6.629,5.8-7.581,7.065-.839,1.113.086,1.736,1.129,2.185,3.2,1.379,4.161-.852,6.3-2.31,3.652-2.484,8.882-2.188,11.708,1.309-.406,1.051-1.372-.315-1.971-.712a8.209,8.209,0,0,0-8.117-.552c-2.953,1.4-3.124,3.949-7.3,3.377-1.617-.221-3.868-1.879-2.585-3.661Zm22-10.847a1.465,1.465,0,0,0-.592.367A47.664,47.664,0,0,0,39.39,6.843a1.321,1.321,0,0,0-.285,1.227L50.094,19.132a1.009,1.009,0,0,0,1.111.326c.78-.776,5.058-4.547,5.189-5.217a1.88,1.88,0,0,0-.031-.75L44.907,2.1a.841.841,0,0,0-.519-.041M13.354,3.5a1.368,1.368,0,0,0-.74.341L1.744,14.868c-.286.537.01.984.328,1.425a42.126,42.126,0,0,0,4.089,4.1,1.368,1.368,0,0,0,1.974.076L18.849,9.609l-.078-1.2c-1.554-1.2-3.046-3.466-4.567-4.565a1.325,1.325,0,0,0-.849-.341" transform="translate(-0.001 0)" fill="#fff"/>
    <path id="Path_76363" data-name="Path 76363" d="M69.7,142.424c.86-.331,1.28-1.273,2.154-1.7,2.118-1.043,4.67.152,4.617,2.648.176.2,1.264-1.07,1.52-1.234a3.122,3.122,0,0,1,4.147,4.541,3.187,3.187,0,0,1,2.992,4.411,3.116,3.116,0,0,1,3.314,2.12c.293,1.02-.169,1.61.885,2.265a1.277,1.277,0,0,0,1.62.1,13.6,13.6,0,0,0,1.777-1.844c.467-1.074-1-1.881-.191-2.251.635-.29,1.169,1.587,2.669.948a13.707,13.707,0,0,0,1.905-2.036c.4-1.027-.86-1.7-.334-2.061.845-.585,1.358,1.878,3,.638.782-.59,2.275-1.962,1.58-3l-7.575-7.543c-.376-.637-.039-1.161.645-.646,2.552,1.921,4.987,5.494,7.552,7.566,1.236,1.567-.447,3.534-1.744,4.4a2.246,2.246,0,0,1-2.192.246c-.326,1.761-2.483,3.973-4.41,3.308-.248,1.723-2.511,3.978-4.408,3.151.2,1.324-2.056,3.377-3.248,3.459-.55.038-.943-.334-1.388-.305-.6.039-.819.585-1.885.455-1.119-.136-3.125-2.077-3.088-3.293-1.962.553-4.073-1.5-4.408-3.31-1.908.752-3.881-1.519-4.429-3.128a3.706,3.706,0,0,1-3.665-1.768c-1.835-2.493.674-3.663,1.944-5.41-.576-2.116-.134-3.925-1.37-5.874-.226-.356-1.116-1.023-.81-1.447.6-.838,1.913,1.563,2.11,2.037a15.292,15.292,0,0,1,.713,4.564m3.1-1.226a3.761,3.761,0,0,0-1.138.75,53.587,53.587,0,0,0-4.255,4.405c-.467,1.477,2.256,4.217,3.628,2.685.728-1.419,4-3.535,4.5-4.791A2.307,2.307,0,0,0,72.8,141.2m6.623,1.257a2.3,2.3,0,0,0-1.07.516l-6.517,6.555a1.3,1.3,0,0,0-.2.671c.037.67,2.553,3.521,3.5,2.309l6.51-6.561a2.351,2.351,0,0,0-2.217-3.49M82.1,147.5a2.547,2.547,0,0,0-1.149.439l-4.764,4.841c-.826.755,1.351,2.85,1.892,3.073a1.308,1.308,0,0,0,1.456-.2,46.525,46.525,0,0,0,4.412-4.407A2.282,2.282,0,0,0,82.1,147.5m1.87,11.411a27.807,27.807,0,0,0,3.041-3.02c.733-.951,1.105-1.8.39-2.9a2.374,2.374,0,0,0-2.443-1.043c-.772.173-4.442,3.732-4.554,4.434-.15.938,1.842,2.988,2.738,2.9a2.17,2.17,0,0,0,.829-.369m1.313.055c.786.694,4.144-2.149,2.911-3.306-.657,1.113-1.9,1.82-2.677,2.833-.121.158-.305.2-.234.473" transform="translate(-55.974 -114.239)" fill="#fff"/>
    <path id="Path_76364" data-name="Path 76364" d="M22.042,22.188a1.325,1.325,0,0,1,.849.341c1.521,1.1,3.014,3.37,4.567,4.565l.078,1.2L16.823,39.154a1.368,1.368,0,0,1-1.974-.076,42.126,42.126,0,0,1-4.089-4.1c-.318-.442-.614-.888-.328-1.425L21.3,22.529a1.368,1.368,0,0,1,.74-.341" transform="translate(-8.688 -18.685)" fill="#fff"/>
    <path id="Path_76365" data-name="Path 76365" d="M252.774,12.952a.838.838,0,0,1,.519.041L264.749,24.38a1.884,1.884,0,0,1,.031.75c-.13.67-4.409,4.441-5.189,5.217a1.009,1.009,0,0,1-1.111-.326L247.492,18.958a1.321,1.321,0,0,1,.285-1.227,47.664,47.664,0,0,1,4.406-4.413,1.467,1.467,0,0,1,.592-.367" transform="translate(-208.387 -10.889)" fill="#fff"/>
  </g>
</svg>
