<svg id="Group_52133" data-name="Group 52133" xmlns="http://www.w3.org/2000/svg" xmlns:xlink="http://www.w3.org/1999/xlink" width="39.064" height="47.602" viewBox="0 0 39.064 47.602">
  <defs>
    <clipPath id="clip-path">
      <rect id="Rectangle_20468" data-name="Rectangle 20468" width="39.064" height="47.602" fill="#fff"/>
    </clipPath>
  </defs>
  <g id="Group_52132" data-name="Group 52132" clip-path="url(#clip-path)">
    <path id="Path_76361" data-name="Path 76361" d="M12.8,30.235c.529-2.32-.588-2.47-1.471-3.861-.5-.793-1.318-2.688-1.74-3.135-.965-1.018-3.093-.5-3.865-2.836-.8-2.418.628-3.237.575-4.03-.039-.584-1.223-1.121-.736-2.971.262-1,1.267-1.279,1.579-1.773.359-.567.463-1.973.823-2.834a10.651,10.651,0,0,1,4.32-5.125c.611-.388,2.012-.724,2.264-.935.462-.387.7-1.916,1.985-2.434a12.069,12.069,0,0,1,5.824.114c1.155.59,1.374,1.967,1.794,2.32C25.369,3.76,27.319,3.76,29.1,5.857c1.9,2.231,1.516,4.231,2.442,5.784.359.6,1.41.484,1.649,2.007.252,1.6-.557,2.062-.58,2.722-.034.963,1.094,2.086.463,4.131-.658,2.133-3.332,1.908-3.962,2.741-.414.547-.827,1.937-1.439,2.827-1.041,1.514-2.327,1.7-1.776,4.166h4.723c.129,0,2.071.793,2.4.952,4.053,1.949,5.712,5.847,5.993,10.155.059.9.233,6.26-.776,6.26H.762c-.1,0-.463-.4-.762-.3V38.614c0-2.83,5.2-8.379,8.074-8.379ZM24.07,4.946V9.364c0,.558-1.729.791-2.071-.367-.4-1.358.342-5.737-.195-6.508-.256-.368-3.952-.435-4.54-.3-1.3.3.484,6.939-1.334,7.572-1.973.687-1.136-3.1-1.306-4.366-.046-.342.114-.622-.452-.447C12.042,5.61,9.6,9.1,9.445,11.344h19.8c-.341-2.778-2.413-5.671-5.18-6.4M31.078,15c.092-.92.015-1.591-1.052-1.538l-21.648.014c-.866.069-.81.793-.761,1.524Zm-3.656,2.133H11.273v4.418a23.087,23.087,0,0,0,1.086,2.57,7.97,7.97,0,0,0,13.672.61,19.24,19.24,0,0,0,1.391-2.875ZM23.763,29.321a9.122,9.122,0,0,1-8.83,0c-1.01,1.42,3.56,5.077,4.415,6.088.862-1.176,5.554-4.5,4.415-6.088M18.281,45.469V37.395c-1.314-.746-3.672-4.634-4.785-4.965-1.346-.4-4.426-.021-5.879.242v12.8l1.525,0c.165-.162-.529-3.057,1.065-3.057,1.619,0,.89,3.055,1.066,3.055Zm12.8-12.8c0-.307-5.313-.453-5.892-.255-.472.162-3.812,4.457-4.772,4.978v8.074h7.008c.177,0-.614-2.886,1.08-3.057,1.614-.163.937,2.039,1.052,3.059l1.83,0c.151-.108-.3-.389-.3-.454ZM5.484,45.469V33.891c-1.073.527-3.352,3.714-3.352,4.723v6.855Zm31.383,0V40.442c0-.158-.415-1.906-.512-2.231a8.009,8.009,0,0,0-3.145-4.32V45.469Z" transform="translate(0 0)" fill="#fff"/>
  </g>
</svg>
