<svg id="Group_52131" data-name="Group 52131" xmlns="http://www.w3.org/2000/svg" xmlns:xlink="http://www.w3.org/1999/xlink" width="48.514" height="47.319" viewBox="0 0 48.514 47.319">
  <defs>
    <clipPath id="clip-path">
      <rect id="Rectangle_20467" data-name="Rectangle 20467" width="48.514" height="47.319" fill="#fff"/>
    </clipPath>
  </defs>
  <g id="Group_52130" data-name="Group 52130" clip-path="url(#clip-path)">
    <path id="Path_76359" data-name="Path 76359" d="M38.4,22.924c1.045-1.778,3.116-1.011,4.374.151,1.419,1.31-.126,2.142-.226,2.779A22.242,22.242,0,0,0,44.7,28.837c.356.214,1.591-.932,2.635-.173a8.639,8.639,0,0,1,1.178,3.182c.044,1.421-1.586,1.215-2.163,1.636A15.539,15.539,0,0,0,45.831,37c.2.625,1.838.6,1.9,1.993a8.764,8.764,0,0,1-1.647,2.993c-1.4.684-2.353-.644-2.61-.642-.112,0-1.23,1.186-1.529,1.44a15.156,15.156,0,0,1-1.328.743c-.229.323,1.158,1.759-.007,2.863a6.648,6.648,0,0,1-3.379.9c-1.085-.3-.915-1.748-1.287-2.021a28.041,28.041,0,0,0-3.458-.583c-.656.108-.43,2.494-2.848,1.677-.131-.044-1.634-.883-1.759-.981-1.647-1.3.208-2.311.057-3.079a26.33,26.33,0,0,0-1.93-2.6c-.459-.27-1.636.445-2.5.179-.8-.248-.624-1.368-1.188-1.564-5.589-.428-11.736.447-17.256-.026C2.813,38.1.876,37.17.288,34.839c.593-7.063-.852-15.6-.024-22.482a4.764,4.764,0,0,1,3.984-3.7H9.87V1.94C9.87,1.5,11.305.1,11.943.172c4.651.322,9.974-.481,14.54-.033.826.081,2.315,1.033,2.315,1.8V8.523c0,.63,1.346.133,1.771.123,2.367-.055,5.433-.288,7.006,1.8a12.449,12.449,0,0,1,.824,1.371ZM27.152,8.935V2.214A2.753,2.753,0,0,0,26.74,1.8H11.928a2.753,2.753,0,0,0-.411.411V8.935h1.1V4.957c0-.636,1.232-1.75,1.913-1.927a51.22,51.22,0,0,1,9.406-.065c.877.157,2.122,1.085,2.122,1.993V8.935ZM14.258,8.662l9.718.241c.678-.163.583-3.953.176-4.238A60.8,60.8,0,0,0,15,4.6c-1.271.375-.572,3.029-.743,4.061m22.495,9.051V12.089c0-1.322-2.429-1.724-3.417-1.8-9.222-.664-19.234.521-28.541.011-.822-.06-2.879.944-2.879,1.784v5.623H13.436c.182,0-.408-2.4,1.628-2.9a40.069,40.069,0,0,1,8.751.063c1.993.622,1.243,2.835,1.417,2.835ZM23.586,16.341H15.494a2.753,2.753,0,0,0-.411.411V20.73h8.5ZM13.436,19.358c-.4-.419-10.1.319-11.521,0v15.5c0,1.073,2,1.69,2.884,1.779,5.444.547,11.71-.413,17.246.021-.1-1.437,2.315-1.575,2.381-1.829.044-.169.28-3.324.225-3.49-.323-.98-2.79-.347-1.289-3.291,1.761-3.454,3.346-.936,3.787-1.13.153-.067,2.535-1.933,2.624-2.075.236-.376-.535-1.888-.019-2.746.273-.455,2.989-1.184,3.507-1.05,1.148.3,1.178,2.275,1.323,2.4.208.179,1.708-.065,2.168.027V19.358H25.232c-.171,0,.477,2.32-1.357,2.894a51.612,51.612,0,0,1-9.08,0c-1.645-.511-1.2-2.725-1.358-2.894m19.474,3.291c-2.78.224-.857,1.709-1.5,3.02-.238.481-1.2.71-1.648,1.1-.841.721-1.638,2.144-2.953,1.88-.606-.122-.918-.82-1.569-.782-1.134,2.428-.1,1.205.83,2.322.827.992-.29,4.187-.193,5.571-1.247,1.22-2.572.084-1.736,2.531,3.052-.9,2.808.288,4.27,2.181.561.726,1.392.577,1.214,2.047-.059.485-.791,1.423-.529,1.784a9.215,9.215,0,0,0,1.221.54c.315-.021.6-1.153.963-1.468.978-.855,2.1-.068,3.174.1,1.005.156,2.009-.343,2.713.579.775,1.013-.033,1.928,2.052,1.361.2-.675-.321-1.464-.268-2.044.081-.9,3.4-2.665,4.036-3.672,1.006-.259,1.871,1.6,2.617.168.767-1.47-.613-.9-1.187-1.692a14.807,14.807,0,0,1,.144-5.11c.541-1.752,2.963-.516,1.792-3-3.089,1.516-3.337-1.8-5.342-3.3-.606-1.311.684-2.19.679-2.327a7.117,7.117,0,0,0-1.261-.932c-.526-.183-.866,1.8-1.677,1.849-2.178-.555-6.006.594-5.836-2.7" transform="translate(0 0)" fill="#fff"/>
    <path id="Path_76360" data-name="Path 76360" d="M110.048,99.684c7.3-.886,10.71,9.125,4.053,12.83-9.4,5.233-14.811-11.524-4.053-12.83m-.28,1.642c-6.224,1.06-5.189,11.689,2.34,10.293,6.038-1.119,4.925-11.53-2.34-10.293" transform="translate(-75.556 -72.3)" fill="#fff"/>
  </g>
</svg>
