<svg xmlns="http://www.w3.org/2000/svg" xmlns:xlink="http://www.w3.org/1999/xlink" width="402" height="558" viewBox="0 0 402 558">
  <defs>
    <clipPath id="clip-path">
      <rect id="Rectangle_19898" data-name="Rectangle 19898" width="49.758" height="66.77" fill="#fdfdfd"/>
    </clipPath>
    <clipPath id="clip-path-2">
      <rect id="Rectangle_19899" data-name="Rectangle 19899" width="53.851" height="60.694" fill="#fff"/>
    </clipPath>
    <clipPath id="clip-path-3">
      <rect id="Rectangle_19900" data-name="Rectangle 19900" width="49.006" height="43.731" transform="translate(0 0)" fill="#fff"/>
    </clipPath>
    <clipPath id="clip-path-4">
      <rect id="Rectangle_19901" data-name="Rectangle 19901" width="56.358" height="56.39" fill="#fff"/>
    </clipPath>
    <clipPath id="clip-path-5">
      <rect id="Rectangle_19902" data-name="Rectangle 19902" width="70" height="70" fill="#fff"/>
    </clipPath>
    <clipPath id="clip-path-6">
      <rect id="Rectangle_19903" data-name="Rectangle 19903" width="44" height="44" fill="#fff"/>
    </clipPath>
  </defs>
  <g id="Group_52197" data-name="Group 52197" transform="translate(-488.766 -2284.42)">
    <g id="Group_51392" data-name="Group 51392" transform="translate(528.766 2308.42)">
      <path id="Path_75381" data-name="Path 75381" d="M327.348,319.113,187.8,335.39a3.052,3.052,0,0,1-3.405-3.033V301.811H330.046v14.27a3.053,3.053,0,0,1-2.7,3.033" transform="translate(-99.722 102.978)" fill="#5c5c5c"/>
      <path id="Path_75382" data-name="Path 75382" d="M327.348,340.764,187.8,357.038a3.05,3.05,0,0,1-3.405-3.031V334.669a3.053,3.053,0,0,1,2.7-3.031l139.553-16.274a3.049,3.049,0,0,1,3.405,3.029v19.338a3.055,3.055,0,0,1-2.7,3.033" transform="translate(-99.722 115.306)" fill="#5c5c5c"/>
      <path id="Path_75383" data-name="Path 75383" d="M307.649,375.08H206.787a22.4,22.4,0,0,1-22.4-22.4,3.464,3.464,0,0,1,3.063-3.442L326.18,333.06a3.464,3.464,0,0,1,3.866,3.442v16.181a22.4,22.4,0,0,1-22.4,22.4" transform="translate(-99.722 131.426)" fill="#5c5c5c"/>
      <path id="Path_75384" data-name="Path 75384" d="M232.531,317.758h94.559a7.634,7.634,0,0,0,6.4-3.463c5.725-8.77,12.886-19.871,22.741-38.349,24.377-45.708,21.482-88.523,21.482-88.523a158.153,158.153,0,0,0-2.119-25.839,7.637,7.637,0,0,0-7.545-6.364H232.531a7.639,7.639,0,0,0-7.64,7.638V310.117a7.64,7.64,0,0,0,7.64,7.64" transform="translate(-62.825 -30.569)" fill="#7f3f97"/>
      <path id="Path_75385" data-name="Path 75385" d="M232.531,205.5H361.824a7.652,7.652,0,0,0,7.233-10.142A157.447,157.447,0,0,0,233.066,90.018a7.623,7.623,0,0,0-8.175,7.627V197.862a7.64,7.64,0,0,0,7.64,7.64" transform="translate(-62.825 -89.993)" fill="#7f3f97"/>
      <path id="Path_75386" data-name="Path 75386" d="M285.371,155.221H149.858a7.639,7.639,0,0,0-7.545,6.366,158.147,158.147,0,0,0-2.121,25.837s-2.9,42.815,21.482,88.523c9.855,18.478,17.018,29.581,22.741,38.349a7.629,7.629,0,0,0,6.4,3.463h94.559a7.639,7.639,0,0,0,7.64-7.638V162.861a7.64,7.64,0,0,0-7.64-7.64" transform="translate(-140.085 -30.569)" fill="#7f3f97"/>
      <path id="Path_75387" data-name="Path 75387" d="M224.892,252.7v82.472a7.64,7.64,0,0,0,7.64,7.638h60.314c18.892,0,10.362-39,20.721-70.695a151.343,151.343,0,0,1,6.23-16.23,7.633,7.633,0,0,0-6.937-10.826H232.532a7.64,7.64,0,0,0-7.64,7.64" transform="translate(-62.824 51.273)" fill="#7f3f97"/>
      <path id="Path_75388" data-name="Path 75388" d="M289.036,197.864V97.646a7.621,7.621,0,0,0-8.175-7.627A157.446,157.446,0,0,0,144.872,195.362a7.652,7.652,0,0,0,7.233,10.142H281.4a7.64,7.64,0,0,0,7.64-7.64" transform="translate(-136.111 -89.992)" fill="#7f3f97"/>
      <path id="Path_75389" data-name="Path 75389" d="M258.048,245.057H177.72a7.633,7.633,0,0,0-6.937,10.826,151.3,151.3,0,0,1,6.23,16.228c10.36,31.693,1.829,70.7,20.721,70.7h60.314a7.64,7.64,0,0,0,7.64-7.64V252.7a7.64,7.64,0,0,0-7.64-7.64" transform="translate(-112.763 51.274)" fill="#7f3f97"/>
      <path id="Path_75390" data-name="Path 75390" d="M262.074,335.168V252.7a7.64,7.64,0,0,0-7.64-7.638H174.106c-.021,0-.042,0-.063,0a144.8,144.8,0,0,1,9.784,23.643c4.407,13.48,5.641,27.519,6.731,39.9.705,8.028,1.756,19.972,3.858,23.229h-.6a27.814,27.814,0,0,0,8.525,10.971h52.091a7.64,7.64,0,0,0,7.64-7.64" transform="translate(-109.149 51.274)" fill="#ac8dc1"/>
      <path id="Path_75391" data-name="Path 75391" d="M303.141,268.7a144.732,144.732,0,0,1,9.784-23.643c-.023,0-.044,0-.065,0H232.532a7.64,7.64,0,0,0-7.64,7.64v82.47a7.64,7.64,0,0,0,7.64,7.64h51.495a27.836,27.836,0,0,0,8.525-10.971c2.1-3.256,3.153-15.2,3.858-23.229,1.089-12.385,2.324-26.424,6.731-39.9" transform="translate(-62.824 51.274)" fill="#ac8dc1"/>
      <path id="Path_75392" data-name="Path 75392" d="M366.764,188.14l-.019-.346,0-.371a147.538,147.538,0,0,0-3.042-29.795l-.585-2.408H232.531a7.64,7.64,0,0,0-7.64,7.64V310.119a7.64,7.64,0,0,0,7.64,7.64h85.746l3.66-5.834,1.645-2.526c5.758-8.814,12.924-19.783,22.967-38.614,22.481-42.151,20.24-82.245,20.215-82.644" transform="translate(-62.825 -30.569)" fill="#ac8dc1"/>
      <path id="Path_75393" data-name="Path 75393" d="M287.776,310.119V162.861a7.64,7.64,0,0,0-7.64-7.64H149.555l-.585,2.408a147.576,147.576,0,0,0-3.042,29.795v.371l-.025.371c-.025.375-2.265,40.468,20.217,82.619,10.039,18.824,17.2,29.793,22.959,38.607l1.556,2.383,3.755,5.985h85.746a7.64,7.64,0,0,0,7.64-7.64" transform="translate(-134.85 -30.569)" fill="#ac8dc1"/>
      <path id="Path_75394" data-name="Path 75394" d="M284.875,95.519c-62.791,1.934-118.185,44.9-135.861,104.952h128.22a7.64,7.64,0,0,0,7.64-7.64Z" transform="translate(-131.95 -84.959)" fill="#ac8dc1"/>
      <path id="Path_75395" data-name="Path 75395" d="M224.892,95.519V192.83a7.64,7.64,0,0,0,7.64,7.64h128.22c-17.675-60.056-73.07-103.02-135.861-104.952" transform="translate(-62.824 -84.959)" fill="#ac8dc1"/>
      <path id="Path_75396" data-name="Path 75396" d="M330.025,316.083V301.811H296.277c-36.692,13.557-81.555,24.4-111.864,30.959a3.045,3.045,0,0,0,3.363,2.622l139.553-16.276a3.051,3.051,0,0,0,2.7-3.033" transform="translate(-99.701 102.978)" fill="#171717"/>
      <path id="Path_75397" data-name="Path 75397" d="M330.008,337.731V318.4a3.053,3.053,0,0,0-3.405-3.033l-30.219,3.524c-15.292,7.822-66.964,27.377-111.952,35.811a3.056,3.056,0,0,0,3.327,2.343l139.553-16.276a3.051,3.051,0,0,0,2.7-3.033" transform="translate(-99.684 115.305)" fill="#171717"/>
      <path id="Path_75398" data-name="Path 75398" d="M304.16,375.08a22.4,22.4,0,0,0,22.4-22.4V336.5a3.464,3.464,0,0,0-3.866-3.442l-22.107,2.578c-41.311,26.194-90.6,32.2-112.364,33.571A22.291,22.291,0,0,0,203.3,375.08Z" transform="translate(-96.233 131.426)" fill="#171717"/>
    </g>
    <circle id="Ellipse_119" data-name="Ellipse 119" cx="8.5" cy="8.5" r="8.5" transform="translate(488.766 2284.42)" fill="#622f88"/>
    <circle id="Ellipse_124" data-name="Ellipse 124" cx="8.5" cy="8.5" r="8.5" transform="translate(873.766 2284.42)" fill="#622f88"/>
    <circle id="Ellipse_120" data-name="Ellipse 120" cx="8.5" cy="8.5" r="8.5" transform="translate(488.766 2533.42)" fill="#622f88"/>
    <circle id="Ellipse_123" data-name="Ellipse 123" cx="8.5" cy="8.5" r="8.5" transform="translate(873.766 2533.42)" fill="#622f88"/>
    <circle id="Ellipse_121" data-name="Ellipse 121" cx="8.5" cy="8.5" r="8.5" transform="translate(488.766 2825.42)" fill="#622f88"/>
    <circle id="Ellipse_122" data-name="Ellipse 122" cx="8.5" cy="8.5" r="8.5" transform="translate(873.766 2825.42)" fill="#622f88"/>
    <path id="Path_75399" data-name="Path 75399" d="M2043.82,3084.5h52.688l23.027,26.934" transform="translate(-1527.234 -791.58)" fill="none" stroke="#707070" stroke-width="1" stroke-dasharray="3"/>
    <path id="Path_75400" data-name="Path 75400" d="M2043.82,3084.5h52.688l26.566,31.461" transform="translate(-1527.234 -791.58)" fill="none" stroke="#707070" stroke-width="1" stroke-dasharray="3"/>
    <path id="Path_75404" data-name="Path 75404" d="M2043.82,3111.434h52.688l22.7-159.189" transform="translate(-1527.234 -278.86)" fill="none" stroke="#707070" stroke-width="1" stroke-dasharray="3"/>
    <path id="Path_75401" data-name="Path 75401" d="M2119.535,3084.5h-52.687l-28.84,33.5" transform="translate(-1259.77 -791.58)" fill="none" stroke="#707070" stroke-width="1" stroke-dasharray="3"/>
    <path id="Path_75405" data-name="Path 75405" d="M2119.535,3111.434h-52.687l-24.395-167.846" transform="translate(-1259.77 -278.86)" fill="none" stroke="#707070" stroke-width="1" stroke-dasharray="3"/>
    <path id="Path_75402" data-name="Path 75402" d="M2043.82,3333.5h20.8" transform="translate(-1527.234 -791.58)" fill="none" stroke="#622f88" stroke-width="1" stroke-dasharray="3"/>
    <path id="Path_75403" data-name="Path 75403" d="M2043.82,3333.5h20.8" transform="translate(-1207.843 -791.58)" fill="none" stroke="#622f88" stroke-width="1" stroke-dasharray="3"/>
    <g id="Group_51394" data-name="Group 51394" transform="translate(605.766 2344.732)">
      <g id="Group_51393" data-name="Group 51393" clip-path="url(#clip-path)">
        <path id="Path_75406" data-name="Path 75406" d="M87.325,302.2a32.491,32.491,0,0,1,.024-3.782c.355-3.009,3.048-5.647,6.874-6.068a1.332,1.332,0,0,1,.858.369,3.5,3.5,0,0,0,5.093-.02,1.391,1.391,0,0,1,.945-.337c4.217.543,7.116,3.748,6.906,7.724-.092,1.728-.035,3.464,0,5.2a1.252,1.252,0,0,1-.707,1.262c-1.844,1.034-3.649,2.137-5.5,3.153a8.275,8.275,0,0,1-8.344.026c-1.884-1.017-3.708-2.144-5.573-3.2a1.181,1.181,0,0,1-.679-1.192c.033-1.044.009-2.09.009-3.135h.1m19.233-.31q0-1.031,0-2.061a5.79,5.79,0,0,0-4.917-5.9,1.267,1.267,0,0,0-.879.186,4.931,4.931,0,0,1-6.309-.019,1.068,1.068,0,0,0-.649-.223,5.857,5.857,0,0,0-5.123,5.568c-.023,1.759-.031,3.519.017,5.276a1.241,1.241,0,0,0,.519.875q2.387,1.459,4.838,2.815a6.967,6.967,0,0,0,7.075.028c1.663-.9,3.293-1.87,4.907-2.859a1.28,1.28,0,0,0,.5-.887c.065-.93.023-1.867.023-2.8" transform="translate(-72.812 -244.07)" fill="#fdfdfd"/>
        <path id="Path_75407" data-name="Path 75407" d="M120.733,42.2a6.807,6.807,0,0,1-1.085,3.832,8.991,8.991,0,0,0-1.477,4.565c-.016.511-.06,1.071-.772,1.012-.691-.056-.675-.615-.642-1.123a11.2,11.2,0,0,1,1.7-5.187,5.832,5.832,0,0,0-4.268-8.9,5.861,5.861,0,0,0-5.69,8.893,10.618,10.618,0,0,1,1.668,5.106c.007.192.074.426-.01.568-.148.25-.418.64-.588.617-.27-.037-.711-.364-.714-.573-.025-2.091-.962-3.831-1.87-5.639a6.737,6.737,0,0,1,.874-7.717,6.841,6.841,0,0,1,7.535-2.438,7.034,7.034,0,0,1,5.271,5.838,8.164,8.164,0,0,1,.071,1.151" transform="translate(-88.624 -29.145)" fill="#fdfdfd"/>
        <path id="Path_75408" data-name="Path 75408" d="M7.249,274.945a3.628,3.628,0,0,1,.682.428,3.5,3.5,0,0,0,4.916.051,1.639,1.639,0,0,1,1.217-.42,27.455,27.455,0,0,1,3.24,1.128c.44.174.742.553.471,1.055-.289.537-.724.462-1.194.189a12.316,12.316,0,0,0-1.256-.609,2,2,0,0,0-2.251.234,4.68,4.68,0,0,1-5.545-.113,1.591,1.591,0,0,0-1.654-.274,6.039,6.039,0,0,0-4.273,4.19,1.46,1.46,0,0,0,.633,1.9C4.125,283.825,6,284.958,7.9,286.07c1.515.89,3.04,1.762,4.563,2.637.438.252.831.568.537,1.107-.318.585-.815.406-1.28.137l-9.484-5.48c-.071-.041-.139-.089-.208-.134-2.154-1.408-2.479-2.453-1.5-4.832a7.847,7.847,0,0,1,6.725-4.56" transform="translate(0 -229.542)" fill="#fdfdfd"/>
        <path id="Path_75409" data-name="Path 75409" d="M210.807,281.906a6.448,6.448,0,0,1-.821,1.409,8.5,8.5,0,0,1-1.758,1.344c-3.028,1.781-6.078,3.527-9.12,5.284-.166.1-.345.275-.5.259-.32-.032-.775-.082-.9-.29s.065-.63.211-.91c.087-.167.354-.242.544-.352l8.629-4.984c.237-.137.479-.269.709-.418,1.542-.994,1.722-1.569.934-3.251a6.127,6.127,0,0,0-4.564-3.422,1.178,1.178,0,0,0-.8.267,5.025,5.025,0,0,1-6.2.028,1.46,1.46,0,0,0-1.1-.206,11.751,11.751,0,0,0-2.042.84c-.462.229-.924.3-1.1-.208a1.076,1.076,0,0,1,.345-.99,27.913,27.913,0,0,1,3.46-1.225,1.339,1.339,0,0,1,1,.355,3.494,3.494,0,0,0,5.034,0,1.337,1.337,0,0,1,.85-.375,7.75,7.75,0,0,1,7.184,6.848" transform="translate(-161.049 -229.635)" fill="#fdfdfd"/>
        <path id="Path_75410" data-name="Path 75410" d="M116.99,219.061c-.018-2.82,1.3-4.925,3.6-5.727a5.379,5.379,0,0,1,7.287,4.515,8.212,8.212,0,0,1-1.771,6.572,4.517,4.517,0,0,1-7.213.045,8.193,8.193,0,0,1-1.9-5.405m5.489-4.581a3.7,3.7,0,0,0-3.8,2.8,6.635,6.635,0,0,0,1.408,6.327,3.015,3.015,0,0,0,4.857-.048,6.6,6.6,0,0,0,1.584-4.736c-.1-2.769-1.617-4.331-4.045-4.346" transform="translate(-97.671 -177.819)" fill="#fdfdfd"/>
        <path id="Path_75411" data-name="Path 75411" d="M204.2,202.047c.006-3.475,1.639-5.7,4.3-6.272a5.362,5.362,0,0,1,6.6,4.775,8.363,8.363,0,0,1-1.78,6.484,4.491,4.491,0,0,1-7.3-.051,8.234,8.234,0,0,1-1.819-4.936m1.461-1.128c0,2.751.826,4.75,2.11,5.777a2.858,2.858,0,0,0,4.022-.153,6.591,6.591,0,0,0,1.9-5.645,3.85,3.85,0,0,0-1.581-3.037,4.052,4.052,0,0,0-4.3-.31,3.8,3.8,0,0,0-2.149,3.368" transform="translate(-170.481 -163.332)" fill="#fdfdfd"/>
        <path id="Path_75412" data-name="Path 75412" d="M40.651,201.671a8.772,8.772,0,0,1-1.86,5.565,4.476,4.476,0,0,1-7.247.055,8.142,8.142,0,0,1-1.557-7.674c.667-2.479,2.835-3.826,5.643-3.7a5.241,5.241,0,0,1,4.819,4.256c.114.562.155,1.14.2,1.5m-1.47.218c-.014-.3-.014-.573-.041-.847a3.9,3.9,0,0,0-3.331-3.657,3.77,3.77,0,0,0-4.336,2.35,6.54,6.54,0,0,0,1.265,6.71,3,3,0,0,0,4.944-.141,6.919,6.919,0,0,0,1.5-4.415" transform="translate(-24.744 -163.557)" fill="#fdfdfd"/>
        <path id="Path_75413" data-name="Path 75413" d="M127.75,142.64c-1.181,0-2.362,0-3.542,0-.507,0-.987-.082-1-.7s.475-.729.977-.73c2.334,0,4.668,0,7,0,.542,0,1.068.112,1.05.753-.016.579-.511.692-1.028.687-1.153-.013-2.307,0-3.46,0" transform="translate(-102.862 -117.886)" fill="#fdfdfd"/>
        <path id="Path_75414" data-name="Path 75414" d="M127.679,155.068c1.207,0,2.414.008,3.62,0,.494,0,.93.129.953.668.027.618-.46.725-.97.725q-3.579,0-7.158,0c-.481,0-.917-.107-.9-.7.014-.57.426-.694.919-.691,1.179.008,2.359,0,3.538,0" transform="translate(-102.873 -129.458)" fill="#fdfdfd"/>
        <path id="Path_75415" data-name="Path 75415" d="M136.947,170.208a10.782,10.782,0,0,1-1.8-.03c-.289-.05-.524-.415-.783-.638.253-.229.5-.642.762-.656a34.36,34.36,0,0,1,3.78,0c.268.015.515.419.772.644-.251.227-.478.608-.757.651a13.214,13.214,0,0,1-1.969.031" transform="translate(-112.172 -140.952)" fill="#fdfdfd"/>
        <path id="Path_75416" data-name="Path 75416" d="M200.91,108.467c0,.587-.495.968-.917.749-.994-.516-1.969-1.074-2.905-1.686a.85.85,0,0,1-.132-.828.871.871,0,0,1,.806-.28c.978.486,1.918,1.05,2.853,1.617.162.1.237.34.3.429" transform="translate(-164.385 -88.825)" fill="#fdfdfd"/>
        <path id="Path_75417" data-name="Path 75417" d="M83.331,106.957a2.618,2.618,0,0,1-.51.532c-.787.5-1.6.951-2.4,1.423-.405.238-.793.27-1.071-.17-.29-.46-.036-.785.351-1.018.82-.494,1.642-.988,2.482-1.446a.726.726,0,0,1,1.15.68" transform="translate(-66.141 -88.62)" fill="#fdfdfd"/>
        <path id="Path_75418" data-name="Path 75418" d="M178.593,11.05a3.148,3.148,0,0,1-.174.455c-.47.832-.91,1.686-1.45,2.47-.163.236-.612.275-.929.4-.09-.353-.358-.788-.239-1.044a21.363,21.363,0,0,1,1.5-2.626.982.982,0,0,1,.753-.317,2.63,2.63,0,0,1,.835.334l-.3.323" transform="translate(-146.745 -8.676)" fill="#fdfdfd"/>
        <path id="Path_75419" data-name="Path 75419" d="M110.928,14.041c-.1.118-.238.434-.434.476a.892.892,0,0,1-.773-.222,29.6,29.6,0,0,1-1.625-2.839.91.91,0,0,1,.263-.812.788.788,0,0,1,.771.065c.631.985,1.192,2.014,1.772,3.031.024.043.011.108.025.3" transform="translate(-90.222 -8.825)" fill="#fdfdfd"/>
        <path id="Path_75420" data-name="Path 75420" d="M83.906,40.969a.707.707,0,0,1-1.052.7A27.862,27.862,0,0,1,80.168,40.1a.966.966,0,0,1-.23-.883.854.854,0,0,1,.791-.286c1,.493,1.963,1.067,2.924,1.638.141.084.2.308.253.4" transform="translate(-66.714 -32.484)" fill="#fdfdfd"/>
        <path id="Path_75421" data-name="Path 75421" d="M200.216,38.157c.166.134.485.267.538.468a.886.886,0,0,1-.194.782,27.222,27.222,0,0,1-2.83,1.647.98.98,0,0,1-.864-.318.856.856,0,0,1,.2-.812c.884-.59,1.823-1.1,2.745-1.63a2.631,2.631,0,0,1,.4-.137" transform="translate(-164.323 -31.856)" fill="#fdfdfd"/>
        <path id="Path_75422" data-name="Path 75422" d="M71.308,78.232a7.225,7.225,0,0,1-1.475-.029c-.269-.058-.476-.4-.71-.616.24-.239.465-.664.722-.685a20.3,20.3,0,0,1,3.039,0c.251.018.477.4.714.62-.243.238-.453.618-.735.683a7.087,7.087,0,0,1-1.556.03" transform="translate(-57.708 -64.154)" fill="#fdfdfd"/>
        <path id="Path_75423" data-name="Path 75423" d="M206.465,76.849c.466,0,.933,0,1.4,0s.882.2.784.7a1.034,1.034,0,0,1-.736.641,18.458,18.458,0,0,1-2.957,0c-.267-.022-.5-.434-.75-.668.26-.222.491-.57.786-.638a6.758,6.758,0,0,1,1.475-.029" transform="translate(-170.483 -64.135)" fill="#fdfdfd"/>
        <path id="Path_75424" data-name="Path 75424" d="M147.365,2.3a6.028,6.028,0,0,1-.027,1.391c-.072.3-.406.527-.622.788-.231-.245-.641-.477-.661-.738a20.617,20.617,0,0,1,0-3.037c.018-.247.4-.469.619-.7.231.245.6.461.662.743a7.42,7.42,0,0,1,.031,1.555" transform="translate(-121.889 -0.001)" fill="#fdfdfd"/>
      </g>
    </g>
    <g id="Group_51396" data-name="Group 51396" transform="translate(595.84 2477.792)">
      <g id="Group_51395" data-name="Group 51395" clip-path="url(#clip-path-2)">
        <path id="Path_75425" data-name="Path 75425" d="M0,.007c9.983,0,19.709-.039,29.434.066a4.454,4.454,0,0,1,2.542,1.489c2.554,2.524,4.887,5.281,7.537,7.694a5.912,5.912,0,0,1,2.124,5.754,8.143,8.143,0,0,1-1.091,2.145c-.455-.636-.927-1.261-1.355-1.915a5.56,5.56,0,0,1-.352-1.088c-2.481,0-5.014-.119-7.53.036-2.079.128-2.9-.512-2.769-2.69.17-2.891.042-5.8.042-8.854H2.635V58.249H38.258a54.539,54.539,0,0,1,.064-5.539c.069-.677.867-1.279,1.333-1.916.41.6,1.142,1.19,1.174,1.812.132,2.62.056,5.25.056,8.088H0ZM31.388,11.3H37.91L31.388,5.113Z" transform="translate(0 0)" fill="#fff"/>
        <path id="Path_75426" data-name="Path 75426" d="M47.254,49.851A13.517,13.517,0,1,1,60.628,63.3,13.616,13.616,0,0,1,47.254,49.851M60.57,60.629A10.869,10.869,0,1,0,49.834,49.709,10.826,10.826,0,0,0,60.57,60.629" transform="translate(-20.438 -15.674)" fill="#fff"/>
        <path id="Path_75427" data-name="Path 75427" d="M34.985,75.346c-4.12,0-8.24.048-12.358-.055-.582-.014-1.146-.768-1.718-1.18.522-.368,1.034-1.041,1.565-1.056,3.467-.1,6.943-.148,10.407.01.863.039,1.688.9,2.53,1.376l-.426.905" transform="translate(-9.043 -31.558)" fill="#fff"/>
        <path id="Path_75428" data-name="Path 75428" d="M35.434,40.61c-.948.482-1.877,1.327-2.848,1.379-3.28.175-6.577.127-9.862.014-.613-.022-1.2-.737-1.8-1.132.59-.4,1.171-1.141,1.771-1.157,4.12-.1,8.243-.053,12.366-.053l.376.949" transform="translate(-9.049 -17.149)" fill="#fff"/>
        <path id="Path_75429" data-name="Path 75429" d="M32.15,64.277c-3.275,0-6.552.052-9.823-.056-.495-.016-.966-.775-1.448-1.189.44-.363.871-1.025,1.323-1.041,2.822-.1,5.654-.142,8.47.017.658.037,1.267.927,1.9,1.424l-.422.845" transform="translate(-9.03 -26.774)" fill="#fff"/>
        <path id="Path_75430" data-name="Path 75430" d="M32.544,51.541c-.539.552-1.053,1.549-1.621,1.581-2.909.162-5.833.123-8.748.026-.436-.015-.85-.71-1.274-1.091.4-.395.789-1.121,1.2-1.133,3.362-.092,6.728-.052,10.093-.052l.351.669" transform="translate(-9.04 -21.999)" fill="#fff"/>
        <path id="Path_75431" data-name="Path 75431" d="M59.6,53.613l4.92,4.1,6.532-7.41c2.226,1.3,2.85,2.023,1.4,3.486-2.457,2.477-4.8,5.065-7.369,7.792-2.389-2.04-4.46-3.663-6.317-5.5-.445-.441-.176-1.6-.235-2.433l1.071-.034" transform="translate(-25.303 -21.757)" fill="#fff"/>
      </g>
    </g>
    <g id="Group_51398" data-name="Group 51398" transform="translate(622.766 2629.653)">
      <g id="Group_51397" data-name="Group 51397" clip-path="url(#clip-path-3)">
        <path id="Path_75432" data-name="Path 75432" d="M264.16,210.786l1.3-.188c.529-.076,1.058-.155,1.588-.224a.222.222,0,0,0,.215-.192,10.411,10.411,0,0,1,1.082-2.617.246.246,0,0,0-.026-.321c-.581-.766-1.155-1.536-1.72-2.288l3.228-3.209,1.27.95c.347.26.7.517,1.038.782a.205.205,0,0,0,.268.016,10.606,10.606,0,0,1,2.615-1.087.262.262,0,0,0,.221-.26c.13-.952.27-1.9.409-2.865h4.531c.055.373.112.751.166,1.13.085.6.164,1.193.259,1.788a.279.279,0,0,0,.161.187,11.109,11.109,0,0,1,2.689,1.123c.11.065.172.017.25-.041q1.087-.817,2.177-1.633c.054-.04.109-.078.148-.106l3.211,3.211-.7.93c-.341.455-.679.912-1.027,1.362a.258.258,0,0,0-.026.339,9.985,9.985,0,0,1,1.069,2.6c.045.181.158.191.292.21l2.692.382c.04.006.078.016.137.029,0,.074.01.146.01.217,0,1.368,0,2.735,0,4.1,0,.162-.044.218-.208.239-.885.117-1.768.251-2.653.37a.287.287,0,0,0-.28.251,10.1,10.1,0,0,1-1.031,2.507.323.323,0,0,0,.018.425c.578.75,1.139,1.513,1.7,2.261l-3.217,3.206c-.131-.1-.288-.211-.443-.327-.623-.467-1.248-.931-1.866-1.4a.23.23,0,0,0-.3-.02,10.45,10.45,0,0,1-2.6,1.078.26.26,0,0,0-.225.256c-.128.952-.268,1.9-.406,2.866h-4.531c-.055-.371-.113-.749-.167-1.127-.085-.6-.163-1.193-.258-1.788a.278.278,0,0,0-.16-.187,10.991,10.991,0,0,1-2.688-1.124c-.12-.071-.185-.011-.266.05L270,224.231l-.2.146-3.21-3.216c.238-.319.5-.664.754-1.009.325-.433.648-.868.978-1.3a.232.232,0,0,0,.022-.3,10.319,10.319,0,0,1-1.08-2.617.234.234,0,0,0-.231-.2c-.9-.124-1.808-.258-2.712-.385-.112-.016-.183-.033-.183-.177.005-1.422,0-2.843,0-4.265,0-.033.007-.066.013-.119m3.865-5.748c.035.049.078.108.122.167.5.666.995,1.335,1.5,2a.227.227,0,0,1,.007.316,8.883,8.883,0,0,0-1.06,2.072c-.17.491-.31.993-.443,1.5a.347.347,0,0,1-.351.281c-.8.105-1.594.224-2.392.33-.147.019-.187.078-.186.222.007.738.012,1.476,0,2.213,0,.206.066.262.255.287.825.11,1.647.236,2.471.349a.206.206,0,0,1,.211.19,9.74,9.74,0,0,0,1.509,3.65.212.212,0,0,1-.018.3c-.238.3-.465.615-.7.924l-.918,1.224,1.883,1.879c.707-.53,1.434-1.071,2.156-1.62a.208.208,0,0,1,.285-.014,9.779,9.779,0,0,0,3.668,1.517.2.2,0,0,1,.18.2c.117.851.244,1.7.359,2.552.018.136.063.182.2.181q1.147-.009,2.295,0c.132,0,.188-.034.207-.175.094-.7.237-1.4.288-2.11.034-.477.21-.656.683-.75a8.884,8.884,0,0,0,3.218-1.4.229.229,0,0,1,.319.011c.406.316.821.62,1.232.928l.918.687,1.881-1.871c-.036-.05-.078-.11-.122-.169q-.755-1.007-1.511-2.014c-.059-.079-.1-.139-.028-.246a9.874,9.874,0,0,0,1.541-3.7.18.18,0,0,1,.18-.17c.831-.113,1.66-.241,2.492-.35.191-.025.257-.085.253-.289q-.022-1.066,0-2.132c0-.211-.05-.288-.27-.315-.819-.1-1.634-.232-2.452-.341a.218.218,0,0,1-.216-.21,9.739,9.739,0,0,0-1.506-3.629.214.214,0,0,1,.012-.3c.508-.668,1.01-1.341,1.513-2.012.043-.057.082-.118.1-.142l-1.865-1.886c-.71.532-1.432,1.069-2.148,1.614a.231.231,0,0,1-.319.017,9.758,9.758,0,0,0-3.632-1.5c-.141-.027-.184-.09-.2-.224-.117-.851-.244-1.7-.361-2.552-.016-.117-.055-.162-.177-.162q-1.168.006-2.335,0c-.114,0-.167.029-.184.154-.1.744-.216,1.486-.319,2.23-.069.5-.063.5-.541.61a9.674,9.674,0,0,0-3.246,1.39.345.345,0,0,1-.49-.021c-.34-.279-.7-.534-1.051-.8s-.691-.516-1.018-.759l-1.879,1.873" transform="translate(-253.413 -191.188)" fill="#fff"/>
        <path id="Path_75433" data-name="Path 75433" d="M105.843,1.033l1.044-.293,1.142,4.08-4.08,1.143-.294-1.044,2.211-.622,0-.066a20.041,20.041,0,0,0-15.593-2.52,19.7,19.7,0,0,0-9.811,5.67,20.132,20.132,0,0,0-5.222,10.083l-1.033-.2A20.957,20.957,0,0,1,86.643,1.8c6.825-2.885,13.444-2.236,19.83,1.5l-.63-2.266" transform="translate(-71.194 -0.003)" fill="#fff"/>
        <path id="Path_75434" data-name="Path 75434" d="M301.527,660.785l.637,2.276-1.043.3-1.146-4.083,4.079-1.144c.094.333.187.648.265.966.007.029-.082.106-.138.123-.6.176-1.21.343-1.816.514-.07.02-.138.043-.261.082a20.209,20.209,0,0,0,6.982,2.772,19.737,19.737,0,0,0,7.467.032,20.23,20.23,0,0,0,16.2-16.009l1.038.2a20.986,20.986,0,0,1-12.45,15.467c-6.817,2.877-13.431,2.232-19.81-1.5" transform="translate(-287.788 -620.344)" fill="#fff"/>
        <path id="Path_75435" data-name="Path 75435" d="M868.112,166.311c-.364-.15-.705-.3-1.053-.427a.207.207,0,0,0-.181.076q-.374.6-.726,1.222a.219.219,0,0,1-.278.122,5.983,5.983,0,0,0-2.478,0,.22.22,0,0,1-.278-.123c-.254-.446-.52-.886-.8-1.353l-1.16.481c.1.39.194.768.288,1.147.044.177.156.379.106.525s-.274.218-.4.342c-.4.381-.793.771-1.188,1.158a1.719,1.719,0,0,0-.125.154c-.242-.237-.478-.459-.7-.7a.21.21,0,0,1,.027-.2c.322-.346.643-.695.988-1.017a.36.36,0,0,0,.14-.424c-.153-.532-.279-1.072-.422-1.635l2.9-1.2c.223.374.439.739.657,1.1.107.18.178.428.337.518s.4.01.608.013c.331.006.662.027.993.022a.3.3,0,0,0,.212-.127c.267-.431.522-.871.781-1.307.041-.069.085-.136.138-.221l2.893,1.2c-.084.337-.166.669-.248,1-.07.282-.246.59-.182.838.06.232.375.4.571.6a5.669,5.669,0,0,1,.476.527.277.277,0,0,0,.347.1c.548-.147,1.1-.284,1.671-.431l1.2,2.9-1.046.625c-.169.1-.344.191-.5.3a.292.292,0,0,0-.109.2c-.009.486,0,.973-.007,1.459a.216.216,0,0,0,.131.22c.507.3,1.011.6,1.534.911-.126.307-.249.6-.373.9-.254.612-.511,1.223-.759,1.838-.051.127-.107.155-.241.119-.509-.139-1.024-.255-1.532-.4a.263.263,0,0,0-.307.1q-.474.5-.975.974a.24.24,0,0,0-.088.275c.133.5.258,1,.384,1.493.018.071.032.143.051.23l-2.893,1.2-.457-.767c-.149-.25-.3-.5-.442-.753a.258.258,0,0,0-.275-.144c-.486.01-.973,0-1.459,0-.177,0-.232-.068-.222-.243.015-.283,0-.566,0-.873.085.008.156.013.226.022a5.914,5.914,0,0,0,2-.082.226.226,0,0,1,.287.133c.254.446.521.884.793,1.341l1.161-.481c-.132-.519-.254-1.024-.391-1.524a.215.215,0,0,1,.107-.282,5.811,5.811,0,0,0,1.765-1.768.2.2,0,0,1,.269-.09c.451.121.9.231,1.355.353.129.035.192.01.24-.123.1-.286.224-.566.349-.843a.158.158,0,0,0-.078-.243c-.4-.232-.8-.478-1.208-.709a.22.22,0,0,1-.132-.274,5.833,5.833,0,0,0,0-2.477.229.229,0,0,1,.135-.289c.4-.225.792-.469,1.191-.7.114-.065.153-.123.093-.254-.13-.283-.247-.571-.36-.861-.043-.11-.09-.14-.21-.107-.45.123-.905.227-1.355.351a.218.218,0,0,1-.26-.084c-.329-.386-.646-.783-1-1.143a6.09,6.09,0,0,0-.8-.627.226.226,0,0,1-.1-.286c.135-.5.257-.994.391-1.517" transform="translate(-824.225 -157.781)" fill="#fff"/>
        <path id="Path_75436" data-name="Path 75436" d="M9.535,491.648a6.431,6.431,0,0,0-1.892.012c-.474.078-.474.074-.718-.338l-.644-1.086c-.366.153-.727.3-1.083.458-.032.014-.05.113-.038.164.109.454.218.908.344,1.357a.24.24,0,0,1-.114.317,5.789,5.789,0,0,0-1.736,1.741.227.227,0,0,1-.3.106c-.495-.134-.993-.256-1.507-.386-.153.368-.305.721-.442,1.079-.014.037.047.13.1.16.4.244.8.484,1.205.713a.232.232,0,0,1,.132.293,6.013,6.013,0,0,0-.009,2.438.269.269,0,0,1-.158.338c-.4.22-.782.458-1.173.687-.084.049-.139.088-.088.2.148.334.282.673.433,1.037l.938-.236c.21-.053.417-.118.63-.156a.252.252,0,0,1,.21.081,6.068,6.068,0,0,0,1.8,1.794c.116.074.12.152.088.271-.133.5-.257.994-.39,1.518.365.152.723.305,1.088.444.035.013.125-.055.157-.107.244-.4.484-.8.714-1.2a.217.217,0,0,1,.276-.126,5.894,5.894,0,0,0,2.457,0,.242.242,0,0,1,.31.134c.215.384.444.759.669,1.137.037.063.079.124.128.2l1.152-.476c-.071-.287-.14-.566-.21-.845-.06-.236-.119-.472-.185-.707a.182.182,0,0,1,.089-.235,5.876,5.876,0,0,0,1.588-1.5l.791.827c-.355.348-.73.725-1.118,1.088a.265.265,0,0,0-.1.308c.141.508.266,1.021.4,1.531.025.1.045.175-.083.228-.92.376-1.837.758-2.775,1.146-.11-.182-.218-.359-.324-.538-.186-.314-.376-.626-.554-.946a.3.3,0,0,0-.333-.174,11.3,11.3,0,0,1-1.317,0,.288.288,0,0,0-.316.17c-.283.492-.576.978-.879,1.49l-2.9-1.2c.122-.483.217-.961.369-1.421a.581.581,0,0,0-.225-.765,5.413,5.413,0,0,1-.776-.8.252.252,0,0,0-.3-.089c-.561.15-1.124.292-1.7.441l-1.2-2.9,1.313-.782a.95.95,0,0,1,.14-.081c.189-.072.216-.2.2-.4-.025-.431-.008-.865.008-1.3a.238.238,0,0,0-.129-.259c-.509-.294-1.013-.6-1.534-.906.1-.238.192-.468.287-.7.282-.681.567-1.361.843-2.045.051-.127.106-.156.241-.119.515.14,1.036.259,1.551.4a.236.236,0,0,0,.274-.091c.322-.337.651-.668.99-.988a.242.242,0,0,0,.087-.276c-.134-.5-.261-1.008-.389-1.512-.016-.064-.027-.13-.043-.209l2.893-1.2c.249.417.517.817.732,1.243a.611.611,0,0,0,.73.4,7.356,7.356,0,0,1,1.153.016c.136,0,.192.052.187.194-.009.3,0,.593,0,.919" transform="translate(0 -469.012)" fill="#fff"/>
        <path id="Path_75437" data-name="Path 75437" d="M938.035,316.623a2.51,2.51,0,1,1-2.524-2.515,2.5,2.5,0,0,1,2.524,2.515m-2.5,1.427a1.426,1.426,0,1,0-1.432-1.411,1.432,1.432,0,0,0,1.432,1.411" transform="translate(-895.114 -301.349)" fill="#fff"/>
        <path id="Path_75438" data-name="Path 75438" d="M154.777,641.237a2.511,2.511,0,1,1-2.6-2.487,2.519,2.519,0,0,1,2.6,2.487m-2.519-1.4a1.425,1.425,0,1,0,1.433,1.41,1.432,1.432,0,0,0-1.433-1.41" transform="translate(-143.672 -612.802)" fill="#fff"/>
        <path id="Path_75439" data-name="Path 75439" d="M477.587,404.86l-.722.725a14.014,14.014,0,0,0-1.287-.669,4.385,4.385,0,1,0,2.817,4.607c.034-.314.009-.634.018-.951a.289.289,0,0,1,.057-.179c.266-.278.54-.549.816-.826a5.374,5.374,0,0,1-2.135,5.958,5.477,5.477,0,1,1,.435-8.665" transform="translate(-449.538 -387.153)" fill="#fff"/>
        <path id="Path_75440" data-name="Path 75440" d="M525.411,449.837l4.993-4.956.739.795-5.76,5.673-2.868-2.951.721-.714,2.175,2.153" transform="translate(-501.289 -426.809)" fill="#fff"/>
      </g>
    </g>
    <g id="Group_51400" data-name="Group 51400" transform="translate(721.881 2349.922)">
      <g id="Group_51399" data-name="Group 51399" clip-path="url(#clip-path-4)">
        <path id="Path_75441" data-name="Path 75441" d="M34.482,40.959a8.187,8.187,0,0,1,4.244,2.825,7.268,7.268,0,0,1,4.319-.943c0-.078.007-.129-.01-.142a6.62,6.62,0,0,1-2.664-5.686q.016-9.034,0-18.068v-.706c-.749,0-1.447.04-2.137-.017a1.517,1.517,0,0,1-.953-.389c-.3-.346-.006-.716.226-1.042q2.512-3.518,5.014-7.044c.57-.8,1-.8,1.566-.005q2.526,3.545,5.047,7.093c.218.307.509.662.2.989a1.571,1.571,0,0,1-.95.4c-.693.059-1.394.018-2.129.018v12.97a5.617,5.617,0,0,1,4.9,4.541,6.427,6.427,0,0,1-2.507,7.025c.712.057,1.383.07,2.041.17a6.73,6.73,0,0,1,5.656,6.54c.009,1.988,0,3.976,0,5.964,0,.736-.2.94-.931.94q-27.242,0-54.485,0c-.734,0-.933-.2-.934-.936C0,53.465,0,51.477,0,49.489A6.787,6.787,0,0,1,6.64,42.833c.328,0,.657,0,1.153,0a6.65,6.65,0,0,1-.278-10.655c-.61-.526-.49-1.244-.492-1.935q-.005-1.666,0-3.333a1.5,1.5,0,0,1,1.312-1.661c.774-.187,1.551-.373,2.335-.507.347-.06.441-.263.6-.523a1.51,1.51,0,0,0-.2-1.983,11.926,11.926,0,0,1-.9-1.365,1.489,1.489,0,0,1,.205-2.107q1.43-1.463,2.893-2.895a1.474,1.474,0,0,1,2.059-.2c.661.411,1.32.828,1.96,1.27a.939.939,0,0,0,.853.084A1.551,1.551,0,0,0,19.4,15.463a16.524,16.524,0,0,1,.36-1.711,1.435,1.435,0,0,1,1.495-1.213q2.134-.019,4.267,0a1.422,1.422,0,0,1,1.5,1.2c.195.772.382,1.549.509,2.334a.787.787,0,0,0,.626.721c.328.1.639.252,1.036.414V9.078c-.68,0-1.377.038-2.067-.016a1.534,1.534,0,0,1-.961-.368c-.3-.341-.016-.719.217-1.045Q28.916,4.107,31.439.561c.53-.742.974-.749,1.5-.014,1.709,2.393,3.418,4.786,5.1,7.2a1.063,1.063,0,0,1,.19.877,1.183,1.183,0,0,1-.844.436c-.731.061-1.471.02-2.246.02-.017.227-.041.4-.042.563,0,2.436-.012,4.873.013,7.309a1.438,1.438,0,0,0,.331.8c.3.379.685.691,1.019,1.046a1.481,1.481,0,0,1,.219,1.97c-.426.7-.887,1.374-1.326,2.064a1.531,1.531,0,0,0,.789,1.9c.815.185,1.635.349,2.445.552a1.4,1.4,0,0,1,1.171,1.464q.022,2.163,0,4.326a1.416,1.416,0,0,1-1.182,1.458c-.811.2-1.636.343-2.442.561a1.142,1.142,0,0,0-.573.456,1.5,1.5,0,0,0,.17,2.035,9.123,9.123,0,0,1,.8,1.218,1.6,1.6,0,0,1-.244,2.384c-.564.564-1.137,1.118-1.805,1.774M15.088,33.933c.064.159.12.321.192.477a6.776,6.776,0,0,1,.075,5.813,6.856,6.856,0,0,1-2.083,2.568,7.778,7.778,0,0,1,4.358.99,8.236,8.236,0,0,1,7.666-3.04c-.687-.682-1.336-1.344-2.009-1.982a.964.964,0,0,0-.544-.244A9.561,9.561,0,0,1,15.413,34.3a3.5,3.5,0,0,0-.336-.358,5.686,5.686,0,0,0-.226-.579,9.458,9.458,0,0,1-.882-6.462,9.634,9.634,0,0,1,19.059,1.857,3.247,3.247,0,0,0,.454,1.626,21.028,21.028,0,0,1,.918,2.077c1.056-1.17,2.66-.8,3.931-1.392V26.679a13.512,13.512,0,0,0-1.609-.341A2.852,2.852,0,0,1,33.907,24.1a2.079,2.079,0,0,1,.167-1.923c.506-.733.972-1.493,1.438-2.215a.739.739,0,0,0-.075-.156c-.616-.623-1.23-1.25-1.854-1.865-.386-.381-.76-1-1.192-1.045s-.931.465-1.382.762c-2.15,1.416-1.753,1.056-3.661.358A1.684,1.684,0,0,1,26.2,16.659c-.15-.762-.3-1.526-.492-2.278-.044-.171-.259-.421-.4-.424-1.361-.032-2.723-.019-4.127-.019a14.97,14.97,0,0,0-.368,1.722,2.771,2.771,0,0,1-2.137,2.7,2.164,2.164,0,0,1-2.079-.176c-.707-.5-1.455-.945-2.156-1.4a1.141,1.141,0,0,0-.163.1c-.622.618-1.246,1.234-1.862,1.857-.369.373-.983.734-1.019,1.142-.039.438.449.938.742,1.389,1.343,2.068,1.123,1.71.355,3.718a1.664,1.664,0,0,1-1.319,1.1c-.762.152-1.518.331-2.282.474a.488.488,0,0,0-.472.583c.025,1.052.009,2.1.009,3.156,0,.845.146,1,.976,1.028a1.891,1.891,0,0,0,.287-.045,5.035,5.035,0,0,1,4.33,1.426c.386.373.71.811,1.063,1.219m23.85,21.033v-.543c0-1.89,0-3.779,0-5.669a6.448,6.448,0,0,0-6.6-6.623q-4.177-.023-8.355,0a6.441,6.441,0,0,0-6.565,6.595c-.007,1.909,0,3.818,0,5.727,0,.168.022.335.033.5h3.926v-.665q0-2.893,0-5.785c0-.709.2-1,.688-1,.506-.007.724.3.724,1.035q0,2.893,0,5.785v.635H33.564V54.29c0-1.967,0-3.935,0-5.9,0-.407.1-.743.527-.867.508-.146.884.2.887.839.007,1.987,0,3.974,0,5.961v.646Zm-33.693,0c0-.257,0-.467,0-.676,0-1.637,0-3.273,0-4.91a.7.7,0,0,1,.677-.793c.4-.044.723.314.731.8.013.779,0,1.559,0,2.338,0,1.066,0,2.132,0,3.226h7.619c0-1.134,0-2.24,0-3.345,0-.76-.012-1.52.007-2.279a.686.686,0,0,1,.736-.738.668.668,0,0,1,.675.73c0,.175.006.351.006.526,0,1.539,0,3.078.005,4.617a2.744,2.744,0,0,0,.1.524l.2-.027c0-.512-.025-1.025,0-1.535.161-2.827-.525-5.732.824-8.443a4.855,4.855,0,0,0-2.589-.741c-2.513-.022-5.026-.042-7.538,0a5.19,5.19,0,0,0-5.2,4.595A48.057,48.057,0,0,0,1.4,53.69c-.007.421,0,.843,0,1.281Zm49.694-.012c0-1.923.085-3.8-.02-5.659a5.3,5.3,0,0,0-5.347-5.049c-2.473-.037-4.947-.023-7.421,0a4.647,4.647,0,0,0-2.647.766,8.541,8.541,0,0,1,.846,4.16c-.034,1.733-.009,3.468-.007,5.2,0,.2.02.4.031.6l.179.019a2.991,2.991,0,0,0,.1-.533q.012-2.513,0-5.026c0-.48.2-.8.689-.846.417-.041.723.336.733.87.01.487,0,.974,0,1.461v4.037H49.7V54.3c0-1.617,0-3.234,0-4.851a.745.745,0,0,1,.687-.855c.426-.052.721.3.726.857.009,1.091,0,2.182,0,3.273,0,.735,0,1.47,0,2.236ZM28.2,28.54a4.186,4.186,0,0,0-2.47.755,6.21,6.21,0,0,0-.272,9.67,4.371,4.371,0,0,0,5.844-.357,6.306,6.306,0,0,0,.351-8.394A4.506,4.506,0,0,0,28.2,28.54M39.263,16.786H40.64c1,0,1.189.194,1.189,1.2q0,7.216,0,14.432v.563L44.8,31.136v-.522q0-6.31,0-12.621c0-1.034.176-1.206,1.233-1.207h1.328L43.309,11.1l-4.046,5.687M41.83,37.428a4.94,4.94,0,0,0,1.069,3.2,3.7,3.7,0,0,0,5.936.051,5.321,5.321,0,0,0-.073-6.631,3.682,3.682,0,0,0-5.747,0,4.963,4.963,0,0,0-1.185,3.388m-27.3-.183a4.856,4.856,0,0,0-1.16-3.172,3.683,3.683,0,0,0-5.709-.107,5.32,5.32,0,0,0-.094,6.765,3.662,3.662,0,0,0,5.628.186,5.024,5.024,0,0,0,1.334-3.672M28.376,27.035a5.314,5.314,0,0,0-10.3,2.05c.085,2.311,1.874,4.623,3.743,4.836.617-4.358,2.236-6.068,6.552-6.887m3.159,1.094A8.2,8.2,0,0,0,15.2,29.554c.23,3.731,4.021,7.688,7.1,7.393a3.377,3.377,0,0,1-.113-.444,1.463,1.463,0,0,0-1.176-1.308,6.7,6.7,0,0,1-4.278-7.455,6.759,6.759,0,0,1,13.117-.845c.063.194.133.449.282.539.442.267.925.465,1.4.695M28.143,7.642H29.47c1.071,0,1.238.17,1.239,1.264q0,3.245,0,6.489v.753c1-.717,1.931-1.28,2.975-.132,0-2.56,0-4.937,0-7.313,0-.838.226-1.057,1.079-1.06.452,0,.9,0,1.478,0L32.193,1.955l-4.05,5.687m7.41,30.265L34.321,36a7.37,7.37,0,0,1-3.5,4.724c.547,0,.908.017,1.266-.005.261-.016.6.007.764-.143.922-.86,1.8-1.767,2.706-2.669" transform="translate(0 0)" fill="#fff"/>
      </g>
    </g>
    <g id="Group_51402" data-name="Group 51402" transform="translate(717.766 2468.419)">
      <g id="Group_51401" data-name="Group 51401" clip-path="url(#clip-path-5)">
        <path id="Path_75442" data-name="Path 75442" d="M69.008,70.806H33.329c-.037-.026-.072-.071-.112-.075a27.319,27.319,0,0,1-7.328-1.715.486.486,0,0,0-.448.106,4.172,4.172,0,0,1-2.347,1.683H2.766A4.148,4.148,0,0,1,0,68.04V66.519l1.492-2.493A3.476,3.476,0,0,1,1.478,61.1a.6.6,0,0,0-.1-.465C.929,59.964.461,59.3,0,58.636V57.115l.8-1.671L0,53.934v-1.66l.808-1.516L0,49.094V47.573c.789-2.158,2.395-2.865,4.6-2.773,2.345.1,4.7,0,7.047.039.582.01.782-.188.924-.715a33,33,0,0,1,10.507-16.67c.514-.445,1.045-.871,1.564-1.3-1.617-2.068-1.34-4.056.689-5.614a.854.854,0,0,0,.143-.734c-.932-3.387-1.9-6.764-2.839-10.15A4.651,4.651,0,0,1,25.98,3.7a12.017,12.017,0,0,1,2.606-.174,1.233,1.233,0,0,0,1.027-.5,10.324,10.324,0,0,1,2.1-1.961A14.767,14.767,0,0,1,34.3,0h2.213c.149.05.295.112.447.149a5.813,5.813,0,0,1,3.566,2.083,3.178,3.178,0,0,0,3.009,1.322,4.668,4.668,0,0,1,4.6,6.229q-1.389,5.012-2.828,10.011a.65.65,0,0,0,.322.882,3.17,3.17,0,0,1,1.521,3.248,13.234,13.234,0,0,1-.83,2.359c-.06-.065-.02-.009.032.032A33.05,33.05,0,0,1,58.3,44.322c.122.457.341.506.723.5,2.925-.009,5.851.037,8.775-.023a2.825,2.825,0,0,1,3,1.8v22.4a2.931,2.931,0,0,1-1.8,1.8M14.823,44.821c2.519,0,4.937,0,7.355,0a3.529,3.529,0,0,1,3.33,1.829,3.439,3.439,0,0,1-.193,3.783.66.66,0,0,0-.016.586,3.5,3.5,0,0,1,.015,4.139.6.6,0,0,0-.05.532,3.534,3.534,0,0,1,.28,3.837c.22.2.411.368.588.546a3.543,3.543,0,0,1-.022,4.976c-.716.712-.608,1.218.362,1.609a23.289,23.289,0,0,0,10.734,1.69A21.7,21.7,0,0,0,51.6,61.721a17.1,17.1,0,0,0,5-11.713,22.364,22.364,0,0,0-2.536-10.421,29.286,29.286,0,0,0-10.1-12.01,2.7,2.7,0,0,0-1.4-.413c-4.539-.03-9.079.019-13.617-.044a4.506,4.506,0,0,0-2.909.977A30.93,30.93,0,0,0,17.173,38.72a26.05,26.05,0,0,0-2.35,6.1M42.482,5.912c0,1.01,0,1.926,0,2.841,0,.945.008,1.889,0,2.834-.011.886-.453,1.4-1.175,1.4s-1.186-.543-1.19-1.4c-.007-1.474,0-2.949,0-4.423A4.709,4.709,0,1,0,30.7,7.18c-.007,1.5.006,3-.005,4.493a1.207,1.207,0,0,1-1.2,1.316,1.167,1.167,0,0,1-1.158-1.276c-.019-.944-.007-1.889-.007-2.834,0-.961,0-1.921,0-2.952-.364,0-.7,0-1.042,0a2.317,2.317,0,0,0-2.366,3.057c.977,3.543,2.007,7.071,2.995,10.611a.533.533,0,0,0,.618.468q6.877-.015,13.754,0a.531.531,0,0,0,.615-.472c.408-1.531.854-3.052,1.286-4.577.558-1.966,1.122-3.931,1.671-5.9a2.328,2.328,0,0,0-1.594-3.1,9.937,9.937,0,0,0-1.778-.1M68.425,53.03A7.292,7.292,0,0,1,62.6,47.22c-1.167,0-2.271,0-3.376,0a1.426,1.426,0,0,0-.269.053c.633,9.868-4.088,16.571-12.534,21.148H62.612a7.264,7.264,0,0,1,5.813-5.815ZM12.985,68.449h5.667c1.2,0,2.4.015,3.594-.005.942-.016,1.471-.637,1.288-1.459-.132-.591-.577-.887-1.37-.887q-9.192,0-18.384,0a2.788,2.788,0,0,0-.345.008,1.176,1.176,0,0,0-1.059,1.1,1.109,1.109,0,0,0,.874,1.173A2.951,2.951,0,0,0,4,68.447q4.492.007,8.984,0m1.166-7.061c-3.11,0-6.219,0-9.329,0a1.112,1.112,0,0,0-1.245,1.094,1.148,1.148,0,0,0,1.13,1.227,6.169,6.169,0,0,0,.69.014H23.156c.138,0,.277.006.414-.008a1.186,1.186,0,0,0,1.19-1.185,1.146,1.146,0,0,0-1.281-1.142c-3.11-.007-6.219,0-9.329,0m-1.19-11.853h5.734c1.244,0,2.487.012,3.73-.009a1.091,1.091,0,0,0,1.139-1.057,1.1,1.1,0,0,0-1.038-1.225,5.894,5.894,0,0,0-.758-.027q-7.737,0-15.475,0c-.852,0-1.709-.051-2.554.024a1.709,1.709,0,0,0-1.114.51,1.445,1.445,0,0,0-.1,1.14c.156.513.646.65,1.176.648,3.086-.009,6.171,0,9.257,0m0,7.139H5.29c-.6,0-1.2-.015-1.8.01a1.14,1.14,0,0,0-.1,2.274,4.094,4.094,0,0,0,.62.033q8.981,0,17.961,0a3.665,3.665,0,0,0,.619-.038,1.1,1.1,0,0,0,.931-1.42,1.157,1.157,0,0,0-1.312-.863c-3.086.01-6.171,0-9.257,0m.03-2.418H21.9c1.153,0,1.675-.366,1.667-1.164s-.527-1.139-1.691-1.139q-8.911,0-17.823,0a5.275,5.275,0,0,0-.689.024,1.135,1.135,0,0,0,.024,2.255,6.477,6.477,0,0,0,.759.023h8.842M35.4,24.765h7.943c.962-.006,1.47-.407,1.472-1.162,0-.738-.532-1.182-1.47-1.182q-7.943-.006-15.887,0c-.939,0-1.471.441-1.471,1.181,0,.756.507,1.162,1.469,1.162q3.972,0,7.943,0m29.746,22.5c.219,1.4,1.947,3.152,3.265,3.188V47.264Zm3.244,21.157V65.154c-1.433.17-3.258,2.108-3.192,3.266Z" transform="translate(-0.403 -0.403)" fill="#fff"/>
        <path id="Path_75443" data-name="Path 75443" d="M217.828,275.866v-6.693a18.2,18.2,0,0,1-2.8-1.772,5.847,5.847,0,0,1,2.15-9.839,1.249,1.249,0,0,0,.85-.755,1.635,1.635,0,0,1,1.044-.712.932.932,0,0,1,1.1.739.924.924,0,0,0,.722.7,5.918,5.918,0,0,1,4.1,5.282,1.287,1.287,0,0,1-1.07,1.52c-.685.084-1.254-.421-1.321-1.276a3.61,3.61,0,0,0-2.258-3.2v6.935a6.1,6.1,0,0,1,3.136,1.843,5.894,5.894,0,0,1-2.555,9.549,1.177,1.177,0,0,0-.791.71,1.657,1.657,0,0,1-1.093.75.947.947,0,0,1-1.064-.791c-.088-.4-.322-.534-.67-.647a5.931,5.931,0,0,1-4.141-5.255c-.065-.849.346-1.457,1.035-1.534.771-.085,1.28.366,1.36,1.291a3.545,3.545,0,0,0,2.27,3.158m2.5-.071a3.328,3.328,0,0,0,2.253-3.368,3.222,3.222,0,0,0-2.253-3.03Zm-2.486-15.87a3.363,3.363,0,0,0-2.25,3.605,3.109,3.109,0,0,0,2.25,2.772Z" transform="translate(-184.076 -221.061)" fill="#fff"/>
        <path id="Path_75444" data-name="Path 75444" d="M435.093,396.039a3.548,3.548,0,1,1,3.543,3.515,3.58,3.58,0,0,1-3.543-3.515m3.546,1.105a1.13,1.13,0,0,0,1.157-1.11,1.113,1.113,0,0,0-1.139-1.186,1.148,1.148,0,1,0-.019,2.3" transform="translate(-375.326 -338.571)" fill="#fff"/>
      </g>
    </g>
    <g id="Group_51404" data-name="Group 51404" transform="translate(705.766 2631.42)">
      <g id="Group_51403" data-name="Group 51403" clip-path="url(#clip-path-6)">
        <path id="Path_75445" data-name="Path 75445" d="M22.893,43.574H21.872c-.414-.258-.85-.489-1.233-.786a.561.561,0,0,0-.7-.113A2.147,2.147,0,0,1,17.084,41.6a6.635,6.635,0,0,1-.255-.821c-.044-.01-.1-.024-.152-.035a2.188,2.188,0,0,1-1.89-1.861.446.446,0,0,0-.3-.253,2.238,2.238,0,0,1-1.814-1.848.434.434,0,0,0-.281-.267,2.216,2.216,0,0,1-1.835-1.87.489.489,0,0,0-.167-.3c-.633-.4-1.277-.776-1.866-1.129-.167.2-.3.5-.451.5a5.13,5.13,0,0,1-1.589-.135c-1.407-.42-2.79-.922-4.186-1.38-.762-.25-1.532-.477-2.3-.715V16.851A5.746,5.746,0,0,1,4.428,18.1c.011.009.026.013.036.022a2.539,2.539,0,0,0,2.89.384,3.927,3.927,0,0,0,.373-.212,1.613,1.613,0,0,0-.258-.4,4.667,4.667,0,0,1-1.761-3.052,17.292,17.292,0,0,1-.083-2.2A4.875,4.875,0,0,1,9.618,7.825c.355-.068.721-.082,1.128-.126-.191-.464-.349-.916-.562-1.341a.525.525,0,0,1,.129-.728c.89-.854,1.754-1.736,2.623-2.611.266-.268.517-.552.772-.825.7.455,1.322.874,1.963,1.265a.632.632,0,0,0,.484.058c.726-.275,1.442-.577,2.154-.885a.5.5,0,0,0,.279-.265c.174-.785.321-1.577.476-2.366H24.51c.155.789.3,1.581.478,2.365.025.111.194.218.32.273.673.293,1.362.551,2.027.859a.536.536,0,0,0,.611-.049c.617-.42,1.25-.817,1.892-1.234,1.2,1.2,2.387,2.383,3.555,3.58a.512.512,0,0,1,.036.438c-.184.494-.4.976-.625,1.5a4.848,4.848,0,0,1,4.208,2.121,6.1,6.1,0,0,1,.958,3.71,5.237,5.237,0,0,1-1.95,4.408.477.477,0,0,0-.154.351c0,.063.184.138.3.168a17.269,17.269,0,0,1,2.493.67,2.036,2.036,0,0,0,2.176-.281,3.667,3.667,0,0,1,2.743-.58V28.6a.815.815,0,0,0-.16.043Q37.3,31.69,31.194,34.757a.7.7,0,0,0-.278.49A2.116,2.116,0,0,1,29.145,37.2a.4.4,0,0,0-.375.369,2.078,2.078,0,0,1-1.763,1.762c-.111.021-.277.124-.293.213a2.2,2.2,0,0,1-2.1,1.944,2.3,2.3,0,0,1-1.718,2.09M42.149,19.8c-.2.1-.351.178-.5.255q-6.012,3.163-12.02,6.335a2.219,2.219,0,0,1-1.413.314,7.637,7.637,0,0,1-.91-.189q-1.8-.5-3.588-1.026a3.275,3.275,0,0,0-2.442.16q-1.9.936-3.793,1.9a1.045,1.045,0,0,0-.481,1.467.963.963,0,0,0,1.432.272c.757-.445,1.507-.9,2.261-1.351a2.855,2.855,0,0,1,3.735.341q2.808,2.507,5.593,5.04a.493.493,0,0,0,.66.1q5.538-2.79,11.093-5.548a.579.579,0,0,0,.377-.612c-.013-2.326-.007-4.651-.007-6.977ZM20.22,24.577c-.177-.066-.255-.1-.335-.126A7.236,7.236,0,0,0,16.3,23.96c-1.767.314-3.514.735-5.273,1.095a.466.466,0,0,0-.4.4c-.206.764-.435,1.522-.651,2.283-.378,1.329-.754,2.659-1.135,4l2.129,1.277c.522-.524.994-1.057,1.526-1.52A2.162,2.162,0,0,1,16.1,32.689a.462.462,0,0,0,.429.409A2.113,2.113,0,0,1,18.2,34.676a4.434,4.434,0,0,1,.088.444,2.239,2.239,0,0,1,2.075,1.954c.013.081.161.179.26.2a2.854,2.854,0,0,1,1.528.986,13.173,13.173,0,0,0,1.966,1.664.742.742,0,0,0,1.142-.4.821.821,0,0,0-.373-.882q-1.358-1.127-2.713-2.258c-.277-.231-.552-.466-.839-.708l.912-1.079c.813.677,1.585,1.321,2.359,1.964.491.408.971.829,1.479,1.214a.837.837,0,0,0,1.152-.111.728.728,0,0,0-.189-1.078c-.319-.281-.65-.548-.977-.821l-2.626-2.193.9-1.085c.19.156.353.288.514.422q1.584,1.321,3.169,2.641a.9.9,0,0,0,1.295.019c.3-.357.214-.791-.254-1.213q-2.764-2.492-5.531-4.981a1.535,1.535,0,0,0-2.115-.214q-1.168.695-2.332,1.4a2.316,2.316,0,0,1-1.877.278,2.214,2.214,0,0,1-1.707-1.86,2.284,2.284,0,0,1,1.1-2.555c.794-.46,1.636-.838,2.457-1.253.362-.183.722-.369,1.157-.591M14.8,22.7a.381.381,0,0,0,.1.03,2.208,2.208,0,0,0,.251-.035,9.167,9.167,0,0,1,4.694.259c1.2.371,2.412.691,3.621,1.028q2.226.62,4.456,1.227a3.614,3.614,0,0,0,.5.08c.269.034.384-.076.379-.359-.013-.766.011-1.532-.009-2.3A2.078,2.078,0,0,0,27.078,20.5c-1.151-.291-2.3-.583-3.458-.855-.323-.076-.484-.19-.453-.56a10.717,10.717,0,0,0,0-1.4.547.547,0,0,1,.318-.574,3.285,3.285,0,0,0,1.756-2.565,9.462,9.462,0,0,0-.061-2.5,3.476,3.476,0,0,0-3.269-2.889,3.389,3.389,0,0,0-3.483,2.6,10.608,10.608,0,0,0-.131,2.367,2.865,2.865,0,0,0,1.221,2.541,1.8,1.8,0,0,1,.881,2,1.023,1.023,0,0,0,0,.3c.073.428-.089.611-.531.706-1.147.245-2.281.55-3.418.842A2.055,2.055,0,0,0,14.8,22.7m15.4,1.781,7.62-4.015c-1.03-.341-2.016-.593-3.006-.826-.273-.065-.406-.168-.387-.48a14.143,14.143,0,0,0,0-1.445.583.583,0,0,1,.332-.609,3.225,3.225,0,0,0,1.7-2.411,11.86,11.86,0,0,0,.045-2.246,3.6,3.6,0,0,0-2.984-3.251A3.384,3.384,0,0,0,29.7,11.7a9.621,9.621,0,0,0-.167,2.1,3.552,3.552,0,0,0,1.847,3.353.656.656,0,0,1,.254.458c.033.48-.016.965.021,1.445.029.375-.114.518-.464.591-.64.134-1.27.31-1.958.482a3.4,3.4,0,0,1,.953,2.026c.049.733.011,1.473.011,2.315m-15.85-4.343c-.7-.174-1.307-.348-1.929-.473-.363-.073-.533-.206-.5-.609a8.845,8.845,0,0,0,0-1.317.6.6,0,0,1,.347-.639,3.164,3.164,0,0,0,1.548-1.845,6.006,6.006,0,0,0-.063-3.839,3.449,3.449,0,0,0-6.624.542,12.309,12.309,0,0,0-.084,1.778A3.563,3.563,0,0,0,8.9,17.162a.561.561,0,0,1,.235.392c.026.566.026,1.134,0,1.7a.466.466,0,0,1-.265.327c-.4.136-.809.225-1.277.347.179.11.3.185.416.256.989.579,1.976,1.164,2.971,1.732a.442.442,0,0,1,.267.466c-.022.38-.006.762-.006,1.171.648-.14,1.283-.268,1.911-.422a.342.342,0,0,0,.2-.259,3.742,3.742,0,0,1,1-2.741m2.477-6.761c.037-.507.033-1.022.12-1.521a4.68,4.68,0,0,1,3.216-3.833A4.7,4.7,0,0,1,25.09,9.054c1.9,1.659,1.959,5,1.231,6.89A4.822,4.822,0,0,1,24.862,17.9a1.687,1.687,0,0,0-.262.393,1.935,1.935,0,0,0,.407.225c.7.189,1.394.368,2.1.53a1.339,1.339,0,0,0,.583.005c.743-.173,1.481-.368,2.219-.565.109-.029.295-.127.288-.168a.769.769,0,0,0-.185-.381,10.593,10.593,0,0,1-.831-.846c-1.43-1.957-1.3-4.1-.706-6.291a.8.8,0,0,0,.013-.538,7.363,7.363,0,0,0-5.742-3.847,7.512,7.512,0,0,0-7.617,3.762.725.725,0,0,0-.056.705,7.263,7.263,0,0,1-.088,5.266,4.7,4.7,0,0,1-1.407,1.786.577.577,0,0,0-.193.373c0,.058.2.154.319.186.723.195,1.448.386,2.177.555a1.326,1.326,0,0,0,.583,0c.743-.174,1.481-.369,2.218-.567.106-.029.277-.12.276-.18a.582.582,0,0,0-.17-.345c-.262-.277-.57-.514-.812-.807a5.381,5.381,0,0,1-1.152-3.778M14.057,9.165A9.189,9.189,0,0,1,29.482,9.1a3.708,3.708,0,0,0,2.253-2.5.129.129,0,0,1,.015-.04.363.363,0,0,0-.086-.518c-.611-.591-1.214-1.192-1.8-1.806-.182-.19-.312-.165-.5-.034-.479.328-.963.65-1.462.946a.52.52,0,0,1-.445.017,11.407,11.407,0,0,0-3.359-1.383.414.414,0,0,1-.357-.393c-.119-.651-.274-1.295-.416-1.951H20.258c-.139.633-.3,1.248-.4,1.874a.517.517,0,0,1-.462.5,9.849,9.849,0,0,0-3.158,1.309.526.526,0,0,1-.679-.028c-.532-.364-1.079-.707-1.635-1.069-.707.712-1.382,1.379-2.035,2.067a.505.505,0,0,0-.07.433c.171.478.379.944.583,1.41a.624.624,0,0,0,.2.257c.474.325.958.638,1.458.968M1.426,18.26v.6q0,3.805,0,7.611c0,1.2-.006,2.409.009,3.614a.492.492,0,0,0,.2.386c.911.33,1.834.628,2.784.946L6.964,21.223C5.3,20.256,3.681,19.3,2.048,18.37a2.087,2.087,0,0,0-.622-.111M7.193,32.335c.35-1.229.682-2.4,1.015-3.563q.768-2.69,1.536-5.38c.058-.205.2-.434-.09-.6-.452-.258-.9-.522-1.412-.818L5.768,31.862l1.425.473m7.652.729a3.286,3.286,0,0,0-.547-.626.686.686,0,0,0-.89.153c-.391.369-.772.751-1.145,1.138a.783.783,0,1,0,1.1,1.1c.37-.35.737-.706,1.078-1.084a4.221,4.221,0,0,0,.4-.676m2.106,2.122a3.247,3.247,0,0,0-.529-.631.66.66,0,0,0-.86.1q-.623.576-1.207,1.194a.779.779,0,0,0-.033,1.167.791.791,0,0,0,1.137-.077c.379-.362.754-.729,1.107-1.115a4.059,4.059,0,0,0,.385-.642m-.1,4.19c.214-.057.354-.053.424-.12.539-.517,1.094-1.022,1.58-1.586a.638.638,0,0,0-.14-.883.665.665,0,0,0-.927-.091,11.976,11.976,0,0,0-1.458,1.473.9.9,0,0,0-.022.774c.09.2.383.314.542.433m2.283,2.073a.659.659,0,0,0,.288-.1c.52-.5,1.053-.986,1.522-1.53a.746.746,0,0,0-1.011-1.031,10.976,10.976,0,0,0-1.525,1.523c-.365.458.065,1.145.727,1.142m2.227.08c.384.4.772.808,1.354.551a.891.891,0,0,0,.423-.646c.037-.57-.507-.727-.8-1.042l-.98,1.137" transform="translate(0.213 0.213)" fill="#fff"/>
      </g>
    </g>
  </g>
</svg>
