<svg id="Group_51451" data-name="Group 51451" xmlns="http://www.w3.org/2000/svg" xmlns:xlink="http://www.w3.org/1999/xlink" width="120" height="120" viewBox="0 0 120 120">
  <defs>
    <clipPath id="clip-path">
      <rect id="Rectangle_19943" data-name="Rectangle 19943" width="73.402" height="70.863" fill="#fff"/>
    </clipPath>
  </defs>
  <path id="Path_171" data-name="Path 171" d="M120,210a60,60,0,1,1-60-60,60,60,0,0,1,60,60" transform="translate(0 -150)" fill="#239f79"/>
  <g id="Group_51443" data-name="Group 51443" transform="translate(24.746 24.568)">
    <g id="Group_51432" data-name="Group 51432" clip-path="url(#clip-path)">
      <path id="Path_75478" data-name="Path 75478" d="M8.064,67.559v3.354H18.9v-2.7c0-1.377.009-2.755,0-4.132-.006-.629.133-1.138.867-1.194.6-.045.915.381.919,1.219.009,1.989,0,3.979,0,5.968v.851h1.9c0-.909,0-1.769,0-2.629,0-1.428.011-2.856,0-4.284-.007-.619.181-1.068.858-1.123.578-.047.94.387.943,1.134.011,1.989,0,3.978,0,5.968v.931h1.881V66.065c0-.689.014-1.377,0-2.066-.016-.625.2-1.06.87-1.117.568-.048.93.4.934,1.14.01,2.015,0,4.03,0,6.044,0,.273,0,.546,0,.9,1.841,0,3.593,0,5.345,0a2.485,2.485,0,0,1,1.055.052,1.51,1.51,0,0,1,.772.87c.086.492-.287.841-.84.869-.229.011-.459.007-.688.007H8.033c0,.825-.005,1.559,0,2.292.006.613-.213,1.064-.876,1.124-.578.053-.919-.383-.927-1.131-.008-.71,0-1.42,0-2.123a3.5,3.5,0,0,0-3.463,3.909,3.658,3.658,0,0,0,3.711,3.273c1.785.02,3.57,0,5.356,0a4.872,4.872,0,0,1,.535.006c.558.063.913.361.887.943a.823.823,0,0,1-.894.85c-2.168,0-4.341.087-6.5-.039a5.438,5.438,0,0,1-.3-10.79c.584-.079.7-.292.682-.818-.039-.886-.011-1.775-.011-2.64C2.407,66.651.87,64.776.261,60.688A26.8,26.8,0,0,1,1.569,48.114,57.475,57.475,0,0,1,6.125,37.952c.6-1.066,1.418-1.084,1.978,0,1.039,2.012,2.019,4.055,3.023,6.086.11.224.211.452.272.584,1.457-1.536,2.825-3.151,4.371-4.572a26.022,26.022,0,0,1,11.119-6.006,1.367,1.367,0,0,0,1.09-1.059,54.3,54.3,0,0,1,4.667-10.526c.559-.985,1.349-.994,1.9,0a47.663,47.663,0,0,1,5.866,15.335,21.4,21.4,0,0,1-.382,9.325c-.76,2.758-2.387,4.644-5.519,5.012q0,.977,0,1.956c0,.944.008,1.887-.006,2.831-.009.586-.267,1-.909.995s-.893-.4-.892-1c0-1.3,0-2.6,0-3.9,0-.275,0-.549,0-.844-.191-.041-.31-.074-.431-.092a5.706,5.706,0,0,1-4.638-3.652,18.4,18.4,0,0,1-1.1-8.488c.087-1.337.343-2.663.53-4.054a24.734,24.734,0,0,0-5.856,2.445,25.294,25.294,0,0,0-8.606,8,1.188,1.188,0,0,0-.145,1.192,26.748,26.748,0,0,1,1.716,11.172,22.7,22.7,0,0,1-.516,3.471c-.716,2.933-2.319,5.027-5.6,5.4M34.516,50.39a13.523,13.523,0,0,0,1.537-.574,4.8,4.8,0,0,0,2.285-3.292,19.821,19.821,0,0,0,.419-7.661A37.974,37.974,0,0,0,35.4,28.116c-.541-1.2-1.143-2.363-1.717-3.543l-.244-.008c-.94,2.109-1.95,4.19-2.805,6.333-1.7,4.253-2.808,8.621-2.218,13.267a10.307,10.307,0,0,0,1.2,4.149,3.837,3.837,0,0,0,3.094,1.969c0-1.025.012-1.988,0-2.951-.011-.622.191-1.061.868-1.113.576-.045.93.384.94,1.129.013.94,0,1.881,0,3.043M8.033,65.691a3.368,3.368,0,0,0,.454-.03,4.332,4.332,0,0,0,3.247-3.32,19.363,19.363,0,0,0,.4-9A45.4,45.4,0,0,0,7.328,40.284a2.693,2.693,0,0,0-.333-.372c-.976,2.191-1.974,4.252-2.822,6.374-1.71,4.274-2.829,8.663-2.231,13.333a10.1,10.1,0,0,0,1.249,4.21,3.838,3.838,0,0,0,3.04,1.886c0-1.009.017-1.949-.006-2.887-.016-.644.169-1.125.87-1.2.562-.063.932.44.937,1.223.007.938,0,1.875,0,2.845" transform="translate(0 -18.395)" fill="#fff"/>
      <path id="Path_75479" data-name="Path 75479" d="M204.281,276.319c-1.119-1.018-1.173-1.018-2.06-.165-2.832,2.721-5.654,5.452-8.5,8.157a3.787,3.787,0,0,1-4.9.358,3.65,3.65,0,0,1-.132-5.583c2.416-2.38,4.883-4.708,7.33-7.057,1.619-1.554,3.259-3.087,4.852-4.667a5.03,5.03,0,0,1,3.631-1.476c4.307-.12,8.612-.332,12.916-.55,2.1-.107,2.192-.066,2.155,2q-.091,4.972-.186,9.944c-.021,1.115-.233,1.341-1.326,1.418-.254.018-.509.028-.764.044a4.6,4.6,0,0,0-3.188,1.5c-3.723,3.775-7.575,7.423-11.382,11.115q-1.263,1.225-2.549,2.427A4.178,4.178,0,0,1,197.6,295c-1.626.125-3.249.335-4.877.373-4.36.1-8.721.135-13.081.19-2.373.03-3.964-1.3-4.03-3.345a3.89,3.89,0,0,1,3.835-4.113c3.795-.188,7.59-.37,11.388-.474a3.753,3.753,0,0,0,2.747-1.17c3.379-3.328,6.826-6.587,10.253-9.867a2.746,2.746,0,0,1,.443-.276m13.347-9.16c-.194,0-.372-.007-.549,0-4.356.184-8.714.344-13.067.587a2.889,2.889,0,0,0-1.665.765c-4.08,3.851-8.118,7.747-12.165,11.632a4.1,4.1,0,0,0-.514.564,1.792,1.792,0,0,0,2.544,2.5,8.326,8.326,0,0,0,.8-.71q4.2-4.021,8.4-8.047a2.075,2.075,0,0,1,2.881-.393,8.192,8.192,0,0,1,1.654,1.336c.664.683.619,1.092-.07,1.754q-5.9,5.671-11.812,11.338a2.891,2.891,0,0,1-1.976.855q-6.115.259-12.227.562a3.833,3.833,0,0,0-1.192.212,2.107,2.107,0,0,0-1.216,2.32,1.668,1.668,0,0,0,1.747,1.308c5.481-.1,10.962-.231,16.443-.321a5.68,5.68,0,0,0,4.425-2.009c.94-1.068,2.05-1.986,3.076-2.979,3.133-3.032,6.352-5.983,9.351-9.143a6.549,6.549,0,0,1,4.58-2.364c.146-.008.29-.04.554-.078Z" transform="translate(-148.737 -224.702)" fill="#fff"/>
      <path id="Path_75480" data-name="Path 75480" d="M325.241,107.648c-.969,0-1.938,0-2.906,0-.515,0-.861.123-.945.739a.892.892,0,0,1-1.755-.316,9.544,9.544,0,0,1,.608-1.452,3.565,3.565,0,0,0,.454-1.2,7.2,7.2,0,0,0-2.235-5.623,9.527,9.527,0,0,1-1.794-11.267,9.677,9.677,0,0,1,18.18,2.969,9.461,9.461,0,0,1-3.133,8.685,6.651,6.651,0,0,0-1.885,4.922,1.987,1.987,0,0,0,.539,1.654,2.249,2.249,0,0,1,.507,1.452.845.845,0,0,1-1.656.252c-.159-.768-.617-.826-1.227-.813-.917.019-1.835,0-2.753,0m2.739-1.926c.015-.281.026-.505.04-.729a9.038,9.038,0,0,1,2.784-6.478,7.281,7.281,0,0,0,2.29-6.452,7.869,7.869,0,1,0-13.227,6.586,7.687,7.687,0,0,1,2.314,4.043c.221.983.307,2,.459,3.03Z" transform="translate(-267.288 -70.534)" fill="#fff"/>
      <path id="Path_75481" data-name="Path 75481" d="M46.683,41.069c-1.53,0-3.061.042-4.589-.011a3.283,3.283,0,0,1-3.311-3.152,3,3,0,0,1,2.729-3.22,4.606,4.606,0,0,0,3.142-1.3,3.421,3.421,0,0,1,3.391-.6,1.228,1.228,0,0,0,.876-.128,4.513,4.513,0,0,1,5.586.3,4.417,4.417,0,0,1,.665,5.481,4.959,4.959,0,0,1-4.513,2.649c-1.326-.01-2.652,0-3.977,0v-.012m-.144-1.777c1.4,0,2.8.01,4.2,0a3.414,3.414,0,0,0,3.142-2.362,2.457,2.457,0,0,0-.922-2.905,2.532,2.532,0,0,0-3.163.317,1.317,1.317,0,0,1-1.954.337,1.991,1.991,0,0,0-2.919,1.235c-.236.74-.636.949-1.391.645a2.623,2.623,0,0,0-2.074,0,1.21,1.21,0,0,0-.871,1.132,1.3,1.3,0,0,0,.8,1.353,3.933,3.933,0,0,0,1.334.241c1.272.031,2.545.011,3.817.01" transform="translate(-32.846 -26.96)" fill="#fff"/>
      <path id="Path_75482" data-name="Path 75482" d="M261.757,2.424a11.656,11.656,0,0,1,.83-1.565,2.277,2.277,0,0,1,1.04-.835,1.121,1.121,0,0,1,1.014.332,1.09,1.09,0,0,1-.092,1.06,3.553,3.553,0,0,0-1.144,2.1,6.173,6.173,0,0,1-.353,1,1,1,0,0,1-1.751.18,2.128,2.128,0,0,0-2.072-1.155,10.184,10.184,0,0,0-2.418.493c-.643.218-1.221.157-1.412-.394a1,1,0,0,1,.65-1.3,6.152,6.152,0,0,1,5.105-.2c.208.08.4.189.6.284" transform="translate(-216.257 0.001)" fill="#fff"/>
      <path id="Path_75483" data-name="Path 75483" d="M371.723,33.9c0-.662-.007-1.323,0-1.985a.892.892,0,0,1,1.782-.06c.038,1.4.037,2.8,0,4.2a.845.845,0,0,1-.943.887.86.86,0,0,1-.846-.979q0-1.031,0-2.061" transform="translate(-314.834 -26.255)" fill="#fff"/>
      <path id="Path_75484" data-name="Path 75484" d="M419.84,60.884a6.181,6.181,0,0,1,.559-.822c.851-.877,1.728-1.73,2.586-2.6.439-.446.928-.6,1.4-.135s.331.964-.108,1.4c-.9.9-1.78,1.825-2.723,2.679a1.262,1.262,0,0,1-1.01.233c-.265-.068-.447-.46-.707-.756" transform="translate(-355.589 -48.316)" fill="#fff"/>
      <path id="Path_75485" data-name="Path 75485" d="M308.726,63.132a5.913,5.913,0,0,1-.827-.549c-.807-.776-1.588-1.579-2.384-2.367-.434-.429-.608-.891-.161-1.4.39-.447.915-.4,1.458.136.817.8,1.651,1.592,2.412,2.445a1.28,1.28,0,0,1,.242,1.013c-.067.271-.455.463-.741.726" transform="translate(-258.402 -49.556)" fill="#fff"/>
      <path id="Path_75486" data-name="Path 75486" d="M447.208,121.055c-.586,0-1.173.013-1.759,0a.894.894,0,0,1-.026-1.787c1.223-.033,2.448-.034,3.67,0a.813.813,0,0,1,.825.914.826.826,0,0,1-.875.866c-.611.022-1.223.005-1.835.005" transform="translate(-376.517 -100.992)" fill="#fff"/>
      <path id="Path_75487" data-name="Path 75487" d="M280.648,121.078c-.51,0-1.021.008-1.53,0a.843.843,0,0,1-.926-.9.86.86,0,0,1,.94-.9q1.53-.025,3.06,0a.856.856,0,0,1,.961.871c.01.615-.365.922-.975.928-.51.006-1.02,0-1.53,0" transform="translate(-235.618 -101.015)" fill="#fff"/>
      <path id="Path_75488" data-name="Path 75488" d="M147.493,260.143a4.743,4.743,0,0,1,.031-1.363,1.359,1.359,0,0,1,.755-.778.7.7,0,0,1,.937.639,18.938,18.938,0,0,1-.033,3.034c-.026.251-.54.6-.863.638a.736.736,0,0,1-.822-.8c-.015-.457,0-.915,0-1.373" transform="translate(-124.891 -218.483)" fill="#fff"/>
      <path id="Path_75489" data-name="Path 75489" d="M171.7,260.135c0-.407-.008-.814,0-1.221a.83.83,0,0,1,.826-.91.8.8,0,0,1,.942.784,15.848,15.848,0,0,1-.036,2.816,1.234,1.234,0,0,1-.867.745c-.493.084-.846-.287-.863-.84-.014-.457,0-.916,0-1.374" transform="translate(-145.42 -218.517)" fill="#fff"/>
      <path id="Path_75490" data-name="Path 75490" d="M125.325,260.233c0,.407.013.814,0,1.22-.023.56-.3.937-.885.938a.822.822,0,0,1-.891-.916c-.006-.864-.014-1.728,0-2.592a.877.877,0,0,1,1.752-.021c.027.456.006.914.006,1.372Z" transform="translate(-104.634 -218.536)" fill="#fff"/>
      <path id="Path_75491" data-name="Path 75491" d="M360.46,112.909c1.031,0,1.918-.006,2.8,0,1.068.009,1.551.511,1.211,1.486-.71,2.038-1.526,4.039-2.326,6.044a.8.8,0,0,1-1.149.438.84.84,0,0,1-.467-1.2c.55-1.341,1.11-2.678,1.658-4.02.111-.273.189-.559.322-.958-1.125,0-2.134.008-3.143,0-1.078-.01-1.413-.521-.986-1.527,1.042-2.459,2.1-4.91,3.142-7.369.252-.6.628-.944,1.3-.72.533.179.668.719.368,1.428-.879,2.081-1.77,4.156-2.727,6.4" transform="translate(-303.384 -88.943)" fill="#fff"/>
    </g>
  </g>
</svg>
