<svg id="Group_51754" data-name="Group 51754" xmlns="http://www.w3.org/2000/svg" xmlns:xlink="http://www.w3.org/1999/xlink" width="120" height="120" viewBox="0 0 120 120">
  <defs>
    <clipPath id="clip-path">
      <rect id="Rectangle_19944" data-name="Rectangle 19944" width="80.269" height="72.182" fill="#f8f8f8"/>
    </clipPath>
  </defs>
  <path id="Path_171" data-name="Path 171" d="M120,210a60,60,0,1,1-60-60,60,60,0,0,1,60,60" transform="translate(0 -150)" fill="#239f79"/>
  <g id="Group_51435" data-name="Group 51435" transform="translate(19.865 23.909)">
    <g id="Group_51434" data-name="Group 51434" clip-path="url(#clip-path)">
      <path id="Path_75492" data-name="Path 75492" d="M103.632,101.884a17.519,17.519,0,1,1,17.2,17.454,17.49,17.49,0,0,1-17.2-17.454m8.418.757c.435,1.932.8,3.687,1.249,5.422.07.273.517.67.749.645,2.1-.228,4.2-.538,6.365-.834v-5.233Zm9.813,0c0,1.643-.026,3.219.03,4.792.008.216.4.568.643.6q2.827.406,5.672.686c.278.028.778-.154.845-.351a14.294,14.294,0,0,0,.931-5.731Zm-16.839-.01a15.3,15.3,0,0,0,2.286,7.557.792.792,0,0,0,.666.318c1.4-.424,2.783-.908,4.064-1.337l-1.322-6.538Zm25.388,6.6c.883.278,1.807.558,2.724.861,1.741.574,1.765.592,2.578-1.1a14.857,14.857,0,0,0,1.586-6.33h-5.68l-1.208,6.574M130.3,95.281l1.225,5.844h5.8a15.426,15.426,0,0,0-2.252-7.426L130.3,95.281m-9.813,5.87c0-1.434.029-2.8-.031-4.155-.009-.213-.4-.553-.654-.589q-2.828-.406-5.674-.689c-.271-.027-.775.17-.823.355-.43,1.646-.781,3.312-1.179,5.078Zm-8.518-5.906L107.257,93.7a15.081,15.081,0,0,0-2.222,7.434h5.748l1.183-5.892m18.22,5.884c-.413-1.75-.781-3.383-1.2-5a.756.756,0,0,0-.6-.414c-2.137.258-4.267.563-6.429.86v4.557Zm-8.255-5.948,6.252-.747a1.681,1.681,0,0,0,0-.473,28.321,28.321,0,0,0-5.081-7.752,3.76,3.76,0,0,0-1.166-.531Zm-1.541.013V85.821c-1.542.317-5.759,6.057-6.286,8.592l6.286.782m1.536,14.06v8.636c1.491.019,6.05-5.723,6.224-7.888l-6.224-.749m-7.708.746c.8,2.656,4.837,7.749,6.172,7.9v-8.64l-6.172.743m-6.226-17.466c1.534.483,2.854.923,4.194,1.289.173.047.535-.238.668-.455.9-1.473,1.727-2.989,2.643-4.451.541-.863,1.2-1.653,1.98-2.71a16.437,16.437,0,0,0-9.485,6.327m26.342,0a16.058,16.058,0,0,0-9.055-6.211l4.615,7.641,4.44-1.43m-17.113,24.9-4.7-6.974-4,1.292c1.493,2.537,5.814,5.316,8.7,5.683m8.2.027a16.194,16.194,0,0,0,8.518-5.683c-1.306-.413-2.426-.793-3.564-1.106a.929.929,0,0,0-.815.188c-1.392,2.159-2.737,4.348-4.139,6.6" transform="translate(-81.166 -66.136)" fill="#f8f8f8"/>
      <path id="Path_75493" data-name="Path 75493" d="M43.109,11.727c-.6,1.757-1.984,2.544-3.547,3.137A45.6,45.6,0,0,0,27.24,21.751c-3.479,2.763-7.582,3.4-11.881,2.935-1.824-.2-3.624-.612-5.437-.919-.346-.059-.7-.077-1.025-.111-.577,1.832-.89,2.042-2.749,1.78-1.428-.2-2.848-.456-4.273-.678C.243,24.5-.192,23.966.072,22.334c.661-4.094,1.354-8.182,2.035-12.273.166-1,.323-1.993.5-2.986A1.415,1.415,0,0,1,4.272,5.745C6.238,6,8.2,6.31,10.146,6.687c.4.077.971.514,1.019.848.135.94.811,1.021,1.4.938a8.506,8.506,0,0,0,2.969-.794c3.108-1.759,6.153-3.634,9.191-5.514A13.329,13.329,0,0,1,34.753.283C42.41,1.794,49.991,3.524,57.208,6.575c1.2.505,2.369,1.07,3.52,1.671a4.093,4.093,0,0,1,2.21,5.155,4.363,4.363,0,0,1-5.244,2.566C53.287,14.725,48.9,13.4,44.511,12.107c-.444-.13-.892-.243-1.4-.38M9.044,22.183a32.953,32.953,0,0,0,9.464,1.279,13.1,13.1,0,0,0,7.852-2.721,45.386,45.386,0,0,1,12.389-7,9.288,9.288,0,0,0,2.112-1.075,2.193,2.193,0,0,0-.093-3.729,3.219,3.219,0,0,0-3.2-.363c-4.761,1.979-9.506,4-14.273,5.961a3.614,3.614,0,0,1-1.322,0c.223-.381.355-.972.681-1.112,4.938-2.115,9.871-4.25,14.874-6.2a4.3,4.3,0,0,1,5.477,2.456,1.761,1.761,0,0,0,.963.834c2.891.9,5.8,1.746,8.7,2.6,1.8.529,3.585,1.095,5.4,1.554a3.05,3.05,0,0,0,3.637-1.792,2.8,2.8,0,0,0-1.659-3.459c-1.222-.62-2.457-1.222-3.722-1.748A110.207,110.207,0,0,0,34.268,1.574,11.53,11.53,0,0,0,25.76,3.12c-3.106,1.907-6.239,3.768-9.351,5.666a6.549,6.549,0,0,1-4.659.965,4.173,4.173,0,0,0-.654,0c-.687,4.163-1.361,8.246-2.052,12.437m-1.7,2.08L10.013,7.983,3.964,7.031,1.287,23.286l6.054.977" transform="translate(0 0)" fill="#f8f8f8"/>
      <path id="Path_75494" data-name="Path 75494" d="M99.028,229.117c.482-1.906,1.9-2.7,3.465-3.4,2.729-1.222,5.454-2.46,8.124-3.8a13.95,13.95,0,0,0,3.006-2.107c3.763-3.39,8.185-4.389,13.085-3.787,2.107.259,4.214.521,6.307.779.662-1.539.987-1.74,2.669-1.5q2.25.315,4.486.725c1.528.277,1.916.79,1.673,2.321-.581,3.669-1.2,7.332-1.813,11-.237,1.423-.5,2.842-.722,4.266a1.461,1.461,0,0,1-1.822,1.381c-1.893-.261-3.8-.5-5.651-.936-.589-.14-1.031-.9-1.458-1.479a4.652,4.652,0,0,0-4.242.572c-2.891,1.778-5.82,3.493-8.692,5.3a13.665,13.665,0,0,1-10.427,2c-7.795-1.561-15.517-3.312-22.838-6.5-1.058-.461-2.1-.958-3.123-1.5a4.1,4.1,0,0,1-2.116-5.027,4.325,4.325,0,0,1,4.993-2.685c3.725,1,7.411,2.147,11.114,3.23,1.277.374,2.555.742,3.985,1.158m33.9-11.043c-3.029-.3-5.882-.658-8.746-.839a12.163,12.163,0,0,0-8.9,3.007,37.4,37.4,0,0,1-10.16,5.891c-1.2.5-2.391,1.009-3.545,1.6a2.116,2.116,0,0,0-1.191,2.244,2.083,2.083,0,0,0,1.644,1.939,5.737,5.737,0,0,0,2.924-.091c4.107-1.572,8.159-3.288,12.222-4.975.731-.3,1.4-.757,2.139-1.038.249-.1.619.125.934.2a4.134,4.134,0,0,1-.292.906c-.094.16-.354.237-.553.32-4.853,2.034-9.682,4.128-14.572,6.066a4.413,4.413,0,0,1-5.542-2.15,2.093,2.093,0,0,0-1.113-.845c-2.959-.921-5.933-1.791-8.907-2.663-1.866-.547-3.721-1.152-5.615-1.575a2.956,2.956,0,0,0-3.488,1.883,2.843,2.843,0,0,0,1.755,3.418c1.489.729,2.981,1.462,4.519,2.075a114.452,114.452,0,0,0,21.041,5.712,11.61,11.61,0,0,0,8.7-1.557c2.326-1.451,4.69-2.842,7.036-4.262,2.307-1.4,4.513-3.11,7.569-2.188l2.141-13.074m5,15.667,2.684-16.283-6.056-.959c-.9,5.492-1.78,10.839-2.669,16.252l6.041.99" transform="translate(-61.639 -168.56)" fill="#f8f8f8"/>
    </g>
  </g>
</svg>
