<svg xmlns="http://www.w3.org/2000/svg" xmlns:xlink="http://www.w3.org/1999/xlink" width="80" height="80" viewBox="0 0 80 80">
  <defs>
    <clipPath id="clip-path">
      <rect id="Rectangle_19898" data-name="Rectangle 19898" width="41.438" height="55.606" fill="#fdfdfd"/>
    </clipPath>
  </defs>
  <g id="Group_51873" data-name="Group 51873" transform="translate(-20 -3888)">
    <circle id="Ellipse_152" data-name="Ellipse 152" cx="40" cy="40" r="40" transform="translate(20 3888)" fill="#ac8dc2"/>
    <g id="Group_51394" data-name="Group 51394" transform="translate(39.468 3900.163)">
      <g id="Group_51393" data-name="Group 51393" clip-path="url(#clip-path)">
        <path id="Path_75406" data-name="Path 75406" d="M87.307,300.553a27.058,27.058,0,0,1,.02-3.15,6.148,6.148,0,0,1,5.725-5.054,1.109,1.109,0,0,1,.715.307,2.912,2.912,0,0,0,4.241-.016,1.158,1.158,0,0,1,.787-.28,6.2,6.2,0,0,1,5.751,6.433c-.076,1.439-.029,2.885,0,4.328a1.043,1.043,0,0,1-.589,1.051c-1.536.861-3.039,1.78-4.583,2.626a6.892,6.892,0,0,1-6.949.021c-1.569-.847-3.088-1.786-4.642-2.662a.984.984,0,0,1-.565-.993c.027-.869.008-1.74.008-2.61h.084m16.018-.258q0-.858,0-1.717a4.821,4.821,0,0,0-4.1-4.911,1.055,1.055,0,0,0-.732.155,4.107,4.107,0,0,1-5.255-.016.889.889,0,0,0-.54-.186,4.878,4.878,0,0,0-4.266,4.637c-.019,1.465-.026,2.93.014,4.394a1.033,1.033,0,0,0,.432.729q1.988,1.215,4.029,2.344a5.8,5.8,0,0,0,5.892.023c1.385-.753,2.742-1.558,4.086-2.381a1.066,1.066,0,0,0,.415-.738c.054-.774.019-1.555.02-2.333" transform="translate(-75.219 -252.142)" fill="#fdfdfd"/>
        <path id="Path_75407" data-name="Path 75407" d="M118.3,40.979a5.669,5.669,0,0,1-.9,3.191,7.488,7.488,0,0,0-1.23,3.8c-.013.426-.05.892-.643.843-.576-.047-.562-.512-.534-.935a9.326,9.326,0,0,1,1.412-4.32,4.857,4.857,0,0,0-3.554-7.416A4.881,4.881,0,0,0,108.1,43.55a8.843,8.843,0,0,1,1.389,4.252c.006.16.061.355-.009.473-.124.208-.348.533-.49.514-.225-.031-.592-.3-.594-.477a10.707,10.707,0,0,0-1.557-4.7,5.61,5.61,0,0,1,.728-6.427,5.7,5.7,0,0,1,6.275-2.03,5.858,5.858,0,0,1,4.39,4.862,6.8,6.8,0,0,1,.059.959" transform="translate(-91.555 -30.109)" fill="#fdfdfd"/>
        <path id="Path_75408" data-name="Path 75408" d="M6.037,274.945a3.021,3.021,0,0,1,.568.356,2.919,2.919,0,0,0,4.094.042,1.365,1.365,0,0,1,1.013-.349,22.866,22.866,0,0,1,2.7.94c.366.145.618.46.392.879-.241.447-.6.385-.994.157a10.256,10.256,0,0,0-1.046-.507,1.666,1.666,0,0,0-1.875.2,3.9,3.9,0,0,1-4.618-.094,1.325,1.325,0,0,0-1.378-.228,5.029,5.029,0,0,0-3.559,3.489,1.216,1.216,0,0,0,.527,1.586c1.575.929,3.14,1.872,4.716,2.8,1.261.741,2.532,1.467,3.8,2.2.365.21.692.473.448.922-.265.488-.679.338-1.066.114l-7.9-4.564c-.059-.034-.116-.074-.173-.111-1.794-1.172-2.065-2.043-1.252-4.024a6.535,6.535,0,0,1,5.6-3.8" transform="translate(0 -237.133)" fill="#fdfdfd"/>
        <path id="Path_75409" data-name="Path 75409" d="M207.813,280.761a5.369,5.369,0,0,1-.684,1.174,7.078,7.078,0,0,1-1.464,1.12c-2.522,1.484-5.061,2.937-7.6,4.4-.138.08-.287.229-.418.216-.267-.026-.646-.068-.75-.241s.054-.525.176-.758c.072-.139.295-.2.453-.293l7.186-4.151c.2-.114.4-.224.591-.348,1.284-.828,1.434-1.307.778-2.708a5.1,5.1,0,0,0-3.8-2.85.981.981,0,0,0-.665.222,4.185,4.185,0,0,1-5.162.023,1.216,1.216,0,0,0-.913-.172,9.788,9.788,0,0,0-1.7.7c-.384.19-.769.249-.92-.173a.9.9,0,0,1,.288-.825,23.243,23.243,0,0,1,2.881-1.02,1.115,1.115,0,0,1,.837.3,2.91,2.91,0,0,0,4.193,0,1.113,1.113,0,0,1,.708-.312,6.454,6.454,0,0,1,5.983,5.7" transform="translate(-166.375 -237.229)" fill="#fdfdfd"/>
        <path id="Path_75410" data-name="Path 75410" d="M116.99,218.046a4.653,4.653,0,0,1,3-4.77,4.479,4.479,0,0,1,6.069,3.76,6.839,6.839,0,0,1-1.475,5.473,3.762,3.762,0,0,1-6.007.038,6.824,6.824,0,0,1-1.582-4.5m4.571-3.815a3.08,3.08,0,0,0-3.168,2.334,5.526,5.526,0,0,0,1.173,5.269,2.511,2.511,0,0,0,4.045-.04,5.5,5.5,0,0,0,1.319-3.944c-.082-2.306-1.347-3.607-3.369-3.62" transform="translate(-100.901 -183.7)" fill="#fdfdfd"/>
        <path id="Path_75411" data-name="Path 75411" d="M204.2,200.975c.005-2.894,1.365-4.743,3.584-5.224a4.466,4.466,0,0,1,5.495,3.977,6.965,6.965,0,0,1-1.482,5.4,3.741,3.741,0,0,1-6.082-.042,6.857,6.857,0,0,1-1.515-4.111m1.217-.939c0,2.291.688,3.956,1.757,4.811a2.38,2.38,0,0,0,3.35-.127,5.489,5.489,0,0,0,1.581-4.7,3.206,3.206,0,0,0-1.317-2.529,3.374,3.374,0,0,0-3.581-.258,3.167,3.167,0,0,0-1.79,2.8" transform="translate(-176.119 -168.734)" fill="#fdfdfd"/>
        <path id="Path_75412" data-name="Path 75412" d="M38.81,200.708a7.305,7.305,0,0,1-1.549,4.634,3.728,3.728,0,0,1-6.035.046,6.781,6.781,0,0,1-1.3-6.391c.556-2.065,2.361-3.186,4.7-3.082a4.365,4.365,0,0,1,4.013,3.544c.1.468.129.949.168,1.249m-1.224.182c-.011-.248-.012-.477-.034-.705a3.25,3.25,0,0,0-2.774-3.045,3.14,3.14,0,0,0-3.611,1.957,5.447,5.447,0,0,0,1.053,5.588,2.5,2.5,0,0,0,4.117-.117,5.762,5.762,0,0,0,1.248-3.677" transform="translate(-25.563 -168.966)" fill="#fdfdfd"/>
        <path id="Path_75413" data-name="Path 75413" d="M126.99,142.4c-.983,0-1.967,0-2.95,0-.422,0-.822-.068-.832-.586s.4-.607.814-.608c1.944,0,3.888,0,5.832,0,.452,0,.89.093.875.627-.013.482-.425.577-.856.572-.96-.011-1.921,0-2.881,0" transform="translate(-106.263 -121.785)" fill="#fdfdfd"/>
        <path id="Path_75414" data-name="Path 75414" d="M126.933,155.068c1.005,0,2.01.006,3.015,0,.411,0,.775.108.794.556.022.515-.383.6-.808.6h-5.962c-.4,0-.764-.089-.752-.582.012-.475.355-.578.766-.576.982.006,1.964,0,2.946,0" transform="translate(-106.275 -133.739)" fill="#fdfdfd"/>
        <path id="Path_75415" data-name="Path 75415" d="M136.514,169.978a8.979,8.979,0,0,1-1.5-.025c-.241-.041-.436-.346-.652-.531.211-.191.414-.534.635-.547a28.612,28.612,0,0,1,3.148,0c.223.012.429.349.643.536-.209.189-.4.507-.631.542a11.006,11.006,0,0,1-1.64.026" transform="translate(-115.881 -145.613)" fill="#fdfdfd"/>
        <path id="Path_75416" data-name="Path 75416" d="M200.24,108.12c0,.488-.412.806-.763.624-.827-.43-1.64-.895-2.42-1.4a.708.708,0,0,1-.11-.69.725.725,0,0,1,.671-.233c.814.4,1.6.875,2.376,1.347.135.082.2.283.246.357" transform="translate(-169.822 -91.763)" fill="#fdfdfd"/>
        <path id="Path_75417" data-name="Path 75417" d="M82.644,106.822a2.18,2.18,0,0,1-.425.443c-.655.413-1.332.792-2,1.185-.337.2-.661.225-.892-.142-.241-.383-.03-.654.292-.848.683-.411,1.367-.823,2.067-1.2a.6.6,0,0,1,.957.566" transform="translate(-68.328 -91.551)" fill="#fdfdfd"/>
        <path id="Path_75418" data-name="Path 75418" d="M178.121,10.94a2.621,2.621,0,0,1-.145.379c-.392.693-.758,1.4-1.208,2.057-.135.2-.509.229-.774.337-.075-.294-.3-.656-.2-.869a17.794,17.794,0,0,1,1.253-2.187.818.818,0,0,1,.627-.264,2.191,2.191,0,0,1,.7.278l-.25.269" transform="translate(-151.598 -8.963)" fill="#fdfdfd"/>
        <path id="Path_75419" data-name="Path 75419" d="M110.45,13.461c-.083.1-.2.361-.362.4a.742.742,0,0,1-.643-.185,24.647,24.647,0,0,1-1.353-2.364.757.757,0,0,1,.219-.677.656.656,0,0,1,.642.054c.526.82.993,1.677,1.476,2.524.02.036.009.09.021.251" transform="translate(-93.206 -9.117)" fill="#fdfdfd"/>
        <path id="Path_75420" data-name="Path 75420" d="M83.238,40.625a.589.589,0,0,1-.876.581,23.2,23.2,0,0,1-2.237-1.3.8.8,0,0,1-.191-.735.711.711,0,0,1,.659-.238c.834.411,1.635.888,2.435,1.364.117.07.165.256.211.332" transform="translate(-68.92 -33.558)" fill="#fdfdfd"/>
        <path id="Path_75421" data-name="Path 75421" d="M199.649,38.157c.138.112.4.222.448.39a.738.738,0,0,1-.161.651,22.67,22.67,0,0,1-2.357,1.372.816.816,0,0,1-.719-.265.713.713,0,0,1,.171-.676c.736-.491,1.518-.915,2.286-1.358a2.192,2.192,0,0,1,.333-.114" transform="translate(-169.757 -32.909)" fill="#fdfdfd"/>
        <path id="Path_75422" data-name="Path 75422" d="M70.943,78a6.016,6.016,0,0,1-1.228-.024c-.224-.048-.4-.334-.592-.513.2-.2.387-.553.6-.57a16.9,16.9,0,0,1,2.531,0c.209.015.4.336.595.516-.2.2-.377.515-.612.568a5.9,5.9,0,0,1-1.3.025" transform="translate(-59.617 -66.276)" fill="#fdfdfd"/>
        <path id="Path_75423" data-name="Path 75423" d="M206.087,76.844c.389,0,.777,0,1.165,0s.734.166.653.58a.861.861,0,0,1-.613.533,15.373,15.373,0,0,1-2.463,0c-.222-.018-.417-.362-.625-.556.217-.185.409-.474.655-.531a5.627,5.627,0,0,1,1.228-.024" transform="translate(-176.121 -66.257)" fill="#fdfdfd"/>
        <path id="Path_75424" data-name="Path 75424" d="M147.137,1.915a5.021,5.021,0,0,1-.023,1.158c-.06.246-.338.439-.518.656-.192-.2-.534-.4-.551-.615a17.168,17.168,0,0,1,0-2.529c.015-.206.336-.39.516-.584.192.2.5.384.551.619a6.18,6.18,0,0,1,.026,1.295" transform="translate(-125.92 -0.001)" fill="#fdfdfd"/>
      </g>
    </g>
  </g>
</svg>
