<svg xmlns="http://www.w3.org/2000/svg" xmlns:xlink="http://www.w3.org/1999/xlink" width="80" height="80" viewBox="0 0 80 80">
  <defs>
    <clipPath id="clip-path">
      <rect id="Rectangle_19902" data-name="Rectangle 19902" width="44.503" height="44.503" fill="#fff"/>
    </clipPath>
  </defs>
  <g id="Group_51879" data-name="Group 51879" transform="translate(-20 -3888)">
    <circle id="Ellipse_152" data-name="Ellipse 152" cx="40" cy="40" r="40" transform="translate(20 3888)" fill="#ac8dc2"/>
    <g id="Group_51882" data-name="Group 51882" transform="translate(37.339 3905.34)">
      <g id="Group_51401" data-name="Group 51401" transform="translate(0.409 0.409)" clip-path="url(#clip-path)">
        <path id="Path_75442" data-name="Path 75442" d="M43.872,45.015H21.189c-.024-.016-.046-.045-.071-.048a17.368,17.368,0,0,1-4.659-1.09.309.309,0,0,0-.285.068,2.652,2.652,0,0,1-1.492,1.07H1.758A2.637,2.637,0,0,1,0,43.257V42.29L.949,40.7A2.21,2.21,0,0,1,.94,38.847a.381.381,0,0,0-.065-.3C.591,38.122.293,37.7,0,37.278v-.967l.512-1.063L0,34.289V33.234l.514-.964L0,31.212v-.967a2.616,2.616,0,0,1,2.922-1.763c1.491.062,2.987,0,4.48.025.37.007.5-.119.588-.455a20.977,20.977,0,0,1,6.68-10.6c.327-.283.664-.554.995-.828a2.281,2.281,0,0,1,.438-3.569.543.543,0,0,0,.091-.467c-.592-2.154-1.209-4.3-1.8-6.453a2.957,2.957,0,0,1,2.128-3.781,7.64,7.64,0,0,1,1.657-.111.784.784,0,0,0,.653-.319A6.564,6.564,0,0,1,20.16.678,9.388,9.388,0,0,1,21.8,0h1.407c.095.032.188.071.284.095a3.7,3.7,0,0,1,2.267,1.324,2.02,2.02,0,0,0,1.913.84A2.967,2.967,0,0,1,30.6,6.219q-.883,3.187-1.8,6.364a.414.414,0,0,0,.2.561,2.015,2.015,0,0,1,.967,2.065,8.413,8.413,0,0,1-.528,1.5c-.038-.041-.013-.005.02.02a21.011,21.011,0,0,1,7.6,11.448c.077.29.217.321.46.321,1.86-.006,3.72.024,5.579-.015a1.8,1.8,0,0,1,1.91,1.145V43.872a1.864,1.864,0,0,1-1.143,1.143M9.424,28.5c1.6,0,3.139,0,4.676,0a2.244,2.244,0,0,1,2.117,1.163,2.186,2.186,0,0,1-.123,2.4.42.42,0,0,0-.01.373,2.228,2.228,0,0,1,.01,2.632.384.384,0,0,0-.032.338,2.247,2.247,0,0,1,.178,2.439c.14.129.261.234.374.347a2.253,2.253,0,0,1-.014,3.164c-.456.452-.387.775.23,1.023a14.806,14.806,0,0,0,6.824,1.074,13.8,13.8,0,0,0,9.152-4.213,10.874,10.874,0,0,0,3.181-7.447,14.218,14.218,0,0,0-1.612-6.625,18.619,18.619,0,0,0-6.421-7.636,1.717,1.717,0,0,0-.892-.262c-2.886-.019-5.772.012-8.657-.028a2.864,2.864,0,0,0-1.85.621,19.664,19.664,0,0,0-5.636,6.754A16.561,16.561,0,0,0,9.424,28.5M27.008,3.758c0,.642,0,1.224,0,1.806,0,.6.005,1.2,0,1.8-.007.563-.288.891-.747.891s-.754-.345-.757-.888c0-.937,0-1.875,0-2.812a2.994,2.994,0,1,0-5.986.007c0,.952,0,1.9,0,2.856a.768.768,0,0,1-.764.837.742.742,0,0,1-.736-.811c-.012-.6,0-1.2,0-1.8s0-1.221,0-1.877c-.231,0-.447,0-.663,0a1.473,1.473,0,0,0-1.5,1.943c.621,2.252,1.276,4.5,1.9,6.746a.339.339,0,0,0,.393.3q4.372-.009,8.744,0a.337.337,0,0,0,.391-.3c.259-.973.543-1.94.818-2.91.355-1.25.714-2.5,1.062-3.751a1.48,1.48,0,0,0-1.013-1.973,6.317,6.317,0,0,0-1.131-.064M43.5,33.714A4.636,4.636,0,0,1,39.8,30.02c-.742,0-1.444,0-2.146,0a.907.907,0,0,0-.171.034c.4,6.274-2.6,10.535-7.969,13.445h10.3a4.618,4.618,0,0,1,3.7-3.7Zm-35.246,9.8h3.6c.762,0,1.523.009,2.285,0,.6-.01.935-.4.819-.928-.084-.376-.367-.564-.871-.564q-5.844,0-11.687,0a1.772,1.772,0,0,0-.219.005.748.748,0,0,0-.673.7.705.705,0,0,0,.555.746,1.876,1.876,0,0,0,.477.045q2.856,0,5.712,0M9,39.028c-1.977,0-3.954,0-5.931,0a.707.707,0,0,0-.791.7.73.73,0,0,0,.718.78,3.922,3.922,0,0,0,.439.009H14.722c.088,0,.176,0,.263-.005a.754.754,0,0,0,.757-.754.729.729,0,0,0-.814-.726c-1.977,0-3.954,0-5.931,0M8.24,31.492h3.645c.791,0,1.581.007,2.372-.006a.693.693,0,0,0,.724-.672.7.7,0,0,0-.66-.779,3.747,3.747,0,0,0-.482-.017H4c-.542,0-1.086-.032-1.624.015a1.087,1.087,0,0,0-.708.324.919.919,0,0,0-.062.725c.1.326.41.413.747.412,1.962-.006,3.923,0,5.885,0m0,4.539H3.363c-.381,0-.762-.01-1.142.007a.725.725,0,0,0-.063,1.446,2.6,2.6,0,0,0,.394.021q5.709,0,11.419,0a2.33,2.33,0,0,0,.393-.024.7.7,0,0,0,.592-.9.736.736,0,0,0-.834-.549c-1.962.006-3.923,0-5.885,0m.019-1.537h5.665c.733,0,1.065-.233,1.06-.74s-.335-.724-1.075-.724H2.577a3.354,3.354,0,0,0-.438.015.721.721,0,0,0,.015,1.434,4.117,4.117,0,0,0,.482.014H8.258M22.507,15.744h5.05c.612,0,.935-.258.936-.739s-.338-.751-.935-.752q-5.05,0-10.1,0c-.6,0-.935.281-.935.751s.322.738.934.739q2.525,0,5.05,0m18.911,14.3a2.738,2.738,0,0,0,2.076,2.027V30.048ZM43.48,43.5V41.422c-.911.108-2.072,1.34-2.03,2.077Z" transform="translate(-0.256 -0.256)" fill="#fff"/>
        <path id="Path_75443" data-name="Path 75443" d="M216.124,268.656V264.4a11.573,11.573,0,0,1-1.781-1.127,3.717,3.717,0,0,1,1.367-6.255.794.794,0,0,0,.54-.48,1.04,1.04,0,0,1,.664-.452.593.593,0,0,1,.7.47.587.587,0,0,0,.459.442,3.762,3.762,0,0,1,2.608,3.358.818.818,0,0,1-.68.967c-.435.053-.8-.268-.84-.811a2.3,2.3,0,0,0-1.435-2.034v4.409a3.877,3.877,0,0,1,1.994,1.172,3.747,3.747,0,0,1-1.624,6.071.748.748,0,0,0-.5.452,1.054,1.054,0,0,1-.7.477.6.6,0,0,1-.677-.5c-.056-.257-.205-.339-.426-.412a3.771,3.771,0,0,1-2.633-3.341c-.041-.54.22-.927.658-.975.49-.054.814.232.865.821a2.254,2.254,0,0,0,1.443,2.008m1.588-.045a2.116,2.116,0,0,0,1.433-2.141,2.048,2.048,0,0,0-1.433-1.927Zm-1.581-10.089a2.138,2.138,0,0,0-1.43,2.292,1.976,1.976,0,0,0,1.43,1.763Z" transform="translate(-194.666 -233.814)" fill="#fff"/>
        <path id="Path_75444" data-name="Path 75444" d="M435.093,394.728a2.255,2.255,0,1,1,2.253,2.234,2.276,2.276,0,0,1-2.253-2.234m2.255.7a.718.718,0,0,0,.736-.705.708.708,0,0,0-.724-.754.73.73,0,1,0-.012,1.459" transform="translate(-397.096 -358.193)" fill="#fff"/>
      </g>
    </g>
  </g>
</svg>
