<svg xmlns="http://www.w3.org/2000/svg" xmlns:xlink="http://www.w3.org/1999/xlink" width="118.368" height="118.368" viewBox="0 0 118.368 118.368">
  <defs>
    <clipPath id="clip-path">
      <rect id="Rectangle_20262" data-name="Rectangle 20262" width="118.368" height="118.368" fill="none"/>
    </clipPath>
    <clipPath id="clip-path-2">
      <rect id="Rectangle_20265" data-name="Rectangle 20265" width="72.7" height="75" fill="#043929"/>
    </clipPath>
  </defs>
  <g id="Group_52195" data-name="Group 52195" transform="translate(-148 -2569.632)">
    <g id="Group_52165" data-name="Group 52165" transform="translate(75.368 1416.813)">
      <g id="Group_52051" data-name="Group 52051" transform="translate(72.632 1152.819)" opacity="0.1">
        <g id="Group_52056" data-name="Group 52056">
          <g id="Group_52055" data-name="Group 52055" clip-path="url(#clip-path)">
            <path id="Path_75758" data-name="Path 75758" d="M167.5,548.386A59.184,59.184,0,1,1,108.319,489.2,59.184,59.184,0,0,1,167.5,548.386" transform="translate(-49.135 -489.202)"/>
          </g>
        </g>
      </g>
      <path id="Path_75756" data-name="Path 75756" d="M168.947,558.273a50.741,50.741,0,1,1-50.741-50.741,50.741,50.741,0,0,1,50.741,50.741" transform="translate(13.167 654.655)" fill="#fff"/>
      <g id="Group_52063" data-name="Group 52063" transform="translate(95.632 1175.187)">
        <g id="Group_52062" data-name="Group 52062" clip-path="url(#clip-path-2)">
          <path id="Path_75764" data-name="Path 75764" d="M107.911,118.707c.674,0,2.589,1.236,3.023,1.125,1.242-.32,2.5-4.152,4.854-2.409a33.8,33.8,0,0,1,3.025,3.017c2.111,2.723-2.389,4.142-2.289,5.278.043.483,1.159,2.166,1.274,2.85,1.579.471,4.786-.9,5.066,1.486a31.735,31.735,0,0,1-.044,5.205c-.406,1.82-3.832,1.033-5.181,1.279.075.631-1.182,2.518-1.115,2.853.1.523,2.074,1.919,2.49,2.562a1.858,1.858,0,0,1-.116,2.5,25.257,25.257,0,0,1-3.109,3.112c-2.383,1.768-3.986-2.58-5.144-2.408-.639.095-1.931,1.059-2.734,1.123-.226,1.616.719,4.947-1.612,5.22a30.321,30.321,0,0,1-5.019-.044c-2.01-.45-1.008-3.76-1.282-5.176-1.366-.136-2.463-1.675-3.652-.708-1.255,1.021-2.228,3.41-4.278,1.993-.579-.4-3.562-3.485-3.648-4.039-.169-1.084.418-1.383.943-2.041.58-.728.268-.31.646-.644a18.24,18.24,0,0,0,1.317-1.321c.087-.194-1.167-2.457-1.15-3.021-1.453-.175-3.993.6-4.94-.819-.518-.773-.511-4.573-.329-5.572.452-2.488,3.623-.952,5.284-1.629-.029-.567,1.19-2.694,1.172-2.911-.079-.971-4.226-2.5-2.483-4.965A43.785,43.785,0,0,1,92.4,117.19a2.041,2.041,0,0,1,2.29.422c.507.421,1.551,1.892,1.968,2.148.611.375,2.517-1.02,3.343-1.053.283-1.672-.835-4.93,1.613-5.219a30.322,30.322,0,0,1,4.861.015c2.141.337,1.2,3.718,1.441,5.2m-2.272-2.969h-3.369v4.025c0,.836-1.733,1.036-2.295,1.262a27.844,27.844,0,0,1-3.232,1.468c-.9-.007-3.006-3.089-3.526-3l-2.278,2.233c-.179.422,2.868,2.533,2.926,3.462.046.747-.9,2.134-1.232,2.906-.2.452-.661,2.617-1.126,2.617h-4.4v3.557h4.4c.464,0,.933,2.165,1.126,2.617.32.747,1.273,2.234,1.232,2.906-.058.929-3.105,3.04-2.926,3.462l2.278,2.233c.26.045,1.472-1.312,1.738-1.6s.817-.772.856-.823c.114-.148.054-.442.119-.535a5.629,5.629,0,0,1,1.293.056c.515.158,1.779.974,2.486,1.266.592.245,2.562.505,2.562,1.369v4.025h3.369v-4.212c0-.6,2.189-1.055,2.67-1.261a17.31,17.31,0,0,1,2.857-1.281c.925.009,2.36,2.276,3.172,2.834.507.349,1.218-.62,1.6-1.039.164-.178.127-.521.209-.622.035-.043.72.053.9-.5-.622-.711-3.145-2.8-3.182-3.573-.007-.161.794-1.8.962-2.168.077-.171.288-.188.334-.3.338-.856.239-2.621,1.426-2.844,1.241-.233,2.927.107,4.208,0v-3.557h-4.586c-.272,0-1.1-2.847-1.313-3.367s-1.012-1.435-1.014-1.968c0-.915,3.261-3.226,3.082-3.65l-2.444-2.2c-.855.526-2.472,2.928-3.366,2.972-.608.03-2.007-.936-2.717-1.234-.569-.238-2.8-.634-2.8-1.314Z" transform="translate(-68.921 -92.17)" fill="#043929"/>
          <path id="Path_75765" data-name="Path 75765" d="M256.094,80.8l2.793,1.433c.286-.221.879-4.227.933-4.872a33.015,33.015,0,0,0-16.532-31.571c-.752-.43-3.655-1.566-3.831-2.161-.3-1.026.453-1.692,1.458-1.467,1.441.323,4.621,2.348,5.941,3.242a35.119,35.119,0,0,1,14.11,38.108c1.931,1.356,5.564,2.564,3.155,5.449L251.159,96.4a2.281,2.281,0,0,1-3.042-1.346l-.045-15.593c1.583-3.457,3.707-.706,5.573-.041.214.076.318.171.473-.09a35.78,35.78,0,0,0,.471-3.834,27.706,27.706,0,0,0-13.923-25.031c-.8-.446-3.371-1.421-3.783-1.831-.864-.86-.25-2.069,1.116-1.871,1.173.17,4.668,2.267,5.781,3.021A29.726,29.726,0,0,1,256.094,80.8m-5.819-.722V94.3l12.354-6.928Z" transform="translate(-192.217 -34.233)" fill="#043929"/>
          <path id="Path_75766" data-name="Path 75766" d="M21.549,255.046a3.949,3.949,0,0,1,2.041.682c4.083,2.062,8.091,4.948,12.137,7.144,2.1,2.79-1.045,3.822-2.9,5.149a27.408,27.408,0,0,0,32.926,2.23,22.808,22.808,0,0,1,2.4-1.723,1.116,1.116,0,0,1,1.319,1.512c-.4,1.306-6.7,4.4-8.153,4.953a29.508,29.508,0,0,1-28.109-3.807c-.568-.4-2.143-2-2.684-1.924a13.627,13.627,0,0,0-2.57,1.565,33.9,33.9,0,0,0,9.476,6.431A32.995,32.995,0,0,0,66.269,276.2c.941-.5,3.876-2.673,4.5-2.807a1.094,1.094,0,0,1,1.286,1.473c-.481,1.434-8.046,4.9-9.7,5.471a35.279,35.279,0,0,1-36.4-8.263c-2.27.741-5.228,3.77-6.424-.114.34-4.7-.437-9.987,0-14.612a2.327,2.327,0,0,1,2.023-2.3m.231,2.4v14.226l12.354-7.3Z" transform="translate(-15.761 -207.297)" fill="#043929"/>
          <path id="Path_75767" data-name="Path 75767" d="M26.048,8.592a33.147,33.147,0,0,0-12.357,6.643C5.918,21.939,2.115,31.189,2.267,41.452c.011.728.578,3.027-.117,3.469A1.389,1.389,0,0,1,.5,44.712,15.692,15.692,0,0,1,.02,41.266,37.73,37.73,0,0,1,1.392,30.453,35.042,35.042,0,0,1,26.029,6.328c.1-2.633-.827-7.135,3.339-6.2L41.946,7.389c2.161,2.045.922,3.261-1.054,4.536-3.7,2.387-7.891,4.367-11.656,6.687-3.106.694-3.287-2.093-3.279-4.4a27.692,27.692,0,0,0-17.6,19.651A32.631,32.631,0,0,0,7.7,42.2c.023.965.824,2.961-.645,3.1-1.571.145-1.523-1.866-1.6-3.1-.869-13.549,7.584-26.326,20.6-30.239Zm2.246-6.364V16.454L40.835,9.526Z" transform="translate(0 0)" fill="#043929"/>
          <path id="Path_75768" data-name="Path 75768" d="M147.9,175.7a11.173,11.173,0,0,1-15,1.183c-8.956-7.3-2.078-21.777,9.635-18.994,7.754,1.842,10.562,11.9,5.366,17.812m-2.487-.988c8.33-7.493-2.517-19.8-11.016-13.17-9.2,7.183,2.114,21.177,11.016,13.17" transform="translate(-104.694 -128.047)" fill="#043929"/>
        </g>
      </g>
    </g>
  </g>
</svg>
