<svg xmlns="http://www.w3.org/2000/svg" xmlns:xlink="http://www.w3.org/1999/xlink" width="80" height="80" viewBox="0 0 80 80">
  <defs>
    <clipPath id="clip-path">
      <rect id="Rectangle_19901" data-name="Rectangle 19901" width="45.88" height="45.906" fill="#fff"/>
    </clipPath>
  </defs>
  <g id="Group_51878" data-name="Group 51878" transform="translate(-20 -3888)">
    <circle id="Ellipse_152" data-name="Ellipse 152" cx="40" cy="40" r="40" transform="translate(20 3888)" fill="#ac8dc2"/>
    <g id="Group_51881" data-name="Group 51881" transform="translate(37.06 3905.047)">
      <g id="Group_51399" data-name="Group 51399" clip-path="url(#clip-path)">
        <path id="Path_75441" data-name="Path 75441" d="M28.071,33.343a6.665,6.665,0,0,1,3.455,2.3,5.917,5.917,0,0,1,3.516-.768c0-.064.006-.1-.008-.115a5.389,5.389,0,0,1-2.169-4.629q.013-7.355,0-14.709v-.575c-.61,0-1.178.033-1.74-.014a1.235,1.235,0,0,1-.776-.317c-.246-.282,0-.583.184-.848q2.045-2.864,4.082-5.734c.464-.651.813-.652,1.275,0Q37.95,10.816,40,13.7c.178.25.414.539.164.805a1.279,1.279,0,0,1-.774.324c-.564.048-1.135.015-1.733.015V25.406a4.573,4.573,0,0,1,3.991,3.7,5.232,5.232,0,0,1-2.041,5.719c.58.046,1.126.057,1.661.138a5.479,5.479,0,0,1,4.6,5.324c.007,1.618,0,3.237,0,4.855,0,.6-.164.765-.758.765H.763c-.6,0-.759-.163-.76-.762C0,43.525,0,41.906,0,40.288a5.525,5.525,0,0,1,5.4-5.418c.267,0,.535,0,.939,0a5.414,5.414,0,0,1-.226-8.674c-.5-.429-.4-1.013-.4-1.575q0-1.357,0-2.713a1.225,1.225,0,0,1,1.068-1.352c.63-.153,1.262-.3,1.9-.413.282-.049.359-.214.492-.426A1.229,1.229,0,0,0,9.016,18.1a9.709,9.709,0,0,1-.731-1.111,1.212,1.212,0,0,1,.167-1.716q1.165-1.191,2.355-2.357a1.2,1.2,0,0,1,1.676-.166c.538.335,1.075.674,1.6,1.034a.765.765,0,0,0,.694.069A1.263,1.263,0,0,0,15.8,12.588a13.452,13.452,0,0,1,.293-1.393,1.168,1.168,0,0,1,1.217-.988q1.737-.015,3.474,0A1.158,1.158,0,0,1,22,11.186c.158.629.311,1.261.415,1.9a.64.64,0,0,0,.51.587c.267.079.52.205.843.337V7.39c-.553,0-1.121.031-1.682-.013a1.249,1.249,0,0,1-.783-.3c-.248-.278-.013-.585.176-.851q2.059-2.883,4.113-5.77c.431-.6.793-.61,1.22-.011C28.2,2.393,29.6,4.341,30.967,6.3a.865.865,0,0,1,.154.714.963.963,0,0,1-.687.355c-.6.05-1.2.016-1.828.016-.014.185-.034.322-.034.458,0,1.983-.01,3.967.011,5.95a1.171,1.171,0,0,0,.27.655c.246.308.558.563.829.851a1.206,1.206,0,0,1,.178,1.6c-.347.568-.722,1.119-1.08,1.68a1.246,1.246,0,0,0,.642,1.545c.663.151,1.331.284,1.99.449a1.142,1.142,0,0,1,.953,1.192q.018,1.761,0,3.522a1.153,1.153,0,0,1-.962,1.187c-.66.162-1.332.28-1.988.456a.93.93,0,0,0-.466.371,1.22,1.22,0,0,0,.138,1.657,7.426,7.426,0,0,1,.653.992,1.3,1.3,0,0,1-.2,1.941c-.459.459-.925.91-1.47,1.444M12.283,27.624c.052.129.1.262.156.388a5.516,5.516,0,0,1,.061,4.732,5.581,5.581,0,0,1-1.7,2.091,6.332,6.332,0,0,1,3.547.806,6.705,6.705,0,0,1,6.24-2.474c-.559-.555-1.088-1.094-1.635-1.614a.785.785,0,0,0-.443-.2,7.784,7.784,0,0,1-5.967-3.429,2.847,2.847,0,0,0-.274-.291,4.628,4.628,0,0,0-.184-.471,7.7,7.7,0,0,1-.718-5.26,7.843,7.843,0,0,1,15.515,1.511,2.643,2.643,0,0,0,.369,1.324A17.119,17.119,0,0,1,28,26.428c.86-.952,2.166-.649,3.2-1.133V21.719a11,11,0,0,0-1.31-.278A2.321,2.321,0,0,1,27.6,19.618a1.692,1.692,0,0,1,.136-1.566c.412-.6.791-1.215,1.171-1.8a.6.6,0,0,0-.061-.127c-.5-.508-1-1.017-1.509-1.519-.314-.31-.619-.811-.971-.851s-.758.379-1.125.62c-1.75,1.153-1.427.86-2.981.291a1.371,1.371,0,0,1-.932-1.1c-.122-.621-.244-1.242-.4-1.855-.035-.139-.211-.343-.326-.345-1.108-.026-2.217-.016-3.36-.016a12.187,12.187,0,0,0-.3,1.4,2.256,2.256,0,0,1-1.74,2.2,1.761,1.761,0,0,1-1.692-.144c-.576-.408-1.184-.769-1.755-1.136a.929.929,0,0,0-.133.08c-.506.5-1.014,1-1.516,1.512-.3.3-.8.6-.83.93-.032.357.366.764.6,1.131,1.093,1.684.914,1.392.289,3.026a1.354,1.354,0,0,1-1.074.9c-.62.124-1.236.269-1.857.386a.4.4,0,0,0-.384.474c.021.856.007,1.713.007,2.57,0,.688.119.815.795.837a1.54,1.54,0,0,0,.233-.037,4.1,4.1,0,0,1,3.525,1.161c.314.3.578.66.865.992M31.7,44.747v-.442c0-1.538,0-3.077,0-4.615A5.249,5.249,0,0,0,26.327,34.3q-3.4-.019-6.8,0a5.243,5.243,0,0,0-5.344,5.369c-.006,1.554,0,3.108,0,4.662,0,.137.018.273.027.406h3.2V44.2q0-2.355,0-4.71c0-.577.165-.812.56-.817.412-.005.589.246.59.843q0,2.355,0,4.71v.517h8.769V44.2c0-1.6,0-3.2,0-4.8,0-.331.08-.605.429-.705.413-.119.72.166.722.683.006,1.617,0,3.235,0,4.852v.526Zm-27.429,0c0-.209,0-.38,0-.55,0-1.332,0-2.665,0-4a.573.573,0,0,1,.551-.646c.326-.036.589.256.6.655.011.634,0,1.269,0,1.9,0,.868,0,1.736,0,2.626h6.2c0-.923,0-1.823,0-2.723,0-.619-.01-1.237.006-1.856a.558.558,0,0,1,.6-.6.544.544,0,0,1,.55.595c0,.143,0,.285,0,.428,0,1.253,0,2.506,0,3.759a2.234,2.234,0,0,0,.085.426l.166-.022c0-.417-.02-.834,0-1.249.131-2.3-.428-4.667.671-6.873a3.952,3.952,0,0,0-2.107-.6c-2.045-.018-4.092-.035-6.137,0a4.225,4.225,0,0,0-4.234,3.74,39.122,39.122,0,0,0-.092,3.941c-.006.343,0,.686,0,1.043Zm40.454-.01c0-1.566.069-3.091-.016-4.607a4.313,4.313,0,0,0-4.353-4.11c-2.013-.03-4.028-.019-6.041,0a3.783,3.783,0,0,0-2.155.624,6.953,6.953,0,0,1,.689,3.387c-.028,1.411-.008,2.823-.005,4.235,0,.162.016.325.025.487l.146.016a2.435,2.435,0,0,0,.079-.434q.01-2.046,0-4.092c0-.391.16-.65.561-.689.339-.033.588.273.6.708.008.4,0,.793,0,1.189v3.286h6.2V44.2c0-1.316,0-2.633,0-3.949a.606.606,0,0,1,.559-.7c.347-.043.587.248.591.7.007.888,0,1.776,0,2.664,0,.6,0,1.2,0,1.82ZM22.958,23.234a3.408,3.408,0,0,0-2.011.615,5.055,5.055,0,0,0-.221,7.872,3.558,3.558,0,0,0,4.758-.291A5.134,5.134,0,0,0,25.77,24.6a3.668,3.668,0,0,0-2.812-1.363m9-9.569h1.121c.812,0,.968.158.968.975q0,5.875,0,11.749v.459l2.414-1.5v-.425q0-5.137,0-10.274c0-.842.143-.982,1-.983h1.081l-3.3-4.63-3.294,4.63m2.09,16.8a4.022,4.022,0,0,0,.871,2.6,3.01,3.01,0,0,0,4.832.041,4.332,4.332,0,0,0-.059-5.4,3,3,0,0,0-4.678,0,4.04,4.04,0,0,0-.965,2.758M11.829,30.32a3.953,3.953,0,0,0-.944-2.582,3,3,0,0,0-4.647-.087,4.331,4.331,0,0,0-.077,5.507,2.981,2.981,0,0,0,4.582.151,4.09,4.09,0,0,0,1.086-2.989M23.1,22.008a4.326,4.326,0,0,0-8.381,1.669c.069,1.882,1.526,3.763,3.047,3.937.5-3.547,1.82-4.94,5.334-5.606m2.572.89a6.674,6.674,0,0,0-13.3,1.16c.187,3.037,3.274,6.259,5.783,6.019a2.749,2.749,0,0,1-.092-.361,1.191,1.191,0,0,0-.958-1.065,5.452,5.452,0,0,1-3.483-6.069A5.5,5.5,0,0,1,24.3,21.894c.051.158.108.366.229.439.36.217.753.379,1.14.565M22.911,6.221h1.08c.872,0,1.008.138,1.008,1.029q0,2.641,0,5.282v.613c.816-.583,1.572-1.042,2.422-.107,0-2.084,0-4.019,0-5.954,0-.682.184-.861.879-.863.368,0,.736,0,1.2,0l-3.3-4.63-3.3,4.63m6.033,24.638-1-1.551a6,6,0,0,1-2.851,3.845c.445,0,.739.014,1.031,0,.212-.013.491.005.622-.117.751-.7,1.466-1.438,2.2-2.173" transform="translate(0 0)" fill="#fff"/>
      </g>
    </g>
  </g>
</svg>
