<svg xmlns="http://www.w3.org/2000/svg" xmlns:xlink="http://www.w3.org/1999/xlink" width="80" height="80" viewBox="0 0 80 80">
  <defs>
    <clipPath id="clip-path">
      <rect id="Rectangle_19900" data-name="Rectangle 19900" width="51.309" height="45.786" fill="#fff"/>
    </clipPath>
  </defs>
  <g id="Group_51876" data-name="Group 51876" transform="translate(-20 -3888)">
    <circle id="Ellipse_152" data-name="Ellipse 152" cx="40" cy="40" r="40" transform="translate(20 3888)" fill="#ac8dc2"/>
    <g id="Group_51877" data-name="Group 51877" transform="translate(34.176 3905.107)">
      <g id="Group_51397" data-name="Group 51397" transform="translate(0 0)" clip-path="url(#clip-path)">
        <path id="Path_75432" data-name="Path 75432" d="M264.161,211.326l1.363-.2c.554-.079,1.107-.162,1.662-.234a.232.232,0,0,0,.225-.2,10.9,10.9,0,0,1,1.133-2.74.257.257,0,0,0-.027-.336c-.608-.8-1.21-1.608-1.8-2.4l3.38-3.36,1.33,1c.363.272.728.541,1.086.819a.215.215,0,0,0,.281.017,11.1,11.1,0,0,1,2.738-1.138.274.274,0,0,0,.231-.273c.136-1,.283-1.991.428-3h4.744c.058.391.117.787.174,1.183.089.624.172,1.249.271,1.872a.292.292,0,0,0,.168.2,11.629,11.629,0,0,1,2.815,1.176c.116.068.18.018.261-.043q1.139-.856,2.279-1.709c.056-.042.114-.082.155-.111l3.362,3.362-.729.974c-.357.476-.711.955-1.075,1.426a.27.27,0,0,0-.027.355,10.454,10.454,0,0,1,1.12,2.722c.048.189.166.2.306.22l2.819.4c.041.006.082.017.143.03,0,.078.01.153.01.228,0,1.432,0,2.864,0,4.3,0,.17-.046.228-.218.251-.927.122-1.851.263-2.778.387a.3.3,0,0,0-.293.262,10.571,10.571,0,0,1-1.079,2.625.338.338,0,0,0,.019.445c.6.785,1.192,1.584,1.778,2.367l-3.368,3.357c-.137-.1-.3-.221-.464-.342-.652-.488-1.306-.975-1.954-1.469a.241.241,0,0,0-.317-.021,10.941,10.941,0,0,1-2.719,1.129.273.273,0,0,0-.236.268c-.134,1-.281,1.991-.425,3h-4.744c-.058-.388-.119-.784-.175-1.18-.089-.624-.171-1.249-.27-1.872a.292.292,0,0,0-.168-.2,11.508,11.508,0,0,1-2.814-1.177c-.126-.075-.194-.012-.278.052l-2.21,1.659-.206.152-3.361-3.367c.249-.334.519-.7.789-1.056.34-.454.678-.909,1.024-1.358a.243.243,0,0,0,.023-.319,10.8,10.8,0,0,1-1.13-2.74.245.245,0,0,0-.242-.21c-.947-.13-1.893-.27-2.84-.4-.117-.016-.192-.035-.192-.186.005-1.489,0-2.977,0-4.466,0-.034.008-.069.014-.125m4.047-6.018c.037.051.081.114.127.175.522.7,1.041,1.4,1.571,2.09a.238.238,0,0,1,.008.331,9.3,9.3,0,0,0-1.11,2.17c-.178.514-.325,1.04-.463,1.566a.363.363,0,0,1-.368.294c-.835.11-1.669.235-2.5.346-.153.02-.2.082-.195.232.007.772.013,1.545,0,2.317,0,.216.07.275.267.3.863.115,1.724.247,2.587.365a.216.216,0,0,1,.221.2,10.2,10.2,0,0,0,1.58,3.821.222.222,0,0,1-.018.313c-.249.318-.487.644-.73.967l-.961,1.282,1.971,1.968c.74-.555,1.5-1.122,2.257-1.7a.217.217,0,0,1,.3-.014,10.238,10.238,0,0,0,3.841,1.588.2.2,0,0,1,.189.208c.123.891.255,1.781.376,2.672.019.142.066.191.211.19q1.2-.009,2.4,0c.139,0,.2-.035.216-.184.1-.737.248-1.47.3-2.209.036-.5.22-.687.715-.786a9.3,9.3,0,0,0,3.37-1.462.24.24,0,0,1,.334.011c.425.331.859.649,1.29.972l.961.719,1.969-1.959c-.038-.052-.082-.115-.128-.177q-.79-1.055-1.582-2.108c-.062-.083-.106-.145-.029-.257a10.337,10.337,0,0,0,1.613-3.876.188.188,0,0,1,.189-.178c.87-.119,1.738-.252,2.609-.367.2-.026.27-.089.265-.3q-.023-1.116,0-2.232c0-.221-.052-.3-.282-.33-.857-.106-1.711-.243-2.567-.357a.228.228,0,0,1-.226-.22,10.2,10.2,0,0,0-1.577-3.8.224.224,0,0,1,.013-.313c.532-.7,1.057-1.4,1.584-2.107.045-.06.086-.124.1-.148l-1.952-1.975c-.744.557-1.5,1.12-2.249,1.69a.241.241,0,0,1-.334.018,10.216,10.216,0,0,0-3.8-1.57c-.147-.029-.192-.094-.211-.234-.122-.891-.255-1.781-.378-2.672-.017-.123-.058-.17-.185-.169q-1.223.006-2.445,0c-.119,0-.175.03-.192.161-.106.779-.226,1.556-.334,2.334-.072.522-.066.522-.566.639a10.128,10.128,0,0,0-3.4,1.456.361.361,0,0,1-.513-.022c-.356-.292-.732-.559-1.1-.835s-.723-.54-1.066-.8l-1.967,1.961" transform="translate(-252.909 -190.807)" fill="#fff"/>
        <path id="Path_75433" data-name="Path 75433" d="M107.329,1.082l1.093-.307,1.2,4.272-4.272,1.2-.308-1.093,2.315-.652,0-.069A20.982,20.982,0,0,0,91.03,1.793,20.629,20.629,0,0,0,80.758,7.729,21.078,21.078,0,0,0,75.29,18.286l-1.081-.208A21.942,21.942,0,0,1,87.227,1.885c7.146-3.02,14.075-2.342,20.761,1.57l-.66-2.373" transform="translate(-71.053 -0.003)" fill="#fff"/>
        <path id="Path_75434" data-name="Path 75434" d="M301.6,661.451l.666,2.383-1.092.311-1.2-4.274,4.271-1.2c.1.348.2.678.277,1.012.007.031-.086.111-.145.128-.632.184-1.267.36-1.9.538-.073.021-.145.045-.273.085a21.159,21.159,0,0,0,7.31,2.9,20.665,20.665,0,0,0,7.817.033,21.181,21.181,0,0,0,16.957-16.762l1.087.213a21.972,21.972,0,0,1-13.035,16.194c-7.138,3.013-14.062,2.336-20.741-1.567" transform="translate(-287.216 -619.11)" fill="#fff"/>
        <path id="Path_75435" data-name="Path 75435" d="M868.534,166.4c-.381-.157-.739-.311-1.1-.447a.217.217,0,0,0-.19.08q-.391.632-.76,1.279a.23.23,0,0,1-.291.128,6.264,6.264,0,0,0-2.594,0,.231.231,0,0,1-.291-.129c-.266-.467-.545-.927-.835-1.417l-1.215.5c.1.409.2.8.3,1.2.046.185.163.4.111.55s-.287.229-.423.358c-.419.4-.831.807-1.243,1.213a1.789,1.789,0,0,0-.131.162c-.253-.248-.5-.481-.732-.728a.22.22,0,0,1,.028-.207c.337-.363.673-.728,1.035-1.065a.377.377,0,0,0,.147-.444c-.16-.557-.292-1.123-.442-1.712l3.037-1.259c.233.392.46.774.688,1.156.112.188.186.448.353.542s.421.01.637.014c.347.006.693.028,1.04.023a.315.315,0,0,0,.222-.133c.28-.452.546-.912.817-1.368.043-.072.089-.143.145-.231l3.029,1.254c-.088.353-.173.7-.26,1.048-.074.3-.257.618-.191.877.063.243.393.414.6.625a5.933,5.933,0,0,1,.5.552.29.29,0,0,0,.363.107c.574-.154,1.151-.3,1.75-.451l1.26,3.039-1.1.654c-.176.105-.36.2-.527.319a.306.306,0,0,0-.114.212c-.009.509,0,1.018-.008,1.527a.226.226,0,0,0,.137.23c.531.312,1.059.628,1.606.954-.132.321-.261.633-.39.945-.266.641-.535,1.281-.794,1.925-.054.133-.112.163-.252.124-.533-.145-1.072-.267-1.6-.415a.276.276,0,0,0-.321.107q-.5.524-1.021,1.019a.251.251,0,0,0-.092.288c.139.52.27,1.042.4,1.563.019.074.033.149.053.24l-3.029,1.255-.478-.8c-.156-.262-.317-.521-.463-.788a.27.27,0,0,0-.288-.151c-.509.01-1.018,0-1.527,0-.185,0-.242-.071-.233-.255.016-.3,0-.593,0-.914.089.009.163.014.236.023a6.193,6.193,0,0,0,2.092-.086.237.237,0,0,1,.3.139c.266.467.546.926.83,1.4l1.215-.5c-.138-.543-.266-1.072-.409-1.6a.225.225,0,0,1,.112-.3,6.084,6.084,0,0,0,1.848-1.851.213.213,0,0,1,.281-.094c.472.127.947.242,1.418.369.135.036.2.011.252-.129.109-.3.235-.593.365-.883a.165.165,0,0,0-.081-.254c-.424-.243-.84-.5-1.265-.742a.231.231,0,0,1-.138-.287,6.107,6.107,0,0,0,0-2.593.24.24,0,0,1,.142-.3c.42-.235.829-.491,1.247-.731.119-.068.16-.129.1-.265-.136-.3-.259-.6-.377-.9-.045-.115-.094-.146-.22-.112-.471.129-.948.237-1.419.367a.228.228,0,0,1-.272-.088c-.344-.4-.676-.82-1.048-1.2a6.38,6.38,0,0,0-.833-.656.236.236,0,0,1-.107-.3c.141-.518.269-1.041.409-1.588" transform="translate(-822.585 -157.467)" fill="#fff"/>
        <path id="Path_75436" data-name="Path 75436" d="M9.983,491.778A6.735,6.735,0,0,0,8,491.791c-.5.082-.5.078-.752-.354L6.576,490.3c-.383.16-.761.313-1.133.479-.033.015-.052.119-.04.172.114.475.229.95.36,1.421a.251.251,0,0,1-.12.332,6.061,6.061,0,0,0-1.817,1.822.237.237,0,0,1-.313.111c-.518-.14-1.04-.268-1.577-.4-.16.385-.319.755-.463,1.13-.015.039.05.136.1.167.417.255.836.506,1.262.746a.243.243,0,0,1,.138.306,6.3,6.3,0,0,0-.009,2.552.282.282,0,0,1-.166.354c-.415.23-.819.48-1.228.719-.087.051-.145.093-.092.214.155.349.3.7.453,1.086l.982-.247c.22-.056.437-.124.659-.163a.264.264,0,0,1,.22.085,6.353,6.353,0,0,0,1.882,1.878c.122.077.126.159.092.284-.139.519-.269,1.041-.409,1.59.382.159.757.32,1.139.465.037.014.131-.058.164-.112.255-.417.507-.836.748-1.261a.228.228,0,0,1,.288-.132,6.171,6.171,0,0,0,2.573,0,.254.254,0,0,1,.325.14c.225.4.465.795.7,1.191.039.066.083.129.134.209l1.206-.5c-.075-.3-.146-.593-.22-.885-.063-.247-.125-.494-.193-.74a.191.191,0,0,1,.093-.246,6.152,6.152,0,0,0,1.663-1.567l.828.866c-.372.364-.765.759-1.171,1.14a.277.277,0,0,0-.108.322c.148.532.278,1.069.416,1.6.026.1.047.184-.087.238-.963.393-1.924.793-2.905,1.2-.115-.191-.228-.376-.339-.563-.2-.329-.394-.656-.58-.99a.311.311,0,0,0-.348-.182,11.824,11.824,0,0,1-1.379,0,.3.3,0,0,0-.331.178c-.3.515-.6,1.024-.921,1.56l-3.036-1.257c.128-.506.227-1.006.386-1.487a.609.609,0,0,0-.236-.8,5.667,5.667,0,0,1-.812-.835.263.263,0,0,0-.31-.093c-.587.157-1.177.306-1.784.462L0,499.818,1.374,499a.993.993,0,0,1,.147-.085c.2-.075.226-.205.214-.414-.026-.451-.008-.905.009-1.357a.249.249,0,0,0-.135-.271c-.533-.308-1.06-.625-1.606-.948.1-.249.2-.49.3-.73.3-.713.594-1.425.883-2.141.054-.133.111-.163.252-.125.539.147,1.085.272,1.624.419a.247.247,0,0,0,.287-.1c.337-.353.681-.7,1.036-1.035a.253.253,0,0,0,.091-.289c-.14-.527-.273-1.055-.407-1.583-.017-.067-.028-.136-.045-.219l3.029-1.255c.261.437.541.856.766,1.3a.64.64,0,0,0,.764.423,7.7,7.7,0,0,1,1.208.017c.142,0,.2.054.2.2-.009.31,0,.621,0,.962" transform="translate(0 -468.079)" fill="#fff"/>
        <path id="Path_75437" data-name="Path 75437" d="M938.271,316.742a2.628,2.628,0,1,1-2.642-2.633,2.621,2.621,0,0,1,2.642,2.633m-2.62,1.494a1.493,1.493,0,1,0-1.5-1.478,1.5,1.5,0,0,0,1.5,1.478" transform="translate(-893.333 -300.749)" fill="#fff"/>
        <path id="Path_75438" data-name="Path 75438" d="M155.013,641.354a2.629,2.629,0,1,1-2.722-2.6,2.637,2.637,0,0,1,2.722,2.6m-2.637-1.47a1.492,1.492,0,1,0,1.5,1.476,1.5,1.5,0,0,0-1.5-1.476" transform="translate(-143.386 -611.583)" fill="#fff"/>
        <path id="Path_75439" data-name="Path 75439" d="M478.01,404.922l-.756.759a14.671,14.671,0,0,0-1.347-.7,4.591,4.591,0,1,0,2.95,4.824c.035-.329.01-.664.019-1a.3.3,0,0,1,.06-.187c.278-.291.565-.575.854-.865a5.626,5.626,0,0,1-2.235,6.238,5.735,5.735,0,1,1,.456-9.072" transform="translate(-448.643 -386.382)" fill="#fff"/>
        <path id="Path_75440" data-name="Path 75440" d="M525.548,450.069l5.227-5.188.774.832-6.031,5.939-3-3.089.755-.748,2.278,2.254" transform="translate(-500.292 -425.96)" fill="#fff"/>
      </g>
    </g>
  </g>
</svg>
