<svg xmlns="http://www.w3.org/2000/svg" xmlns:xlink="http://www.w3.org/1999/xlink" width="80" height="80" viewBox="0 0 80 80">
  <defs>
    <clipPath id="clip-path">
      <rect id="Rectangle_19903" data-name="Rectangle 19903" width="44" height="44" transform="translate(-0.213 -0.213)" fill="#fff"/>
    </clipPath>
  </defs>
  <g id="Group_51880" data-name="Group 51880" transform="translate(-20 -3888)">
    <circle id="Ellipse_152" data-name="Ellipse 152" cx="40" cy="40" r="40" transform="translate(20 3888)" fill="#ac8dc2"/>
    <g id="Group_51883" data-name="Group 51883" transform="translate(38.213 3906.213)">
      <g id="Group_51403" data-name="Group 51403" clip-path="url(#clip-path)">
        <path id="Path_75445" data-name="Path 75445" d="M22.893,43.574H21.872c-.414-.258-.85-.489-1.233-.786a.561.561,0,0,0-.7-.113A2.147,2.147,0,0,1,17.084,41.6a6.635,6.635,0,0,1-.255-.821c-.044-.01-.1-.024-.152-.035a2.188,2.188,0,0,1-1.89-1.861.446.446,0,0,0-.3-.253,2.238,2.238,0,0,1-1.814-1.848.434.434,0,0,0-.281-.267,2.216,2.216,0,0,1-1.835-1.87.489.489,0,0,0-.167-.3c-.633-.4-1.277-.776-1.866-1.129-.167.2-.3.5-.451.5a5.13,5.13,0,0,1-1.589-.135c-1.407-.42-2.79-.922-4.186-1.38-.762-.25-1.532-.477-2.3-.715V16.851A5.746,5.746,0,0,1,4.428,18.1c.011.009.026.013.036.022a2.539,2.539,0,0,0,2.89.384,3.927,3.927,0,0,0,.373-.212,1.613,1.613,0,0,0-.258-.4,4.667,4.667,0,0,1-1.761-3.052,17.292,17.292,0,0,1-.083-2.2A4.875,4.875,0,0,1,9.618,7.825c.355-.068.721-.082,1.128-.126-.191-.464-.349-.916-.562-1.341a.525.525,0,0,1,.129-.728c.89-.854,1.754-1.736,2.623-2.611.266-.268.517-.552.772-.825.7.455,1.322.874,1.963,1.265a.632.632,0,0,0,.484.058c.726-.275,1.442-.577,2.154-.885a.5.5,0,0,0,.279-.265c.174-.785.321-1.577.476-2.366H24.51c.155.789.3,1.581.478,2.365.025.111.194.218.32.273.673.293,1.362.551,2.027.859a.536.536,0,0,0,.611-.049c.617-.42,1.25-.817,1.892-1.234,1.2,1.2,2.387,2.383,3.555,3.58a.512.512,0,0,1,.036.438c-.184.494-.4.976-.625,1.5a4.848,4.848,0,0,1,4.208,2.121,6.1,6.1,0,0,1,.958,3.71,5.237,5.237,0,0,1-1.95,4.408.477.477,0,0,0-.154.351c0,.063.184.138.3.168a17.269,17.269,0,0,1,2.493.67,2.036,2.036,0,0,0,2.176-.281,3.667,3.667,0,0,1,2.743-.58V28.6a.815.815,0,0,0-.16.043Q37.3,31.69,31.194,34.757a.7.7,0,0,0-.278.49A2.116,2.116,0,0,1,29.145,37.2a.4.4,0,0,0-.375.369,2.078,2.078,0,0,1-1.763,1.762c-.111.021-.277.124-.293.213a2.2,2.2,0,0,1-2.1,1.944,2.3,2.3,0,0,1-1.718,2.09M42.149,19.8c-.2.1-.351.178-.5.255q-6.012,3.163-12.02,6.335a2.219,2.219,0,0,1-1.413.314,7.637,7.637,0,0,1-.91-.189q-1.8-.5-3.588-1.026a3.275,3.275,0,0,0-2.442.16q-1.9.936-3.793,1.9a1.045,1.045,0,0,0-.481,1.467.963.963,0,0,0,1.432.272c.757-.445,1.507-.9,2.261-1.351a2.855,2.855,0,0,1,3.735.341q2.808,2.507,5.593,5.04a.493.493,0,0,0,.66.1q5.538-2.79,11.093-5.548a.579.579,0,0,0,.377-.612c-.013-2.326-.007-4.651-.007-6.977ZM20.22,24.577c-.177-.066-.255-.1-.335-.126A7.236,7.236,0,0,0,16.3,23.96c-1.767.314-3.514.735-5.273,1.095a.466.466,0,0,0-.4.4c-.206.764-.435,1.522-.651,2.283-.378,1.329-.754,2.659-1.135,4l2.129,1.277c.522-.524.994-1.057,1.526-1.52A2.162,2.162,0,0,1,16.1,32.689a.462.462,0,0,0,.429.409A2.113,2.113,0,0,1,18.2,34.676a4.434,4.434,0,0,1,.088.444,2.239,2.239,0,0,1,2.075,1.954c.013.081.161.179.26.2a2.854,2.854,0,0,1,1.528.986,13.173,13.173,0,0,0,1.966,1.664.742.742,0,0,0,1.142-.4.821.821,0,0,0-.373-.882q-1.358-1.127-2.713-2.258c-.277-.231-.552-.466-.839-.708l.912-1.079c.813.677,1.585,1.321,2.359,1.964.491.408.971.829,1.479,1.214a.837.837,0,0,0,1.152-.111.728.728,0,0,0-.189-1.078c-.319-.281-.65-.548-.977-.821l-2.626-2.193.9-1.085c.19.156.353.288.514.422q1.584,1.321,3.169,2.641a.9.9,0,0,0,1.295.019c.3-.357.214-.791-.254-1.213q-2.764-2.492-5.531-4.981a1.535,1.535,0,0,0-2.115-.214q-1.168.695-2.332,1.4a2.316,2.316,0,0,1-1.877.278,2.214,2.214,0,0,1-1.707-1.86,2.284,2.284,0,0,1,1.1-2.555c.794-.46,1.636-.838,2.457-1.253.362-.183.722-.369,1.157-.591M14.8,22.7a.381.381,0,0,0,.1.03,2.208,2.208,0,0,0,.251-.035,9.167,9.167,0,0,1,4.694.259c1.2.371,2.412.691,3.621,1.028q2.226.62,4.456,1.227a3.614,3.614,0,0,0,.5.08c.269.034.384-.076.379-.359-.013-.766.011-1.532-.009-2.3A2.078,2.078,0,0,0,27.078,20.5c-1.151-.291-2.3-.583-3.458-.855-.323-.076-.484-.19-.453-.56a10.717,10.717,0,0,0,0-1.4.547.547,0,0,1,.318-.574,3.285,3.285,0,0,0,1.756-2.565,9.462,9.462,0,0,0-.061-2.5,3.476,3.476,0,0,0-3.269-2.889,3.389,3.389,0,0,0-3.483,2.6,10.608,10.608,0,0,0-.131,2.367,2.865,2.865,0,0,0,1.221,2.541,1.8,1.8,0,0,1,.881,2,1.023,1.023,0,0,0,0,.3c.073.428-.089.611-.531.706-1.147.245-2.281.55-3.418.842A2.055,2.055,0,0,0,14.8,22.7m15.4,1.781,7.62-4.015c-1.03-.341-2.016-.593-3.006-.826-.273-.065-.406-.168-.387-.48a14.143,14.143,0,0,0,0-1.445.583.583,0,0,1,.332-.609,3.225,3.225,0,0,0,1.7-2.411,11.86,11.86,0,0,0,.045-2.246,3.6,3.6,0,0,0-2.984-3.251A3.384,3.384,0,0,0,29.7,11.7a9.621,9.621,0,0,0-.167,2.1,3.552,3.552,0,0,0,1.847,3.353.656.656,0,0,1,.254.458c.033.48-.016.965.021,1.445.029.375-.114.518-.464.591-.64.134-1.27.31-1.958.482a3.4,3.4,0,0,1,.953,2.026c.049.733.011,1.473.011,2.315m-15.85-4.343c-.7-.174-1.307-.348-1.929-.473-.363-.073-.533-.206-.5-.609a8.845,8.845,0,0,0,0-1.317.6.6,0,0,1,.347-.639,3.164,3.164,0,0,0,1.548-1.845,6.006,6.006,0,0,0-.063-3.839,3.449,3.449,0,0,0-6.624.542,12.309,12.309,0,0,0-.084,1.778A3.563,3.563,0,0,0,8.9,17.162a.561.561,0,0,1,.235.392c.026.566.026,1.134,0,1.7a.466.466,0,0,1-.265.327c-.4.136-.809.225-1.277.347.179.11.3.185.416.256.989.579,1.976,1.164,2.971,1.732a.442.442,0,0,1,.267.466c-.022.38-.006.762-.006,1.171.648-.14,1.283-.268,1.911-.422a.342.342,0,0,0,.2-.259,3.742,3.742,0,0,1,1-2.741m2.477-6.761c.037-.507.033-1.022.12-1.521a4.68,4.68,0,0,1,3.216-3.833A4.7,4.7,0,0,1,25.09,9.054c1.9,1.659,1.959,5,1.231,6.89A4.822,4.822,0,0,1,24.862,17.9a1.687,1.687,0,0,0-.262.393,1.935,1.935,0,0,0,.407.225c.7.189,1.394.368,2.1.53a1.339,1.339,0,0,0,.583.005c.743-.173,1.481-.368,2.219-.565.109-.029.295-.127.288-.168a.769.769,0,0,0-.185-.381,10.593,10.593,0,0,1-.831-.846c-1.43-1.957-1.3-4.1-.706-6.291a.8.8,0,0,0,.013-.538,7.363,7.363,0,0,0-5.742-3.847,7.512,7.512,0,0,0-7.617,3.762.725.725,0,0,0-.056.705,7.263,7.263,0,0,1-.088,5.266,4.7,4.7,0,0,1-1.407,1.786.577.577,0,0,0-.193.373c0,.058.2.154.319.186.723.195,1.448.386,2.177.555a1.326,1.326,0,0,0,.583,0c.743-.174,1.481-.369,2.218-.567.106-.029.277-.12.276-.18a.582.582,0,0,0-.17-.345c-.262-.277-.57-.514-.812-.807a5.381,5.381,0,0,1-1.152-3.778M14.057,9.165A9.189,9.189,0,0,1,29.482,9.1a3.708,3.708,0,0,0,2.253-2.5.129.129,0,0,1,.015-.04.363.363,0,0,0-.086-.518c-.611-.591-1.214-1.192-1.8-1.806-.182-.19-.312-.165-.5-.034-.479.328-.963.65-1.462.946a.52.52,0,0,1-.445.017,11.407,11.407,0,0,0-3.359-1.383.414.414,0,0,1-.357-.393c-.119-.651-.274-1.295-.416-1.951H20.258c-.139.633-.3,1.248-.4,1.874a.517.517,0,0,1-.462.5,9.849,9.849,0,0,0-3.158,1.309.526.526,0,0,1-.679-.028c-.532-.364-1.079-.707-1.635-1.069-.707.712-1.382,1.379-2.035,2.067a.505.505,0,0,0-.07.433c.171.478.379.944.583,1.41a.624.624,0,0,0,.2.257c.474.325.958.638,1.458.968M1.426,18.26v.6q0,3.805,0,7.611c0,1.2-.006,2.409.009,3.614a.492.492,0,0,0,.2.386c.911.33,1.834.628,2.784.946L6.964,21.223C5.3,20.256,3.681,19.3,2.048,18.37a2.087,2.087,0,0,0-.622-.111M7.193,32.335c.35-1.229.682-2.4,1.015-3.563q.768-2.69,1.536-5.38c.058-.205.2-.434-.09-.6-.452-.258-.9-.522-1.412-.818L5.768,31.862l1.425.473m7.652.729a3.286,3.286,0,0,0-.547-.626.686.686,0,0,0-.89.153c-.391.369-.772.751-1.145,1.138a.783.783,0,1,0,1.1,1.1c.37-.35.737-.706,1.078-1.084a4.221,4.221,0,0,0,.4-.676m2.106,2.122a3.247,3.247,0,0,0-.529-.631.66.66,0,0,0-.86.1q-.623.576-1.207,1.194a.779.779,0,0,0-.033,1.167.791.791,0,0,0,1.137-.077c.379-.362.754-.729,1.107-1.115a4.059,4.059,0,0,0,.385-.642m-.1,4.19c.214-.057.354-.053.424-.12.539-.517,1.094-1.022,1.58-1.586a.638.638,0,0,0-.14-.883.665.665,0,0,0-.927-.091,11.976,11.976,0,0,0-1.458,1.473.9.9,0,0,0-.022.774c.09.2.383.314.542.433m2.283,2.073a.659.659,0,0,0,.288-.1c.52-.5,1.053-.986,1.522-1.53a.746.746,0,0,0-1.011-1.031,10.976,10.976,0,0,0-1.525,1.523c-.365.458.065,1.145.727,1.142m2.227.08c.384.4.772.808,1.354.551a.891.891,0,0,0,.423-.646c.037-.57-.507-.727-.8-1.042l-.98,1.137" fill="#fff"/>
      </g>
    </g>
  </g>
</svg>
