<svg xmlns="http://www.w3.org/2000/svg" xmlns:xlink="http://www.w3.org/1999/xlink" width="120" height="120" viewBox="0 0 120 120">
  <defs>
    <clipPath id="clip-path">
      <rect id="Rectangle_19945" data-name="Rectangle 19945" width="62.362" height="67.809" fill="#fff"/>
    </clipPath>
  </defs>
  <g id="Group_51755" data-name="Group 51755" transform="translate(-1)">
    <path id="Path_171" data-name="Path 171" d="M120,210a60,60,0,1,1-60-60,60,60,0,0,1,60,60" transform="translate(1 -150)" fill="#239f79"/>
    <g id="Group_51446" data-name="Group 51446" transform="translate(29.819 26.096)">
      <g id="Group_51436" data-name="Group 51436" clip-path="url(#clip-path)">
        <path id="Path_75495" data-name="Path 75495" d="M36.532,122.274h-25.2a4.512,4.512,0,0,1-1.481-.046,6.2,6.2,0,0,1-1.35-.942,7.789,7.789,0,0,1,1.27-1.03,2.293,2.293,0,0,1,1.1-.041c1.047.063,1.4-.42,1.394-1.451q-.046-10.254.006-20.508c.007-1.166-.424-1.574-1.528-1.473a2.691,2.691,0,0,1-1.288-.072c-.383-.174-.893-.605-.9-.928a1.4,1.4,0,0,1,.825-1.009,5.753,5.753,0,0,1,1.844-.146q25.29-.009,50.58,0a2.878,2.878,0,0,1,.373,0c.92.119,2.307-.313,2.332,1.14.024,1.42-1.338,1.029-2.167.994-1.3-.055-1.538.534-1.531,1.678.04,6.587.059,13.175-.011,19.761-.016,1.5.373,2.245,1.965,2.023.243-.034.568-.086.731.036a10.345,10.345,0,0,1,1.07,1.041c-.328.309-.609.765-1,.89a5.582,5.582,0,0,1-1.666.085q-12.691.005-25.383,0M26.045,96.8c-1.825,0-3.438-.088-5.03.057A1.717,1.717,0,0,0,19.85,98.05q-.11,10.429-.01,20.86c0,.429.6,1.193.96,1.221,1.709.131,3.433.058,5.246.058Zm14.013,11.716v-7.27c0-4.557,0-4.5-4.516-4.486-1.413,0-1.8.473-1.789,1.837.063,5.716-.036,11.434.044,17.149.073,5.254-1.131,4.352,4.689,4.484,1.24.028,1.61-.462,1.591-1.648-.056-3.355-.019-6.711-.018-10.066m7.627-.046c0,2.736-.032,5.473.008,8.209.058,3.924-.72,3.445,3.581,3.564,1.546.042,2.047-.474,2.028-2.022-.074-5.845,0-11.691-.04-17.536-.034-4.443.756-3.813-3.993-3.909-1.22-.025-1.628.4-1.6,1.621.066,3.357.023,6.716.021,10.074m-19.312-.038c0,3.348.022,6.7-.013,10.043-.011,1.071.134,1.777,1.481,1.766,1.217-.01,1.819-.306,1.81-1.666q-.066-10.136,0-20.272c.008-1.3-.6-1.509-1.717-1.542-1.247-.036-1.6.437-1.581,1.628.061,3.347.021,6.695.021,10.043m17.125.247c0-3.419-.036-6.838.02-10.255.019-1.176-.316-1.672-1.574-1.664-1.17.007-1.663.3-1.654,1.568q.071,10.162,0,20.325c-.009,1.257.481,1.587,1.654,1.589,1.245,0,1.6-.5,1.575-1.679-.06-3.293-.021-6.588-.021-9.883m-31.037-.349c0,3.417.04,6.836-.021,10.253-.021,1.194.348,1.664,1.585,1.658,1.19-.006,1.643-.377,1.635-1.615q-.069-10.159,0-20.319c.009-1.3-.562-1.54-1.691-1.54-1.107,0-1.549.336-1.529,1.5.059,3.355.021,6.711.02,10.066m44.154.282c0-3.416-.043-6.833.023-10.248.024-1.233-.414-1.6-1.616-1.6-1.238,0-1.6.453-1.593,1.647q.063,10.154,0,20.31c-.006,1.141.419,1.517,1.53,1.519,1.139,0,1.7-.271,1.676-1.563-.07-3.352-.024-6.707-.023-10.061" transform="translate(-5.32 -59.188)" fill="#fff"/>
        <path id="Path_75496" data-name="Path 75496" d="M46.126,6.535c.43.327.829.491,1,.787.429.742.754,1.544,1.121,2.322a8.529,8.529,0,0,1-2.441.975,51.887,51.887,0,0,1-6.343.023c-1.816-.1-2.209.631-1.839,1.73,3.946,1.277,7.744,2.1,11.178,3.709a20.286,20.286,0,0,1,11.127,13.1c.37,1.247.89,1.817,2.182,1.654a2.6,2.6,0,0,1,1.291.048,5.427,5.427,0,0,1,1.169.941,6.036,6.036,0,0,1-1.189,1.153,2.921,2.921,0,0,1-1.287.061q-25.579,0-51.158,0c-.374,0-.824.122-1.1-.042a9.361,9.361,0,0,1-1.362-1.169c.449-.33.956-1,1.337-.935,2.429.419,2.992-1,3.739-2.936,3.332-8.646,10.044-13.1,18.963-14.6.552-.092,1.111-.14,1.663-.227.365-.057.724-.148,1.3-.267q0-5.006,0-10.025a4.591,4.591,0,0,1,.036-1.48A6.21,6.21,0,0,1,36.443,0a12.463,12.463,0,0,1,1.123,1.209c.156.215.122.566.2,1,2.615,0,5.162-.087,7.7.045a10.822,10.822,0,0,1,2.794.938c-.467.853-.925,1.712-1.409,2.555a6.289,6.289,0,0,1-.725.787M15.3,30.684H57.756c-.733-6.92-9.051-15.5-21.317-15.433-10.453.055-21.045,7.689-21.136,15.433M37.6,4.646a21.707,21.707,0,0,0,.034,2.7c.051.387.453,1.026.72,1.038,1.978.088,3.962.048,5.767.048V4.646Z" transform="translate(-5.299)" fill="#fff"/>
        <path id="Path_75497" data-name="Path 75497" d="M31.111,177.247H2.723a3.861,3.861,0,0,1-1.477-.052A5.443,5.443,0,0,1,0,176.1a4.837,4.837,0,0,1,1.182-.971,4.284,4.284,0,0,1,1.48-.052q28.575,0,57.151.015c.969,0,2.518-.471,2.55,1.045.032,1.545-1.525,1.1-2.489,1.1-9.587.028-19.175.017-28.762.017" transform="translate(0 -109.485)" fill="#fff"/>
      </g>
    </g>
  </g>
</svg>
