<svg xmlns="http://www.w3.org/2000/svg" xmlns:xlink="http://www.w3.org/1999/xlink" width="163.633" height="297.647" viewBox="0 0 163.633 297.647">
  <defs>
    <clipPath id="clip-path">
      <rect id="Rectangle_20262" data-name="Rectangle 20262" width="118.368" height="118.368" fill="none"/>
    </clipPath>
    <clipPath id="clip-path-2">
      <rect id="Rectangle_20264" data-name="Rectangle 20264" width="61.4" height="59.756" fill="#622f88"/>
    </clipPath>
  </defs>
  <g id="Group_52187" data-name="Group 52187" transform="translate(-50 -1090.141)">
    <g id="Group_52080" data-name="Group 52080" transform="translate(0 -1167.585)">
      <path id="Path_75752" data-name="Path 75752" d="M124.527,596.852H0V360.916a7.789,7.789,0,0,1,7.789-7.789H124.527a39.106,39.106,0,0,1,39.106,39.106V557.746a39.106,39.106,0,0,1-39.106,39.106" transform="translate(50 1904.599)" fill="#7f3f97"/>
      <path id="Path_75753" data-name="Path 75753" d="M0,882.258,89.276,936.18V882.258Z" transform="translate(50 1619.193)" fill="#622f88"/>
      <g id="Group_52051" data-name="Group 52051" transform="translate(72.632 2320.404)" opacity="0.1">
        <g id="Group_52056" data-name="Group 52056">
          <g id="Group_52055" data-name="Group 52055" clip-path="url(#clip-path)">
            <path id="Path_75758" data-name="Path 75758" d="M167.5,548.386A59.184,59.184,0,1,1,108.319,489.2,59.184,59.184,0,0,1,167.5,548.386" transform="translate(-49.135 -489.202)"/>
          </g>
        </g>
      </g>
      <path id="Path_75756" data-name="Path 75756" d="M168.947,558.273a50.741,50.741,0,1,1-50.741-50.741,50.741,50.741,0,0,1,50.741,50.741" transform="translate(13.61 1821.315)" fill="#fff"/>
      <g id="Group_52061" data-name="Group 52061" transform="translate(99.634 2351.086)">
        <g id="Group_52060" data-name="Group 52060" clip-path="url(#clip-path-2)">
          <path id="Path_75761" data-name="Path 75761" d="M6.346,119.559c-2.366.2-5.039-.941-5.848-3.312-.669-1.959-.532-11.939-.341-14.466a8.541,8.541,0,0,1,6.629-7.719c2.818-.7,14.372-.67,17.526-.306a7.65,7.65,0,0,1,5.543,3.728,8.829,8.829,0,0,1,6.2-4.836c5.673.418,12.3-.624,17.862-.02,3.978.432,6.85,4.269,7.169,8.062a152.748,152.748,0,0,1,.012,19.43c-.314,4.19-2.992,7.715-7.283,8.278-.13,2.333.828,3.738-2.3,3.315l-.357-24.4c.182-.985,1.867-.41,2.649-.551v19.2a5.942,5.942,0,0,0,4.616-4.544c-.571-6.779.827-15.012.025-21.618a6.122,6.122,0,0,0-5-4.716c-5.19-.62-11.446.412-16.752-.025a5.758,5.758,0,0,0-4.966,4.857H44.2c.37,0,1.089,1.343.722,1.821L39.949,117.03c.776.666,1.7,1.141,1.885,2.252a13.819,13.819,0,0,1-1.089,5.428c-.962,1.556-2.834,1.522-2.834,1.691v5.3H35.482v-5.96c0-.094-.966-.312-1.539-1-.618-.74-.773-2.091-.889-2.091H28.419v8.719c0,.506-1.986.3-2.428.331v-8.719c0-.722-2.99.075-3.552-.641-.6-.765.09-1.977.241-2.781H8.994v11.809c0,.49-2.649.49-2.649,0Zm18.983-8.167H8a3.285,3.285,0,0,1-.988-1.219,57.937,57.937,0,0,1,.009-8.148c.3-1.924,2.414-.981,2.414-.455v7.174H24c-.65-.982-3.434-2.755-1.629-3.95,1.423-.942,3.124,2.285,4.276,2.846.523-3.221,2.607-5.459,1.147-8.76-.784-1.774-2.736-2.57-4.558-2.726-3.031-.26-13.63-.371-16.191.379-1.741.51-3.861,2.1-4.181,3.986.223,4.587-.478,9.79-.063,14.305.157,1.708,1.212,2.094,2.772,2.3l17.852.016Zm16.776-9.05H30.957l-5.849,18.1h7.836c.778-1.539,1.16-2.631,2.825-3.356.6-.26,1.551-.2,1.884-.764Zm-2.649,17.218c-1.907-.191-3.626-.871-3.953,1.673-.227,1.77.478,2.623,2.3,2.62,1.514,0,1.164-3.159,1.649-4.292" transform="translate(0 -72.032)" fill="#622f88"/>
          <path id="Path_75762" data-name="Path 75762" d="M41.039,1.537c12.793-.371,12.988,19.435.149,19.37-12.223-.062-12.7-19.006-.149-19.37M39.92,4.191C31.44,5.43,32.558,19.68,42.675,18.2c8.473-1.238,7.3-15.482-2.754-14.012" transform="translate(-24.797 -1.194)" fill="#622f88"/>
          <path id="Path_75763" data-name="Path 75763" d="M177.28,2.8c8.614,8.6-4.34,21.579-12.955,13.286C155.469,7.556,168.614-5.855,177.28,2.8m-6.839-.214c-8.677.264-8.443,13.746.4,13.619,8.867-.128,8.8-13.9-.4-13.619" transform="translate(-125.761 0)" fill="#622f88"/>
        </g>
      </g>
    </g>
  </g>
</svg>
