<svg xmlns="http://www.w3.org/2000/svg" xmlns:xlink="http://www.w3.org/1999/xlink" width="80" height="80" viewBox="0 0 80 80">
  <defs>
    <clipPath id="clip-path">
      <rect id="Rectangle_19899" data-name="Rectangle 19899" width="40.067" height="45.158" fill="#fff"/>
    </clipPath>
  </defs>
  <g id="Group_51874" data-name="Group 51874" transform="translate(-20 -3888)">
    <circle id="Ellipse_152" data-name="Ellipse 152" cx="40" cy="40" r="40" transform="translate(20 3888)" fill="#ac8dc2"/>
    <g id="Group_51875" data-name="Group 51875" transform="translate(40 3905.421)">
      <g id="Group_51395" data-name="Group 51395" clip-path="url(#clip-path)">
        <path id="Path_75425" data-name="Path 75425" d="M0,0C7.427,0,14.664-.024,21.9.054a3.314,3.314,0,0,1,1.891,1.108c1.9,1.878,3.636,3.929,5.608,5.725a4.4,4.4,0,0,1,1.58,4.281,6.058,6.058,0,0,1-.812,1.6c-.338-.473-.689-.938-1.008-1.425a4.137,4.137,0,0,1-.262-.809c-1.846,0-3.73-.088-5.6.027-1.547.1-2.155-.381-2.06-2,.126-2.151.031-4.315.031-6.588H1.961V43.339h26.5a40.579,40.579,0,0,1,.048-4.121c.052-.5.645-.952.992-1.425.3.449.85.885.873,1.348.1,1.949.041,3.906.041,6.018H0Zm23.353,8.4h4.853L23.353,3.8Z" transform="translate(0 0)" fill="#fff"/>
        <path id="Path_75426" data-name="Path 75426" d="M47.254,46.367A10.057,10.057,0,1,1,57.2,56.377a10.131,10.131,0,0,1-9.951-10.01m9.908,8.019a8.087,8.087,0,1,0-7.988-8.125,8.055,8.055,0,0,0,7.988,8.125" transform="translate(-27.302 -20.938)" fill="#fff"/>
        <path id="Path_75427" data-name="Path 75427" d="M31.382,74.736c-3.065,0-6.131.036-9.194-.041-.433-.011-.852-.571-1.279-.878.388-.274.769-.774,1.165-.786,2.58-.073,5.166-.11,7.743.007.642.029,1.256.666,1.882,1.024l-.317.673" transform="translate(-12.081 -42.156)" fill="#fff"/>
        <path id="Path_75428" data-name="Path 75428" d="M31.72,40.364c-.706.358-1.4.988-2.119,1.026-2.44.13-4.894.095-7.338.011-.456-.016-.895-.548-1.341-.842.439-.3.871-.849,1.318-.861,3.065-.076,6.133-.04,9.2-.04l.28.706" transform="translate(-12.088 -22.908)" fill="#fff"/>
        <path id="Path_75429" data-name="Path 75429" d="M29.265,63.67c-2.437,0-4.875.039-7.309-.041-.368-.012-.719-.576-1.077-.885.328-.27.648-.763.985-.775,2.1-.073,4.207-.106,6.3.013.489.027.943.689,1.413,1.06l-.314.629" transform="translate(-12.063 -35.766)" fill="#fff"/>
        <path id="Path_75430" data-name="Path 75430" d="M29.564,51.368c-.4.411-.784,1.153-1.206,1.176-2.164.121-4.34.092-6.509.019-.325-.011-.632-.529-.948-.812.3-.294.587-.834.892-.843,2.5-.069,5.006-.039,7.51-.039l.261.5" transform="translate(-12.076 -29.388)" fill="#fff"/>
        <path id="Path_75431" data-name="Path 75431" d="M59.32,52.766l3.66,3.051L67.84,50.3c1.656.964,2.121,1.5,1.04,2.594-1.828,1.843-3.573,3.769-5.483,5.8-1.777-1.518-3.319-2.725-4.7-4.094-.331-.328-.131-1.193-.175-1.811l.8-.025" transform="translate(-33.801 -29.064)" fill="#fff"/>
      </g>
    </g>
  </g>
</svg>
